<?xml version="1.0" encoding="UTF-8" standalone="no"?>
<svg
   xmlns:dc="http://purl.org/dc/elements/1.1/"
   xmlns:cc="http://creativecommons.org/ns#"
   xmlns:rdf="http://www.w3.org/1999/02/22-rdf-syntax-ns#"
   xmlns:svg="http://www.w3.org/2000/svg"
   xmlns="http://www.w3.org/2000/svg"
   viewBox="0 0 877.33331 250.66667"
   height="250.66667"
   width="877.33331"
   xml:space="preserve"
   id="svg2"
   version="1.1"><metadata
     id="metadata8"><rdf:RDF><cc:Work
         rdf:about=""><dc:format>image/svg+xml</dc:format><dc:type
           rdf:resource="http://purl.org/dc/dcmitype/StillImage" /></cc:Work></rdf:RDF></metadata><defs
     id="defs6" /><g
     transform="matrix(1.3333333,0,0,-1.3333333,0,250.66667)"
     id="g10"><g
       transform="scale(0.1)"
       id="g12"><path
         id="path14"
         style="fill:#00773d;fill-opacity:1;fill-rule:evenodd;stroke:none"
         d="m 5522.97,1299.14 c 22.3,-9.41 41.37,-45.12 52.62,-75.16 5.89,-15.74 3.28,-48.47 2.65,-61.48 -19.96,-30 -60,-40.51 -90.94,-58.09 8.05,63.09 33.56,158.13 35.67,194.73 m -67.31,248.63 c 5.63,-5.15 8.48,-129.41 -4.64,-270.66 -2.58,-31.64 -20.24,-127.42 -35.94,-199.34 -38.6,-19.88 -107.97,-39.33 -122.58,-39.33 -14.88,6.87 -38.63,10.47 -53.55,17.34 -10.43,-4.45 -7.31,-9.26 -6.02,-25.47 32.3,-36.681 76.68,-57.419 111.99,-67.419 3.48,4.769 1.99,11.597 7.11,13.711 15,6.289 39.26,18.75 56.99,21.367 -6.56,0 -15.74,-221.918 -115.97,-301.559 -49.85,-32.148 -91.37,-41.211 -120.59,-43.32 -2.46,-1.758 4.45,-8.051 3.24,-10.238 -5.66,-12.973 83.28,-7.77 133.71,6.207 12.07,7.191 63.52,3.601 97.89,82.851 12.39,28.559 20.98,76.25 39.42,154.219 14.92,57.703 42.42,-12.539 64.8,-46.25 28.68,-45.82 49.61,-102.731 78.28,-148.547 28.64,-25.242 61.61,-41.844 128.48,-55.352 82.77,68.821 113.36,118.711 116.84,158.079 -29.53,14.14 -61.29,-27.887 -130.43,-29.137 -64.85,1.598 -173.79,144.488 -226.33,146.41 -31.91,7.379 -11.21,45.898 -11.13,55.387 0,0 0.89,49.451 9.68,50.311 3.13,0.24 5.16,8.83 7.66,10.12 27.46,40.04 153.4,89.69 153.4,94.1 14.06,29.3 2.15,84.73 -19.77,118.55 -28.04,3.01 -62.58,54.3 -89.76,72.97 4.92,13.48 3.55,39.93 11.64,70.35 3.67,13.87 7.69,22.47 11.68,36.22 3.9,13.67 30.82,24.21 27.73,77.77 -30.97,13.75 -61.91,34.65 -92.89,47.19 -10.31,4.18 -20.62,-1.14 -30.94,3.47" /><path
         id="path16"
         style="fill:#00773d;fill-opacity:1;fill-rule:evenodd;stroke:none"
         d="m 6007.89,1127.7 c -6.41,-7.11 -113.79,-112.7 -72.89,-193.868 12.07,-33.211 38.2,-31.172 56.68,-34.262 8.4,-1.41 15.2,-8.238 18.44,-12.23 0,0 6.79,23.32 -0.35,39.262 -7.82,17.308 -5.51,29.918 -4.73,46.597 15.12,31.101 31.41,55.821 37.93,68.681 5.04,9.96 2.11,15.78 2.11,15.78 l -33.17,-29.34 0.39,38.44 17.9,33.83 8.82,26.6 z m 159.77,321.4 c 17.81,10.08 48.43,11.64 91.91,4.65 15.35,17.11 28.05,39.57 34.84,73.75 -12.03,19.26 -7.5,43.36 -2.46,62.62 25.24,-21.33 49.42,-39.34 91.68,-82.54 -23.59,-26.41 -47.22,-57.66 -70.82,-84.06 12.58,-14.18 26.99,-35.55 34.49,-52.04 32.5,-16.56 39.81,-41.68 29.93,-62.46 -10.32,-8 -35.04,-6.44 -45.35,-14.45 8,-12.62 22.46,-25.23 30.46,-37.85 39.54,89.84 100.47,133.24 118.32,197.42 -28.67,-8.01 -50.93,-35.27 -79.61,-43.28 -23.43,3.87 21.72,53.83 96.8,92.15 47.7,-32.23 62.27,-65.24 24.53,-110.31 -28.51,-10.94 -65.04,-68.75 -103.16,-119.5 26.76,14.38 58.9,17.5 85.23,16.18 -7.69,15.15 28.87,16.56 72.5,14.14 0,-21.8 -3.2,-51.57 -3.2,-73.36 -16.64,-8.6 -34.84,-13.79 -51.37,-22.07 -89.26,-44.65 -175.35,-88.6 -265.31,-135.04 -2.27,-9.14 0.2,-13.52 -2.03,-22.7 18.2,19.18 27.11,33.67 105.7,57.11 12.62,-20.62 22.03,-20.43 34.61,-61.91 -19.45,-37.85 -27.73,-75.671 -47.23,-113.519 31.76,11.801 70.75,14.77 115.32,13.789 18.04,-0.199 33.4,-15.269 42.93,-19.73 3.01,-25.969 -3.01,-31.641 -8.52,-49.059 -6.6,-4.57 -3.4,-23.75 -41.87,-3.199 -13.64,7.297 -32.19,-3.32 -36.29,-4.141 -18.36,-5.742 -23.91,-9.89 -42.23,-15.632 7.58,21.8 15.66,32.89 27.5,33.281 -19.45,-3.469 -38.94,-6.91 -58.48,-10.309 8.6,-63.082 27,-126.133 20.43,-189.222 1.53,-30 -6.79,-55.27 -26.64,-85.309 -17.69,-11.641 -21.01,-11.129 -41.72,-5.941 -11.91,3.011 -16.99,16.062 -62.73,13.363 -46.17,8.668 -95,53.789 -149.61,100.59 l -2.23,29.797 c -0.93,12.191 116.22,-107.34 179.73,-87.579 63.56,0 58.91,18.321 56.41,71.102 2.3,78.398 -20.63,138.469 -20.63,138.469 -3.44,3.789 -88.4,-24.18 -117.89,-65.621 -10.82,-15.231 -25.78,-26.059 -36.4,-23.559 -25.82,5.981 -65.94,51.41 -63.05,59.539 l 10,28.039 c 0,0 6.4,-6.398 41.13,-7.769 52.23,3.441 165.82,65.082 166.45,65.121 11.44,77.609 30.93,92.809 16.75,112.769 -34.37,-19.49 -43.16,-45.351 -77.53,-64.84 -48.13,3.942 -68.99,26.52 -81.84,48.63 2.27,59.14 75.59,98.59 130.16,107.07 76.83,37.81 120.03,58.01 196.83,95.82 0,0 49.49,36.64 23.83,40.59 -92.89,21.4 -316.68,-128.75 -316.68,-120.39 -15.86,13.98 -22.46,12.53 -51.72,24.92 -18.44,-5.16 -15.9,23.47 -13.12,26.72 27.5,-2.31 53.39,-4.61 80.89,-6.92 43.6,21.8 83.95,33.95 127.54,55.74 -14.92,12.62 -25.04,38.05 -39.92,50.67 -1.37,-21.13 -6.48,-51.8 -37.85,-47.19 -6.87,2.27 -13.75,4.57 -20.62,6.84 -26.37,-12.62 -52.74,-25.2 -79.11,-37.86 20.63,24.11 47.66,48.17 68.28,72.27 1.18,14.92 -28.08,33.01 -26.95,47.89 -4.61,14.96 37.31,2.58 58.4,-8.2 8.05,6.87 16.05,15.35 24.1,22.22 l -10.31,30.94 -30.98,-24.06 c -35.47,1.99 -84.57,1.72 -65.35,12.81 l 57.97,48.6 c -19.41,1.79 -38.95,3.55 -58.36,5.27 z m -107.46,-30.82 c 9.1,-0.04 43.43,-3.9 45.97,-14.88 41.41,-15.39 76.49,-112.81 64.92,-120.51 -18.36,0 -38.86,6.6 -57.22,6.6 0,0 0.93,25.16 -6.76,42.35 0,10.78 -27.07,29.45 -42.42,53.47 -9.18,14.42 -4.49,32.97 -4.49,32.97 m -54.18,-80.35 c 17.85,-44.96 26.21,-82.73 20.62,-110.08 18.91,-18.94 58.2,-39.76 60.86,-72.3 0.86,-10.35 17.3,-10.28 23.59,-16.6 4.03,14.92 -3.79,44.41 2.43,60.82 6.21,16.44 17.65,33 16.17,48.47 -14.92,5.71 -38.64,0.43 -53.52,6.14 -12.38,29.8 -12.11,65.93 -70.15,83.55" /><path
         id="path18"
         style="fill:#00773d;fill-opacity:1;fill-rule:evenodd;stroke:none"
         d="m 2415.94,1636.48 c 111.56,-61.75 89.88,-99.14 95.47,-154.64 -7.03,-14.57 -24.89,-18.64 -24.11,-37.86 l 65.36,3.48 68.79,89.42 c 0,0 30.97,34.37 55.03,34.37 24.11,0 24.11,-75.66 24.11,-75.66 0,0 19.92,-28.75 -27.93,-49.81 -80.94,-10.04 -93.01,-44.3 -94.96,-63.83 40.5,5.71 63.12,-31.48 73.47,-46.48 l 23.13,16.05 c 13.4,21.64 28.98,-3 40.19,-2.34 6.56,-42.34 -5.78,-46.91 -17.77,-54.34 l -27.7,-17.11 -34.06,-48.24 c -40.58,-41.52 -13.94,-27.34 -76.52,-64.65 -17.62,20.94 41.44,54.77 29.45,82.97 -24.06,17.19 -31.91,21.49 -22.27,43.6 3.83,5.78 15.28,-2.74 15.75,2.69 3.24,38.05 -35.59,57.03 -35.59,57.03 l -18.63,-11.91 -11.33,-15.9 28.59,-27.34 c -1.87,-27.66 9.26,-21.96 -5.89,-34.57 l 0.39,-133.83 89.45,24.06 c 0,0 67.19,28.75 82.62,56.29 17.65,16.45 121.75,-34.88 82.46,-63.2 -150.24,-44.93 -240.08,-125.32 -213.24,-130.71 l 73.32,-66.79 c 0,0 24.02,-51.371 -17.5,-57.968 -87.9,11.008 -100.55,-10.864 -100.55,-10.864 0,-15.386 5.78,-215.668 -4.14,-262.308 -15.39,-80.738 -24.88,-71.051 -47.58,-66.36 -20.98,75.27 -26.99,301.008 -32.34,301.008 -29.77,2.231 -54.22,-9.918 -81.76,-23.668 -27.5,-13.75 -2.7,-33.16 -57.77,-29.73 -55.04,3.48 -80.59,73.211 -41.26,86.019 39.34,12.77 183.6,118.161 178.44,118.161 -5.15,0 2.07,36.49 -5.35,50.39 -31.68,6.14 -175.55,-66.871 -175.55,-84.058 -28.63,-33.75 -50.11,-17.731 -50.11,-17.731 0,0 -53.09,53.589 -66.84,70.819 6.09,6.17 -12.93,30.7 40.51,15.94 99.73,-10.32 253.08,63.16 253.08,63.16 l -1.25,53.67 c 0,0 -19.64,-4.53 -23.08,-21.72 -3.44,-17.22 -2.46,-28.79 -2.46,-28.79 l -75.16,7.35 c 0,0 2.07,10.97 -1.37,31.6 -8.94,10.74 -26.17,19.8 -26.17,19.8 l 25.35,25.86 c 0,0 2.04,47.85 2.04,75.39 21.01,14.3 44.88,-11.79 44.88,-11.79 13.44,4.53 48.98,13.67 49.37,9.06 9.89,28.94 -13.04,82.26 -1.21,87.23 20.63,13.75 61.88,-3.44 61.88,-3.44 l 32.93,51.44 -74.46,-4.68 -61.75,-30.94 c 0,0 -41.18,15.12 -54.93,59.84 -13.75,44.73 21.06,0 74.46,12.5 6.01,25.74 8.79,105.82 -10.63,146.25 -8.79,61.45 13.44,46.76 12.7,57.81 m 120.47,-553.16 c 26.83,5.51 76.95,15.86 65.07,7.73 l -66.17,-45.23 c -2.42,13.71 -2.22,27.54 1.1,37.5 m -2.23,-106.988 c -3.24,-6.801 0.82,-31.293 -1.09,-39.691 7.73,2.5 18.75,11.519 19.84,19.839 1.05,7.782 -12.54,10.321 -18.75,19.852 M 2324.65,871.559 c 0,0 3.75,-3.039 23.98,0.16 20.08,3.16 45.24,11.761 100.63,30.703 -1.06,17.66 1.09,63.129 -6.6,52.93 l -26.84,-14.02 c -40.27,-23.633 -66.29,-45.043 -91.17,-69.773" /><path
         id="path20"
         style="fill:#00773d;fill-opacity:1;fill-rule:evenodd;stroke:none"
         d="m 4637.03,1135.74 c 39.57,-26.17 64.77,-34.76 83.79,-46.25 7.11,-14.49 10.9,-27.42 -7.7,-44.84 -3.43,-3.24 -23.94,-16.17 -17.61,-19.96 19.26,4.18 22.03,6.13 35.78,0.43 1.37,-10.32 6.72,-40.429 -8.79,-50.78 -51.13,-30.942 -61.48,-60.43 -57.93,-63.129 29.81,21.371 59.61,41.988 85.04,66.168 1.13,68.791 2.23,102.351 3.44,171.141 14.37,26.05 35.19,61.09 52.54,49.02 8.43,-7.85 20.86,-14.38 28.43,-28.79 7,-23.71 9.65,-54.1 22.62,-99.73 12.42,-7.3 8.75,-30.23 13.2,-45.82 -25.23,-26.36 -51.56,-46.13 -76.75,-72.501 -2.62,-26.359 -1.14,-83.59 2.18,-109.961 0,0 110.35,62.782 161.96,7.742 57.07,-55.039 22.38,-97.031 22.38,-97.031 -26.45,-14.609 -61.72,-19.34 -91.49,-17.469 5.86,28.95 19.69,44.649 6.76,95.469 7.03,12.66 -54.41,16.449 -98.24,-28.711 0.27,-42.968 8.83,-96.597 13.52,-141.047 6.44,-59.14 11.91,-41.679 16.21,-48.171 2.46,-8.981 7.38,-23.821 -1.72,-27.418 -7.15,-2.77 -58.2,0.117 -60.74,2.699 -25.51,16.09 -26.29,17.5 -43.91,38.898 -1.95,13.641 -8.12,19.61 2.03,34.731 2.66,26.84 1.95,61.64 0.63,93.359 -48.64,-36.019 -83.13,-69.379 -86.88,-89.687 -10.82,-25.391 -41.25,-40.782 -38.48,-42.262 -14.72,-7.352 -70,44.719 -82.85,47.89 -14.49,14.219 -11.87,33.161 -18.71,52.692 58.56,-13.59 92.66,-22.113 110.08,-12.223 42.38,38.75 80.35,64.25 120.51,90.781 0,35.54 3.32,67.809 3.32,103.36 -25.39,-15.899 -29.92,-40.629 -53.17,-56.488 -7.69,-5.27 -42.96,-5.082 -51.79,-1.602 -20,29.02 -27.54,29.531 -35.78,64.371 11.44,10.75 36.13,5.43 47.61,7.309 14.89,14.879 29.77,35.308 35.86,50.23 -12.61,13.75 -38.4,-31.949 -37.81,46.76 20.82,11.84 28.98,19.38 32.19,36.99 -15.47,4.69 -37.23,24.5 -43.87,45.67 -5.19,16.44 4.88,35.23 14.14,38.16 m 68.79,459.92 c 0,0 59.02,-18.94 46.84,-68.78 -44.03,-30.12 -28.95,-175.71 -33.87,-173.21 5.27,-14.72 1.8,-61.37 7.11,-76.09 23.79,18.51 46.95,41.09 62.65,71.33 53.79,45.19 108.29,90.31 127.27,135.58 2.93,8.01 10.27,35.86 -18.75,29.57 -18.01,-26.09 -49.8,-51.05 -65.78,-77.5 -18.67,-30.82 -16.56,-43.98 -60.12,-43.83 -21.48,13.52 -30.55,44.89 -40.31,73.05 26.41,0 52.77,-2.19 79.14,-2.19 35.55,27.5 64.45,41.8 102.23,77.03 22.93,-2.26 45.86,-4.57 68.79,-6.87 5.39,-32.11 6.4,-57.58 4.14,-89.69 -49.3,-34.37 -96.41,-66.6 -145.75,-101.01 -32.07,-21.76 -60.89,-55.67 -83.08,-79.65 58.83,15.74 106.99,38.08 162.93,67.58 10.7,5.66 1.79,12.14 13.04,20.47 18.36,2.3 23.48,4.6 41.84,6.87 38.44,-21.99 38.75,-30.66 41.25,-55.7 -8.67,-20.78 -15.82,-38.56 -27.15,-39.46 -59.33,-4.68 -104.18,-15.5 -122.38,-35.54 -13.59,12.42 8.05,20.39 -1.09,27.26 -67.23,-13.12 -137.23,-45.04 -204.89,-74.33 -63.59,-23.17 -122.22,-44.89 -154.8,-59.89 -17.7,-8.16 -24.34,-18.55 -33.24,-17.93 -69.73,14.11 -90.32,44.38 -79.26,47.86 20.62,0 52.38,-3.4 73.01,-3.4 137.89,32.38 155.5,57.03 219.61,83.86 -5.71,9.18 -11.45,18.36 -17.19,27.54 3.4,5.75 6.87,11.45 10.35,17.19 -3.48,18.36 5.19,54.3 1.76,72.66 -1.6,-0.04 -10.24,-2.15 -14.57,-6.06 -5.78,-5.11 3.32,-27.89 -2.54,-33.4 -21.13,-19.92 -47.78,-29.53 -70.71,25.28 l -13.86,32.62 c -10.67,27.03 7.22,31.67 26.29,27.1 l 18.28,-16.25 c -7.81,6.29 59.33,-7.46 55.35,21.88 -3.52,144.34 33.59,220.55 27.46,196.05 m 90.43,-437.38 c -4.02,-4.02 -5.86,-9.18 -9.92,-13.24 -2.19,-45.12 -1.49,-90.24 2.22,-135.39 5.86,-0.74 7.31,-1.49 13.21,-2.23 10.62,4.81 23.47,20.59 34.1,29.73 0,21.68 -6.6,42.23 -6.6,63.9 -5.31,23.29 -8.99,42.74 -23.09,57.23 -2.58,-0.39 -7.38,0.35 -9.92,0" /><path
         id="path22"
         style="fill:#00773d;fill-opacity:1;fill-rule:evenodd;stroke:none"
         d="m 3787.46,814.691 c 0,0 -90.66,-119.461 -91.21,-160.281 19.26,-69.488 91.21,160.281 91.21,160.281 M 3812.38,1415 c 35.12,-12.73 31.72,-49.69 61.37,-52.54 20,13.2 47.38,23.99 55.43,33.56 -3.67,29.45 10.27,51.21 -10.98,94.92 12.78,41.83 31.96,80 65.32,110.08 16.75,-9.65 43.2,-30.43 67.3,-87.78 -1.13,-31.64 -14.69,-41.72 -19.92,-58.12 -2.42,-7.46 -1.8,-15.12 -1.68,-24.03 28.63,23.44 52.89,32.86 81.6,39.22 39.69,-4.8 50.43,-17.69 64.1,-43.04 -56.29,-73.36 -114.84,-138.6 -162.34,-205.98 -21.13,-5.63 -39.65,4.18 -57.81,16.21 -13.72,-14.53 -16.8,-31.72 -7,-49.26 8.01,6.92 10.55,15.98 18.56,22.89 10.31,5.28 27.26,-8.63 37.58,-18.04 -35.82,-56.61 -59.85,-114.73 -77.62,-168.83 l 60.7,54.88 c 18.63,14.41 31.72,16.72 50.31,31.13 32.7,-14.14 47.82,-37.03 60.71,-63.28 -5.63,-30.58 -48.36,-75.541 -65.24,-103.67 -11.56,-8.75 -40.07,-23.238 -63,-41.91 -8.21,18.039 -17.86,27.57 -37.82,22.031 -4.33,-87.703 -15.54,-134.57 -2.22,-199.531 12.3,19.68 31.68,33.039 41.01,52.731 -9.18,5.738 -19.45,10.347 -28.63,16.089 3.67,13.75 -0.98,33.911 -3.2,47.7 71.21,0.351 95.89,12.031 122.89,47.769 14.84,-6.211 46.13,-33.398 53.28,-51.719 -22.97,-19.449 -53.6,-37.808 -87.54,-40.742 14.65,-23.937 72.26,-33.547 110.78,-43.75 3.48,-53.468 -81.52,-71.906 -83.91,-63.547 -6.01,24.489 -21.75,50.821 -57.14,82.258 -18.48,-18.508 -36.02,-48.937 -51.57,-88.039 -4.84,-58.32 -23.36,-64.34 -44.72,-72.23 -25.51,9.531 -39.26,27.89 -41.25,55.039 1.52,18.441 -7.35,44.883 1.79,50.429 6.45,3.942 12.86,39.223 13.56,60.391 2.19,68.871 14.02,129.801 27.26,186.211 22.54,5.551 50.55,5.98 73.05,-3.199 22.85,25.578 54.45,55.349 59.34,101.869 -45.63,-14.92 -105.51,-65.971 -154.38,-110.229 -27.3,-76.101 -59.18,-126.8 -97.54,-217.703 -22.54,-55.308 -50.74,-108.078 -71.01,-133.117 0,0 -23.95,-27.891 -43.6,-14.18 -39.49,94.098 160.55,340.938 160.55,340.938 l 65.35,175.421 c -30.9,-8.86 -44.22,8.56 -34.26,39.34 10.9,31.88 68.95,204.02 59.3,197.15 -13.75,-2.27 -23.12,-16.68 -36.87,-18.99 -2.58,-49.29 -6.25,-55.66 -48.44,-58.75 -2.27,10.32 2.03,11.84 -0.28,22.15 -14.45,8.09 -21.91,13.01 -42.61,11.68 -4.26,15.9 -5.59,30.32 13.75,34.42 4.1,26.36 -13.56,62.65 7.69,85.7 m -105.11,-109.06 c 9.53,-70.12 43.67,-61.99 30.82,-121.1 20.19,-20.19 50.54,-53.75 52.93,-60.54 2.46,-6.8 65.54,7.73 33.32,84.76 -32.19,77.03 -64.65,95.86 -64.65,95.86 z m 356.52,87.61 c 0,0 -54.49,-16.01 -70.55,-28.82 -3.16,-32.07 -16.01,-73.71 -12.81,-73.71 48.32,34.18 62.42,68.36 83.36,102.53" /><path
         id="path24"
         style="fill:#00773d;fill-opacity:1;fill-rule:evenodd;stroke:none"
         d="m 3235.9,1144.34 c -2.46,-30.55 -2.38,-58.87 -1.92,-89.42 22.39,19.46 43.36,48.13 51.1,76.41 l 34.61,-3.21 c 58.47,75.24 123.51,108.68 106.48,117.58 -72.42,-22.93 -132.5,-57.85 -190.27,-101.36 m -65.47,472.03 c 16.72,19.33 120.51,-78.67 114.61,-118.05 -22.54,-69.22 -42.38,-64.73 -44.45,-277.07 47.89,26.45 162.96,66.13 218.59,79.34 l 35.94,6.64 c 13.55,-7.46 23.83,-22.7 35.23,-40.04 l -2.38,-26.49 c -54.65,-36.36 -87.35,-60.74 -162.58,-134.49 l -4.41,-42.38 c -18.48,-8.4 -122.82,-59.22 -125.08,-83.631 2.58,-100.98 6.29,-190 4.1,-241.097 18.24,-24.692 -8.87,-150.582 -42.73,-170.27 -15.36,-23.172 -35.24,45.508 -56.45,139.918 l 13.75,24.059 c 0.9,114.773 -17.3,211.882 -14.96,331.021 -20.9,1.29 -49.61,-35.67 -57.11,-53.91 -6.09,-14.881 -19.53,-23.83 -40.31,-26.99 -30.35,4.57 -56.33,41.09 -70.16,56.68 -25.66,26.41 -35.51,55.31 -32.89,74.73 2.62,19.37 48.05,-36.61 85.7,-33.17 0.32,3.87 26.84,6.49 112.27,78.28 2.58,288.95 11.44,430.55 33.32,456.92" /><path
         id="path26"
         style="fill:#00773d;fill-opacity:1;fill-rule:evenodd;stroke:none"
         d="m 6537.42,378.359 -43.04,-79.808 1.09,-48.352 h -39.96 l -0.98,49.371 -56.91,78.789 h 41.52 l 30.74,-47.379 22.07,47.379 z m -155.74,0 0.82,-31.48 h -41.6 l 1.68,-96.68 h -39.81 l -1.75,96.68 h -39.81 l -0.7,31.48 z m -151.91,0 2.53,-128.16 h -40.07 l -2.58,128.16 z m -75.08,-35.589 -36.6,-1.989 c -3.44,11.098 -10.98,16.68 -22.54,16.68 -4.73,0 -8.13,-1.012 -10.2,-3.012 -2.03,-2.027 -2.77,-4.41 -2.15,-7.219 0.47,-2.031 2,-3.949 4.46,-5.781 2.46,-1.84 7.85,-4.179 16.17,-7.07 10.55,-3.758 19.22,-7.27 26.05,-10.59 6.84,-3.32 12.82,-7.617 17.89,-12.93 5.12,-5.308 8.6,-11.91 10.43,-19.879 1.76,-7.429 1.29,-14.378 -1.36,-20.82 -2.66,-6.41 -7.43,-11.762 -14.26,-15.941 -6.92,-4.098 -17.54,-6.207 -31.99,-6.207 -20.36,0 -35.71,3.898 -46.02,11.718 -10.31,7.77 -16.95,17.809 -19.8,30.04 l -0.71,3 36.64,2.539 c 1.88,-8.008 4.96,-13.629 9.26,-16.911 4.34,-3.316 9.57,-4.957 15.78,-4.957 6.29,0 10.78,1.36 13.44,4.098 2.7,2.77 3.55,5.859 2.73,9.34 -0.58,2.652 -2.18,5.031 -4.84,7.301 -2.62,2.23 -8.36,4.8 -17.27,7.73 -20.42,6.801 -33.78,13.012 -40.07,18.711 -6.33,5.75 -10.47,12.617 -12.39,20.668 -1.68,7.34 -1.17,14.02 1.53,20.121 2.69,6.051 7.54,10.738 14.61,14.102 7.03,3.359 16.05,5.039 26.99,5.039 34.69,0 56.09,-12.621 64.22,-37.781 m -218.6,-16.52 h 7.5 c 12.62,0 20.63,0.59 24.03,1.719 3.43,1.172 5.7,3.16 6.87,5.941 1.13,2.731 1.45,5.43 0.86,7.969 -0.78,3.32 -2.42,5.851 -5.04,7.691 -2.61,1.879 -7.5,2.809 -14.72,2.809 h -20.08 z m -40.89,52.109 h 72.92 c 12.58,0 22.58,-3.277 29.97,-9.879 7.38,-6.601 12.11,-14.531 14.25,-23.789 2.39,-10.043 1.33,-18.793 -3.08,-26.293 -4.42,-7.457 -13.21,-12.269 -26.25,-14.378 9.53,-6.481 23.36,-24.489 41.4,-53.821 h -41.83 c -5.7,9.25 -12.15,19.371 -19.49,30.391 -7.35,10.969 -12.43,17.34 -15.16,19.058 -2.81,1.801 -5.9,2.653 -9.3,2.653 h -2.11 l 1.25,-52.102 h -39.76 z m -36.49,0 0.63,-27.539 h -65.08 l 0.47,-20.39 h 62.69 l 0.31,-25.942 h -62.61 l 0.47,-25.109 h 70.54 l 0.59,-29.18 H 5756.6 l -2.62,128.16 z m -129.49,0 -41.99,-128.16 h -42.85 l -54.61,128.16 h 39.33 l 32.81,-91.289 h 0.36 l 24.02,91.289 z m -165.9,0 2.5,-128.16 h -40.08 l -2.58,128.16 z m -80.74,0 2.46,-128.16 h -37.07 l -49.18,74.449 h -0.31 l 1.48,-74.449 h -37.23 l -2.46,128.16 h 37.07 l 49.03,-74.687 h 0.39 l -1.41,74.687 z m -160.9,0 1.48,-77.308 c 0.32,-18.039 -3.51,-31.442 -11.52,-40.031 -8.01,-8.68 -21.87,-13.008 -41.64,-13.008 -10.98,0 -19.92,1.047 -27.03,3.238 -6.99,2.109 -13.32,5.391 -18.83,9.691 -5.51,4.289 -9.92,9.219 -13.24,14.719 -3.32,5.512 -5.74,11.41 -7.23,17.699 -1.83,8.012 -2.85,15.621 -2.97,22.93 l -1.36,62.07 h 39.8 l 1.48,-72.148 c 0.12,-3.359 0.59,-6.949 1.49,-10.742 2.34,-10.117 9.57,-15.199 21.56,-15.199 6.41,0 11.33,1.921 14.88,5.75 3.6,3.859 5.2,11.32 4.93,22.378 l -1.72,69.961 z m -196.33,-96.879 0.78,-31.281 h -103.36 l -2.77,128.16 h 39.88 l 1.92,-96.879 z m -183.44,16.84 -14.8,46.719 h -0.35 l -11.14,-46.719 z m 54.42,-48.121 h -38.83 l -6.68,20.93 h -41.76 l -5.08,-20.93 h -42.65 l 42.42,128.16 h 42.19 z m -237.89,76.051 h 7.54 c 12.54,0 20.54,0.59 24.02,1.719 3.44,1.172 5.7,3.16 6.84,5.941 1.17,2.731 1.48,5.43 0.89,7.969 -0.82,3.32 -2.46,5.851 -5.07,7.691 -2.58,1.879 -7.5,2.809 -14.73,2.809 h -20.12 z m -40.86,52.109 h 72.89 c 12.58,0 22.58,-3.277 29.96,-9.879 7.38,-6.601 12.11,-14.531 14.3,-23.789 2.34,-10.043 1.29,-18.793 -3.13,-26.293 -4.41,-7.457 -13.16,-12.269 -26.25,-14.378 9.53,-6.481 23.4,-24.489 41.45,-53.821 h -41.88 c -5.66,9.25 -12.15,19.371 -19.45,30.391 -7.38,10.969 -12.42,17.34 -15.24,19.058 -2.73,1.801 -5.85,2.653 -9.25,2.653 h -2.07 l 1.21,-52.102 h -39.77 z m -38.4,0 1.41,-77.308 c 0.35,-18.039 -3.48,-31.442 -11.49,-40.031 -8.01,-8.68 -21.87,-13.008 -41.6,-13.008 -11.02,0 -19.96,1.047 -27.07,3.238 -7.03,2.109 -13.32,5.391 -18.83,9.691 -5.51,4.289 -9.92,9.219 -13.24,14.719 -3.32,5.512 -5.74,11.41 -7.23,17.699 -1.87,8.012 -2.85,15.621 -2.97,22.93 l -1.32,62.07 h 39.76 l 1.52,-72.148 c 0.08,-3.359 0.59,-6.949 1.45,-10.742 2.38,-10.117 9.53,-15.199 21.6,-15.199 6.37,0 11.29,1.921 14.85,5.75 3.55,3.859 5.19,11.32 4.96,22.378 l -1.76,69.961 z m -151.52,0 h -121.18 l 0.75,-31.48 h 39.76 l 1.84,-96.68 h 39.76 l -1.71,96.68 h 41.64 z m -121.53,-96.879 0.75,-31.281 h -103.33 l -2.81,128.16 h 39.96 l 1.88,-96.879 z m -143.79,96.879 1.45,-77.308 c 0.35,-18.039 -3.48,-31.442 -11.49,-40.031 -8,-8.68 -21.87,-13.008 -41.64,-13.008 -10.97,0 -19.96,1.047 -27.07,3.238 -6.99,2.109 -13.32,5.391 -18.82,9.691 -5.47,4.289 -9.89,9.219 -13.21,14.719 -3.32,5.512 -5.78,11.41 -7.22,17.699 -1.88,8.012 -2.86,15.621 -2.97,22.93 l -1.33,62.07 h 39.76 l 1.49,-72.148 c 0.08,-3.359 0.59,-6.949 1.48,-10.742 2.35,-10.117 9.53,-15.199 21.57,-15.199 6.36,0 11.32,1.921 14.84,5.75 3.59,3.859 5.23,11.32 4.96,22.378 l -1.76,69.961 z m -154.02,-42.07 -35.43,-4.098 -0.16,0.7 c -1.44,6.211 -4.41,10.898 -8.86,13.91 -4.42,3 -8.87,4.57 -13.4,4.57 -5.82,0 -10.98,-2.152 -15.51,-6.449 -4.53,-4.301 -7.46,-10.82 -8.79,-19.613 -1.25,-8.829 -0.94,-17.379 1.02,-25.739 1.48,-6.371 4.49,-11.679 8.9,-15.941 4.46,-4.289 9.96,-6.438 16.53,-6.438 6.09,0 10.74,1.95 14.02,5.778 3.24,3.91 5.51,9.761 6.84,17.73 l 38.4,-5.777 c -0.79,-13.203 -5.63,-24.301 -14.58,-33.363 -8.9,-9.059 -22.22,-13.547 -39.96,-13.547 -18.47,0 -33.75,4.918 -45.78,14.758 -12.07,9.89 -20.04,22.968 -23.86,39.339 -2.93,12.5 -3.01,25.161 -0.12,37.77 2.85,12.66 8.94,22.582 18.4,29.812 9.45,7.219 21.95,10.86 37.54,10.86 16.13,0 29.84,-4.071 41.05,-12.192 11.25,-8.089 19.18,-18.789 23.75,-32.07 m -159.34,42.07 2.58,-128.16 h -40.11 l -2.58,128.16 z M 3796.56,326.25 h 7.5 c 12.58,0 20.63,0.59 24.03,1.719 3.43,1.172 5.74,3.16 6.87,5.941 1.17,2.731 1.49,5.43 0.86,7.969 -0.78,3.32 -2.46,5.851 -5.04,7.691 -2.62,1.879 -7.5,2.809 -14.73,2.809 h -20.11 z m -40.9,52.109 h 72.93 c 12.58,0 22.58,-3.277 29.93,-9.879 7.38,-6.601 12.14,-14.531 14.29,-23.789 2.35,-10.043 1.33,-18.793 -3.08,-26.293 -4.42,-7.457 -13.21,-12.269 -26.25,-14.378 9.53,-6.481 23.32,-24.489 41.4,-53.821 h -41.87 c -5.67,9.25 -12.15,19.371 -19.46,30.391 -7.34,10.969 -12.38,17.34 -15.19,19.058 -2.77,1.801 -5.9,2.653 -9.26,2.653 h -2.11 l 1.25,-52.102 h -39.76 z m -36.91,-37.07 -37.97,-4.301 c -5.94,10.121 -14.33,15.242 -25.23,15.242 -10.67,0 -17.85,-5.39 -21.57,-16.179 -3.71,-10.781 -4.18,-22.34 -1.28,-34.602 1.68,-7.109 5.39,-13.09 11.13,-17.898 5.74,-4.801 12.22,-7.219 19.41,-7.219 h 0.35 c 8.17,0 14.85,2.066 20.04,6.289 l -0.35,13.75 h -24.18 l -0.51,26.75 h 59.81 l 1.21,-60.269 c -17.62,-9.922 -36.21,-14.84 -55.78,-14.84 -17.66,0 -32.78,4.758 -45.35,14.328 -12.58,9.57 -20.9,23.012 -24.96,40.32 -3.4,14.449 -3.21,27.692 0.54,39.762 3.79,12.066 10.86,21.41 21.29,28.129 10.43,6.64 23.4,10 38.91,10 30.27,0 51.79,-13.09 64.49,-39.262 m -189.84,-42.969 -14.85,46.719 h -0.35 l -11.09,-46.719 z m 54.37,-48.121 h -38.83 l -6.68,20.93 h -41.75 l -5.04,-20.93 h -42.7 l 42.42,128.16 h 42.23 z m -212.15,91.09 -38.01,-4.301 c -5.89,10.121 -14.33,15.242 -25.23,15.242 -10.66,0 -17.85,-5.39 -21.56,-16.179 -3.71,-10.781 -4.14,-22.34 -1.25,-34.602 1.64,-7.109 5.39,-13.09 11.09,-17.898 5.78,-4.801 12.23,-7.219 19.38,-7.219 h 0.39 c 8.12,0 14.84,2.066 20.04,6.289 l -0.36,13.75 h -24.21 l -0.47,26.75 h 59.8 l 1.21,-60.269 c -17.61,-9.922 -36.21,-14.84 -55.78,-14.84 -17.65,0 -32.77,4.758 -45.39,14.328 -12.54,9.57 -20.9,23.012 -24.92,40.32 -3.4,14.449 -3.16,27.692 0.55,39.762 3.79,12.066 10.89,21.41 21.32,28.129 10.39,6.64 23.36,10 38.87,10 30.28,0 51.84,-13.09 64.53,-39.262 m -162.77,37.07 2.46,-128.16 h -37.07 l -49.18,74.449 h -0.35 l 1.52,-74.449 h -37.22 l -2.47,128.16 h 37.04 l 49.06,-74.687 h 0.35 l -1.37,74.687 z M 2990.2,277.191 c 7.61,0 13.43,2.891 17.42,8.668 3.94,5.782 6.17,13.051 6.56,21.801 0.39,8.789 0.16,15.039 -0.74,18.789 -1.92,8.16 -5.43,14.41 -10.63,18.59 -5.11,4.18 -10.93,6.332 -17.38,6.332 -7.27,0 -12.85,-2.699 -16.84,-7.93 -3.98,-5.281 -6.25,-12.312 -6.83,-21.101 -0.59,-8.75 -0.12,-16.211 1.29,-22.418 1.56,-6.524 4.76,-11.953 9.61,-16.25 4.84,-4.293 10.7,-6.481 17.54,-6.481 m -7.35,103.36 c 19.53,0 35.08,-5.242 46.68,-15.711 11.6,-10.461 19.18,-23.32 22.77,-38.59 1.33,-5.898 2.11,-12.621 2.19,-20.121 0.08,-7.578 -1.37,-15.391 -4.29,-23.469 -2.97,-8.051 -7.66,-14.93 -14.07,-20.551 -6.4,-5.629 -12.93,-9.379 -19.61,-11.289 -6.64,-1.91 -13.98,-2.808 -21.95,-2.808 -18.32,0 -33.67,4.648 -46.13,13.898 -12.42,9.219 -20.59,22.27 -24.49,38.949 -2.07,8.75 -2.78,17.301 -2.19,25.621 0.62,8.29 2.58,16.141 5.86,23.481 3.36,7.379 8.08,13.59 14.29,18.559 6.21,4.96 12.7,8.199 19.5,9.718 6.79,1.563 13.94,2.313 21.44,2.313 m -96.13,-2.192 2.42,-128.16 h -39.76 l -1.06,52.102 h -42.93 l 1.25,-52.102 h -40.12 l -2.46,128.16 h 39.81 l 0.9,-45.308 h 42.81 l -0.55,45.308 z m -160.35,0 1.52,-25.777 -58.79,-74.852 h 70.55 l 0.58,-27.531 h -118.55 l -0.47,27.531 58.09,73.09 h -63.75 l -0.43,27.539 z m -181.92,-80.039 -14.84,46.719 h -0.35 l -11.1,-46.719 z m 54.38,-48.121 h -38.79 l -6.68,20.93 h -41.8 l -5.04,-20.93 h -42.69 l 42.42,128.16 h 42.23 z m -159.85,128.16 1.45,-77.308 c 0.31,-18.039 -3.48,-31.442 -11.48,-40.031 -8.01,-8.68 -21.92,-13.008 -41.65,-13.008 -10.97,0 -19.96,1.047 -27.03,3.238 -7.07,2.109 -13.36,5.391 -18.86,9.691 -5.47,4.289 -9.93,9.219 -13.21,14.719 -3.32,5.512 -5.78,11.41 -7.22,17.699 -1.88,8.012 -2.86,15.621 -2.97,22.93 l -1.33,62.07 h 39.77 l 1.48,-72.148 c 0.08,-3.359 0.59,-6.949 1.45,-10.742 2.38,-10.117 9.57,-15.199 21.6,-15.199 6.36,0 11.32,1.921 14.84,5.75 3.59,3.859 5.2,11.32 4.92,22.378 l -1.72,69.961 z m -160.74,0 2.46,-128.16 h -39.8 l -1.06,52.102 h -42.93 l 1.25,-52.102 h -40.11 l -2.46,128.16 h 39.76 l 0.9,-45.308 h 42.85 l -0.55,45.308 z" /><path
         id="path28"
         style="fill:#ffffff;fill-opacity:1;fill-rule:evenodd;stroke:none"
         d="m 944.301,57.6602 c 486.789,0 883.789,397.3398 883.789,884.5698 0,487.22 -397,884.65 -883.789,884.65 C 457.539,1826.88 60.5117,1429.45 60.5117,942.23 60.5117,455 457.539,57.6602 944.301,57.6602" /><path
         id="path30"
         style="fill:#00773d;fill-opacity:1;fill-rule:evenodd;stroke:none"
         d="m 1697.93,994.488 0.51,26.562 26.44,15.2 -25.9,16.13 0.43,26.49 44.54,-30.98 32.5,-0.55 -0.43,-24.02 -32.47,0.59 z m -6.76,-86.758 5.12,72.661 19.1,-1.332 -1.72,-24.411 58.28,-4.058 -1.72,-23.91 -58.24,4.058 -1.68,-24.367 z m -6.21,-43.589 3.36,23.789 76.8,-10.782 -3.36,-23.789 z m 33.28,-101.559 3.4,22.578 c 3.67,-0.32 6.68,0.11 8.91,1.172 3.55,1.789 5.82,4.918 6.75,9.406 0.71,3.321 0.51,6.063 -0.66,8.211 -1.21,2.141 -2.85,3.43 -4.92,3.86 -1.95,0.429 -3.91,-0.039 -5.82,-1.438 -1.92,-1.41 -4.22,-5.082 -6.95,-11.101 -4.5,-9.758 -9.15,-16.438 -13.87,-20 -4.77,-3.629 -10.12,-4.758 -16.06,-3.508 -3.9,0.859 -7.34,2.726 -10.35,5.699 -2.97,3.008 -4.96,6.949 -5.97,11.918 -1.02,5 -0.71,11.441 0.97,19.293 2.07,9.726 5.43,16.719 10.12,21.098 4.69,4.25 11.09,6.089 19.14,5.39 l -3.4,-22.351 c -3.55,0.121 -6.29,-0.579 -8.24,-2.188 -1.95,-1.519 -3.28,-3.941 -3.99,-7.223 -0.58,-2.777 -0.42,-4.918 0.43,-6.558 0.86,-1.61 2.11,-2.621 3.79,-2.969 1.21,-0.242 2.39,0.109 3.6,1.008 1.25,0.902 2.73,3.359 4.49,7.312 4.37,9.719 8.16,16.641 11.37,20.579 3.2,3.949 6.68,6.609 10.47,7.89 3.75,1.289 7.73,1.531 11.87,0.629 4.88,-1.019 9.06,-3.32 12.58,-6.879 3.55,-3.59 5.86,-8 6.95,-13.281 1.1,-5.27 0.86,-11.598 -0.7,-18.938 -2.74,-12.929 -7.11,-21.293 -13.17,-25.242 -6.01,-3.898 -12.93,-5.39 -20.74,-4.367 m -37.22,-60.594 2.77,9.731 c 0.31,1.051 0.55,3.16 0.74,6.402 0.16,1.609 -0.31,3.051 -1.25,4.379 -1.01,1.332 -2.3,2.27 -3.9,2.699 -2.43,0.699 -4.5,0.461 -6.22,-0.711 -1.75,-1.168 -3.2,-3.828 -4.41,-8.039 l -2.89,-10.078 z m 37.73,-35.859 -74.57,21.371 11.02,38.398 c 2.03,7.114 4.18,12.383 6.48,15.821 2.3,3.402 5.43,5.781 9.45,7.152 3.91,1.359 8.28,1.359 13.01,0 4.18,-1.211 7.46,-3.133 9.96,-5.711 2.5,-2.648 4.22,-5.781 5.24,-9.371 0.62,-2.309 0.82,-5.309 0.62,-8.949 1.68,2.5 3.2,4.18 4.49,5.199 0.82,0.66 2.46,1.52 4.93,2.582 2.5,1.051 4.33,1.68 5.58,1.91 l 24.81,4.957 -7.47,-26.047 -26.32,-5.781 c -3.4,-0.75 -5.75,-1.531 -6.96,-2.539 -1.64,-1.289 -2.73,-3.051 -3.36,-5.16 l -0.54,-1.992 30.23,-8.707 z m -106.29,-54.758 70.86,-31.57 26.6,59.769 -16.09,7.11 -16.8,-37.77 -13.98,6.211 15.19,34.02 -14.45,6.48 -15.16,-34.062 -11.29,5 16.33,36.722 -15.12,6.758 z m -46.8,-87.582 12.15,21.91 57.31,-11.789 -40.51,42.11 11.8,21.25 53.9,-62.739 -12.61,-22.73 z m -24.18,-35.82 13.09,20.121 65.04,-42.231 -13.13,-20.16 z m -60.97,-70.899 57.61,-51.91 15.08,16.75 -31.64,28.52 51.1,-6.91 15.11,16.789 -57.65,51.921 -15.08,-16.839 31.84,-28.672 -51.37,6.992 z m -31.6,-30.308 18.32,15.429 29.72,-35.429 c 2.93,-3.563 5.16,-7.352 6.72,-11.371 1.49,-4.02 2.07,-8.2 1.72,-12.5 -0.39,-4.301 -1.48,-8.012 -3.24,-11.09 -2.46,-4.34 -6.17,-8.563 -11.21,-12.781 -2.89,-2.418 -6.17,-4.879 -9.96,-7.34 -3.75,-2.418 -7.27,-4.02 -10.59,-4.77 -3.28,-0.738 -6.84,-0.781 -10.62,-0.148 -3.75,0.617 -6.96,1.789 -9.65,3.547 -4.3,2.812 -7.66,5.711 -10.12,8.64 l -29.73,35.43 18.32,15.351 30.43,-36.289 c 2.74,-3.242 5.78,-5 9.07,-5.32 3.32,-0.312 6.6,0.859 9.8,3.559 3.13,2.621 4.88,5.621 5.16,8.941 0.31,3.289 -0.94,6.609 -3.71,9.891 z m -119.26,-86.563 41.09,-65.789 52.07,32.539 -10.11,16.211 -31.72,-19.84 -30.98,49.61 z m -20.98,-64.539 -19.92,21.289 4.57,-28.789 z m 11.88,-12.89 -24.53,-11.95 2.22,-13.16 -21.99,-10.75 -7.81,82.5 23.47,11.488 60.24,-56.949 -22.58,-10.98 z m -121.25,-14.532 9.61,3.133 c 1.05,0.348 2.97,1.328 5.74,2.969 1.4,0.82 2.38,1.992 2.93,3.512 0.54,1.527 0.58,3.128 0.04,4.73 -0.78,2.379 -2.11,3.977 -4.07,4.758 -1.91,0.781 -4.96,0.469 -9.1,-0.86 l -10,-3.242 z m -8.64,-51.328 -23.94,73.789 37.97,12.352 c 7.03,2.258 12.61,3.398 16.72,3.398 4.14,0 7.85,-1.25 11.21,-3.75 3.36,-2.539 5.78,-6.179 7.3,-10.859 1.33,-4.11 1.6,-7.891 0.82,-11.41 -0.78,-3.59 -2.38,-6.758 -4.84,-9.61 -1.56,-1.8 -3.91,-3.629 -7.07,-5.468 3.01,-0.043 5.31,-0.27 6.83,-0.821 1.06,-0.312 2.66,-1.211 4.89,-2.652 2.26,-1.488 3.83,-2.617 4.72,-3.559 l 17.97,-17.808 -25.78,-8.321 -19.49,18.547 c -2.5,2.383 -4.49,3.871 -5.98,4.344 -1.99,0.578 -4.06,0.578 -6.13,-0.121 l -2.03,-0.66 9.72,-29.922 z m -70.93,61.289 23.32,5.352 10.39,-45.071 c 1.05,-4.46 1.29,-8.832 0.86,-13.128 -0.47,-4.262 -1.88,-8.243 -4.18,-11.911 -2.27,-3.671 -4.92,-6.492 -7.89,-8.441 -4.14,-2.73 -9.42,-4.84 -15.78,-6.289 -3.68,-0.82 -7.74,-1.481 -12.19,-1.992 -4.46,-0.508 -8.36,-0.309 -11.6,0.551 -3.28,0.851 -6.45,2.421 -9.54,4.679 -3.08,2.231 -5.42,4.77 -6.99,7.539 -2.58,4.492 -4.25,8.602 -5.11,12.274 l -10.4,45.078 23.33,5.39 10.62,-46.14 c 0.98,-4.141 2.85,-7.11 5.66,-8.86 2.82,-1.839 6.25,-2.269 10.32,-1.289 4.02,0.899 6.91,2.77 8.67,5.579 1.76,2.82 2.15,6.332 1.17,10.511 z m -136.679,-22.179 72.419,7.609 2.03,-19.059 -24.34,-2.539 6.1,-58.082 -23.83,-2.5 -6.09,58.039 -24.301,-2.5 z m -63.641,3.98 23.949,-1.25 -3.05,-58.398 37.351,-1.954 -0.98,-19.058 -61.328,3.242 z m -48.16,5.82 23.75,-2.89 -5.621,-45.899 c -0.547,-4.609 -1.797,-8.793 -3.758,-12.652 -1.871,-3.867 -4.57,-7.109 -7.922,-9.809 -3.437,-2.621 -6.879,-4.371 -10.359,-5.191 -4.801,-1.141 -10.461,-1.289 -16.949,-0.508 -3.75,0.469 -7.809,1.211 -12.153,2.258 -4.367,1.101 -7.929,2.582 -10.699,4.492 -2.809,1.961 -5.269,4.5 -7.379,7.66 -2.109,3.199 -3.441,6.367 -3.988,9.489 -0.863,5.082 -1.051,9.5 -0.621,13.32 l 5.66,45.898 23.75,-2.929 -5.742,-46.989 c -0.547,-4.218 0.191,-7.66 2.23,-10.308 2.071,-2.621 5.11,-4.18 9.25,-4.731 4.102,-0.472 7.461,0.309 10.082,2.348 2.617,2.031 4.18,5.191 4.688,9.492 z m -99.449,-29.531 19.41,-10.238 c -2.539,-5.5 -5.621,-9.922 -9.371,-13.242 -3.719,-3.278 -8.008,-5.469 -12.82,-6.598 -4.801,-1.09 -10.579,-1.012 -17.379,0.309 -8.282,1.64 -14.84,4.14 -19.61,7.539 -4.761,3.441 -8.48,8.562 -11.09,15.351 -2.621,6.801 -3.05,14.93 -1.211,24.379 2.418,12.621 7.692,21.641 15.7,27.109 8.011,5.473 18.16,6.993 30.429,4.614 9.571,-1.84 16.723,-5.282 21.442,-10.203 4.769,-4.957 7.699,-11.719 8.789,-20.227 l -21.68,-0.633 c -0.269,2.5 -0.699,4.383 -1.289,5.59 -0.973,1.992 -2.301,3.75 -4.019,5.082 -1.723,1.328 -3.75,2.219 -6.133,2.688 -5.309,1.023 -9.809,-0.309 -13.481,-4.059 -2.769,-2.77 -4.84,-7.578 -6.168,-14.41 -1.64,-8.442 -1.441,-14.461 0.469,-18.09 1.949,-3.629 5.27,-5.898 9.883,-6.801 4.527,-0.898 8.168,-0.269 10.976,1.801 2.774,2.07 5.153,5.43 7.153,10.039 m -90.352,71.293 23.242,-6.211 -20.082,-74.922 -23.238,6.25 z m -71.488,-5.672 6.41,14.379 9.609,-4.301 c 4.02,-1.758 6.442,-3.547 7.34,-5.468 0.942,-1.829 0.86,-3.938 -0.16,-6.211 -0.699,-1.559 -1.75,-2.727 -3.199,-3.508 -1.441,-0.781 -2.973,-0.981 -4.531,-0.629 -3.16,0.629 -5.231,1.168 -6.211,1.598 z m -40.742,-32.34 21.992,-9.84 12.769,28.79 1.961,-0.86 c 1.989,-0.898 3.547,-2.269 4.61,-4.031 0.777,-1.359 1.328,-3.789 1.558,-7.258 l 2.071,-26.84 24.73,-11.011 -1.449,25.269 c -0.039,1.211 -0.43,3.121 -1.133,5.742 -0.668,2.617 -1.289,4.34 -1.84,5.27 -0.777,1.41 -2.297,3.129 -4.527,5.16 3.59,-0.699 6.559,-0.902 8.949,-0.621 3.668,0.461 7.031,1.75 10,3.859 2.93,2.11 5.27,5.121 7.031,9.071 2.028,4.492 2.61,8.781 1.789,12.89 -0.742,4.18 -2.691,7.57 -5.742,10.352 -3.039,2.726 -8.008,5.578 -14.758,8.629 l -36.492,16.25 z m -44.571,56.09 7.813,14.07 32.34,-17.929 -16.012,-28.91 c -8.519,-0.821 -15.59,-0.661 -21.211,0.507 -5.629,1.051 -11.719,3.481 -18.238,7.114 -8.051,4.41 -13.828,9.41 -17.391,15 -3.59,5.539 -5.23,11.789 -5,18.789 0.199,6.988 2.27,13.98 6.141,21.008 4.101,7.421 9.211,13.011 15.308,16.8 6.09,3.789 12.891,5.473 20.313,5.039 5.82,-0.347 12.66,-2.699 20.391,-7.027 7.5,-4.141 12.738,-7.93 15.699,-11.332 2.929,-3.437 4.847,-7.269 5.75,-11.449 0.898,-4.219 0.699,-8.86 -0.473,-13.942 l -22.226,7.622 c 0.589,3 0.269,5.742 -0.973,8.242 -1.219,2.418 -3.399,4.527 -6.488,6.25 -4.571,2.539 -9.141,2.929 -13.672,1.289 -4.449,-1.68 -8.629,-5.981 -12.5,-12.93 -4.059,-7.312 -5.59,-13.281 -4.528,-17.973 0.969,-4.687 3.981,-8.398 8.899,-11.128 2.351,-1.29 4.769,-2.188 7.308,-2.7 2.5,-0.511 5.582,-0.699 9.18,-0.59 l 3.551,6.372 z m -71.839,49.93 -13.278,10.781 24.18,16.289 z m -6.637,-16.18 -5.121,-12.34 19.5,-15.781 26.168,78.633 -20.348,16.449 -71.449,-41.961 19.027,-15.39 11.012,7.582 z m -86.402,101.102 11.992,10.777 24.718,-27.5 -24.531,-22.109 c -8.359,2.031 -14.961,4.492 -19.918,7.34 -4.961,2.89 -9.922,7.109 -14.922,12.66 -6.168,6.871 -10,13.48 -11.558,19.879 -1.571,6.453 -1.102,12.89 1.398,19.421 2.461,6.559 6.68,12.5 12.66,17.852 6.289,5.699 12.93,9.289 19.922,10.898 6.989,1.559 13.949,0.93 20.86,-1.878 5.39,-2.231 11.058,-6.641 16.988,-13.204 5.742,-6.41 9.461,-11.679 11.141,-15.898 1.679,-4.18 2.261,-8.441 1.71,-12.66 -0.539,-4.289 -2.179,-8.59 -5,-13.039 L 386.719,407.5 c 1.519,2.621 2.109,5.352 1.761,8.09 -0.39,2.73 -1.718,5.39 -4.101,8 -3.52,3.949 -7.699,5.82 -12.5,5.711 -4.77,-0.16 -10.117,-2.852 -16.02,-8.129 -6.211,-5.66 -9.609,-10.82 -10.16,-15.582 -0.578,-4.692 1.02,-9.18 4.813,-13.399 1.789,-1.992 3.789,-3.64 5.968,-4.921 2.231,-1.29 5.079,-2.5 8.559,-3.559 l 5.43,4.879 z m -41.61,139.41 -64.289,-43.363 12.578,-18.707 35.313,23.828 -19.032,-47.891 12.622,-18.707 64.296,43.359 -12.617,18.75 -35.582,-24.031 19.25,48.211 z m -66.558,49.648 c -7.032,-3.441 -11.442,-7.191 -13.243,-11.332 -1.8,-4.097 -1.597,-8.398 0.59,-12.929 2.262,-4.61 5.5,-7.457 9.762,-8.547 4.258,-1.024 10.269,0.308 18.051,4.136 6.597,3.161 10.738,6.872 12.457,10.981 1.761,4.141 1.48,8.43 -0.699,12.961 -2.11,4.34 -5.36,7.07 -9.731,8.211 -4.34,1.168 -10.078,-0.039 -17.187,-3.481 m -10.391,21.559 c 11.367,5.59 21.801,6.723 31.211,3.48 9.457,-3.238 16.918,-10.507 22.418,-21.839 5.672,-11.598 6.922,-22.071 3.711,-31.399 -3.121,-9.301 -10.352,-16.68 -21.52,-22.152 -8.16,-3.989 -15.551,-5.86 -22.07,-5.668 -6.52,0.199 -12.539,2.187 -17.973,5.937 -5.468,3.75 -10.039,9.532 -13.789,17.274 -3.859,7.847 -5.777,14.957 -5.777,21.359 0,6.328 1.918,12.469 5.777,18.328 3.871,5.821 9.852,10.742 18.012,14.68 m 4.379,105.043 -72.891,-26.524 8.199,-22.5 29.454,10.704 8.988,-24.614 -29.5,-10.699 8.25,-22.66 72.89,26.57 -8.25,22.571 -25.5,-9.25 -8.949,24.64 25.508,9.262 z m -20.121,85 16.41,-65.82 -15,-3.75 -54.609,31.207 10.929,-43.707 -16.168,-4.02 -17.851,71.398 15.621,3.872 53.988,-30.864 -9.379,37.703 z m -53.481,38.558 26.371,12.34 -28.75,4.571 z m -15.937,-7.351 -3.781,27.07 -13.211,1.922 -3.438,24.25 80.899,-18.039 3.64,-25.902 -72.738,-39.692 -3.512,24.852 z m 55.359,101.25 1.68,-23.859 -46.141,-3.211 c -4.57,-0.309 -8.937,0.121 -13.078,1.25 -4.18,1.101 -7.891,3.132 -11.172,5.902 -3.25,2.891 -5.59,5.898 -7.078,9.18 -2.031,4.488 -3.281,10 -3.742,16.519 -0.238,3.789 -0.277,7.93 -0.078,12.391 0.23,4.488 1.008,8.32 2.379,11.359 1.332,3.129 3.398,6.02 6.129,8.68 2.66,2.73 5.511,4.609 8.519,5.742 4.844,1.828 9.141,2.848 12.934,3.117 l 46.129,3.211 1.679,-23.871 -47.269,-3.277 c -4.211,-0.282 -7.422,-1.68 -9.602,-4.141 -2.23,-2.539 -3.211,-5.859 -2.898,-10.039 0.32,-4.102 1.679,-7.273 4.179,-9.461 2.5,-2.141 5.899,-3.082 10.2,-2.769 z m 0.539,147.231 -0.898,-23.95 -27.102,0.9 -0.898,-26.13 27.109,-0.98 -0.82,-24.06 -77.539,2.74 0.898,24.06 31.281,-1.1 0.942,26.18 -31.332,1.09 0.82,23.98 z" /><path
         id="path32"
         style="fill:#00773d;fill-opacity:1;fill-rule:evenodd;stroke:none"
         d="M 942.109,29.5313 C 438.629,29.5313 27.9688,440 27.9688,943.238 c 0,503.282 410.6602,913.712 914.1402,913.712 503.441,0 914.061,-410.43 914.061,-913.712 C 1856.17,440 1445.55,29.5313 942.109,29.5313 m 0,-19.96099 c 514.411,0 933.981,419.40969 933.981,933.66769 0,514.222 -419.57,933.672 -933.981,933.672 C 427.66,1876.91 8.05078,1457.46 8.05078,943.238 8.05078,428.98 427.66,9.57031 942.109,9.57031" /><path
         id="path34"
         style="fill:#00773d;fill-opacity:1;fill-rule:evenodd;stroke:none"
         d="m 942.109,57.6992 c -488.007,0 -885.9801,397.7698 -885.9801,885.5388 0,487.782 397.9731,885.552 885.9801,885.552 487.931,0 885.901,-397.77 885.901,-885.552 0,-487.769 -397.97,-885.5388 -885.901,-885.5388 m 0,-11.5273 c 494.261,0 897.421,402.9691 897.421,897.0661 0,494.142 -403.16,897.112 -897.421,897.112 C 447.77,1840.35 44.5703,1437.38 44.5703,943.238 44.5703,449.141 447.77,46.1719 942.109,46.1719" /><path
         id="path36"
         style="fill:#00773d;fill-opacity:1;fill-rule:evenodd;stroke:none"
         d="m 951.91,294.141 c -361.25,0 -655.89,291.129 -655.89,648.129 0,356.91 294.64,648.04 655.89,648.04 361.29,0 655.9,-291.13 655.9,-648.04 0,-357 -294.61,-648.129 -655.9,-648.129 m 0,-8.442 c 365.98,0 664.46,294.922 664.46,656.571 0,361.6 -298.48,656.52 -664.46,656.52 -365.969,0 -664.449,-294.92 -664.449,-656.52 0,-361.649 298.48,-656.571 664.449,-656.571" /><path
         id="path38"
         style="fill:none;stroke:#00773d;stroke-width:10;stroke-linecap:butt;stroke-linejoin:miter;stroke-miterlimit:4;stroke-dasharray:none;stroke-opacity:1"
         d="m 951.91,294.141 c -361.25,0 -655.89,291.129 -655.89,648.129 0,356.91 294.64,648.04 655.89,648.04 361.29,0 655.9,-291.13 655.9,-648.04 0,-357 -294.61,-648.129 -655.9,-648.129 m 0,-8.442 c 365.98,0 664.46,294.922 664.46,656.571 0,361.6 -298.48,656.52 -664.46,656.52 -365.969,0 -664.449,-294.92 -664.449,-656.52 0,-361.649 298.48,-656.571 664.449,-656.571" /><path
         id="path40"
         style="fill:#00773d;fill-opacity:1;fill-rule:evenodd;stroke:none"
         d="m 1587.42,1436.05 c -1.6,0.83 -26.09,14.89 -38.67,3.4 -5.39,-3.83 -3.71,-8.47 -3.32,-11.95 0.16,-1.56 -0.74,-3.16 -1.33,-3.95 0,0 4.57,-0.07 7.07,2.04 2.74,2.3 5.16,2.5 8.21,3.2 6.36,-1.13 11.64,-2.85 14.29,-3.4 2.07,-0.43 2.97,0.43 2.97,0.43 l -6.95,4.49 6.95,1.88 7.03,-1.53 5.24,-0.23 z m 66.1,-12.69 c 2.73,-2.7 4.53,-8.16 5.46,-16.33 3.87,-1.95 8.56,-3.12 15.08,-2.62 2.85,3.13 7.46,3.52 11.17,3.6 -2.57,-5.63 -4.61,-10.9 -10.27,-20.71 -5.98,2.9 -12.81,5.63 -18.79,8.56 -1.87,-2.97 -5.04,-6.64 -7.65,-8.87 -1.33,-6.68 -5.51,-9.26 -9.77,-8.51 -1.95,1.44 -2.89,6.01 -4.88,7.46 -1.88,-2.07 -3.4,-5.32 -5.32,-7.42 18.25,-2.62 29.15,-11.45 41.65,-11.41 -2.93,4.77 -8.95,7.38 -11.84,12.19 -0.47,4.41 10.82,-1.21 21.52,-12.85 -3.43,-10.24 -8.63,-14.54 -18.71,-10 -3.4,4.6 -15.66,8.32 -26.76,12.61 3.95,-4.1 6.14,-9.72 7.19,-14.57 2.35,2.15 4.45,-4.37 6.21,-12.38 -3.9,-1.09 -9.49,-2.03 -13.4,-3.13 -2.42,2.58 -4.25,5.63 -6.6,8.17 -12.54,13.9 -24.8,27.23 -37.69,41.13 -1.8,-0.04 -2.46,-0.7 -4.22,-0.74 4.37,-2.34 7.42,-3.24 15.62,-16.25 -3.08,-3.32 -2.57,-5 -9.45,-9.34 -7.81,1.6 -15.04,1.17 -22.89,2.82 3.75,-5.16 6.25,-12.04 8.32,-20.16 0.86,-3.24 -1.09,-6.8 -1.41,-8.75 -4.53,-1.84 -5.86,-1.06 -9.29,-0.94 -1.18,0.98 -4.46,-0.58 -2.7,7.42 0.67,2.86 -2.19,5.67 -2.58,6.33 -1.95,3.05 -2.97,3.83 -4.92,6.84 4.3,-0.24 6.72,-1.13 7.38,-3.28 -1.6,3.36 -3.2,6.72 -4.8,10.04 -10.94,-4.73 -21.45,-11.22 -33.16,-13.21 -5.36,-1.76 -10.32,-1.56 -16.72,0.51 -3.01,2.66 -3.09,3.24 -3.17,7.27 -0.08,2.3 1.99,3.86 -0.74,11.99 -0.78,8.79 4.92,19.84 10.63,32.07 l 5.27,1.91 c 2.15,0.78 -13.59,-26.4 -6.8,-36.83 3.21,-11.53 6.29,-9.77 15.71,-6.64 14.25,3.51 23.94,10.66 23.94,10.66 0.55,0.82 -8.79,14.77 -17.77,18.01 -3.28,1.21 -6.02,3.36 -6.1,5.39 -0.19,4.96 5.98,14.53 7.58,14.37 l 5.59,-0.39 c 0,0 -0.86,-1.48 0.66,-7.81 3.24,-9.26 20.12,-26.68 20.16,-26.8 14.57,1.84 18.32,-0.89 21.21,2.66 -5.27,5.23 -10.39,5.51 -15.63,10.78 -1.72,8.87 1.33,13.75 4.65,17.19 10.82,2.58 21.64,-8.67 25.9,-18.09 10.7,-11.99 16.52,-18.79 27.23,-30.78 0,0 9.1,-7.07 8.55,-2.23 -0.86,17.86 -39.22,50.71 -37.69,51.14 1.72,3.59 1.09,4.68 1.87,10.58 -1.83,3.05 3.44,4.07 4.18,3.75 0.94,-5.11 1.84,-9.88 2.81,-15 6.14,-6.75 10.36,-13.43 16.49,-20.19 1.52,3.32 5.62,6.4 7.15,9.72 -3.91,-0.82 -9.69,-1.44 -10.43,4.5 0.07,1.32 0.15,2.65 0.19,4.06 -3.59,4.1 -7.22,8.24 -10.82,12.38 5.39,-2.54 11.1,-6.21 16.49,-8.71 2.77,0.51 4.53,6.72 7.3,7.27 2.46,1.6 2.34,-6.6 1.45,-10.94 1.64,-1.09 3.59,-2.15 5.23,-3.24 l 5.08,3.43 -5.94,4.38 c -1.41,6.52 -3.91,15.35 -0.94,12.42 l 11.68,-8.01 c -0.66,3.64 -1.32,7.19 -1.95,10.82 z m -10.98,17.85 c 0.47,-1.64 1.48,-8.05 -0.35,-9.02 -0.74,-8.28 -16.53,-19.49 -18.52,-17.81 -0.94,3.32 -0.74,7.34 -1.68,10.66 0,0 4.61,1.13 7.31,3.36 1.95,0.55 3.94,6.37 7.54,10.35 2.11,2.42 5.7,2.46 5.7,2.46 m -17.27,5.78 c -7.18,-5.51 -13.59,-8.9 -18.82,-9.26 -2.47,-4.41 -4.22,-12.53 -10,-14.68 -1.8,-0.67 -0.98,-3.64 -1.76,-5.08 2.85,0.04 7.77,2.93 11.05,2.65 3.28,-0.35 6.84,-1.56 9.57,-0.5 0.28,3 -1.87,6.99 -1.56,9.96 4.77,3.75 11.29,5.51 11.52,16.91" /><path
         id="path42"
         style="fill:#00773d;fill-opacity:1;fill-rule:evenodd;stroke:none"
         d="m 240.66,1464.88 c 23.051,6.37 25.078,-1.52 33.051,-8.2 1.019,-2.89 -0.859,-5.78 1.758,-8.24 l 8.32,8.98 -2.5,21.02 c 0,0 -0.348,8.71 2.852,11.87 3.238,3.13 13.16,-7.03 13.16,-7.03 0,0 6.449,-1.21 2.777,-10.31 -9.527,-11.95 -6.637,-18.17 -4.379,-21.02 4.692,6.06 12.621,4.07 15.981,3.4 l 0.98,5.2 c -1.058,4.61 4.289,3.36 5.699,4.92 6.442,-4.81 5.391,-7.03 4.731,-9.61 l -1.488,-5.94 1.757,-10.9 c 0,-10.9 1.719,-5.5 -1.757,-18.71 -5.122,0.51 -1.641,12.78 -6.911,14.96 -5.511,-0.82 -7.113,-1.29 -8.75,2.93 -0.242,1.29 2.418,1.68 1.789,2.42 -4.57,5.55 -12.261,3.01 -12.261,3.01 l -0.938,-4.06 0.547,-3.59 7.422,0.07 c 3.398,-3.94 4.141,-1.71 3.75,-5.39 l 17.621,-17.93 8.828,14.97 c 0,0 5.231,12.65 3.711,18.39 0.192,4.53 20.891,11.25 19.328,2.31 -14.258,-25.7 -15.777,-48.24 -11.476,-45.47 l 18.59,0.66 c 0,0 9.957,-3.75 5.238,-10.07 -13.211,-10.04 -12.039,-14.61 -12.039,-14.61 2.039,-2.11 29.027,-28.17 33.828,-35.71 8.48,-12.85 5.941,-12.81 2.312,-15.15 -12.703,7.34 -43.089,36.79 -43.793,36.13 -4.296,-3.63 -5.976,-8.44 -7.847,-13.87 -1.879,-5.47 3.937,-4.84 -3.871,-11.56 -7.809,-6.8 -20.43,-0.78 -16.801,6.09 3.601,6.88 9.141,39.93 8.441,39.26 -0.699,-0.7 -4.492,5.16 -7.3,6.02 -5.079,-3.32 -14.809,-31.96 -12.54,-34.26 0.579,-8.28 -4.378,-8.95 -4.378,-8.95 0,0 -14.18,0.24 -18.282,0.71 0.039,1.64 -5.742,2.42 3.36,7.46 14.73,11.68 25.66,41.64 25.66,41.64 l -7.18,7.03 c 0,0 -2.07,-3.16 -0.281,-5.94 1.801,-2.73 3.441,-4.18 3.441,-4.18 l -11.019,-8.86 c 0,0 -1.172,1.75 -4.332,4.06 -2.617,0.27 -6.09,-0.78 -6.09,-0.78 v 6.79 c 0,0 -6.02,6.68 -9.609,10.39 0.929,4.65 7.57,4.3 7.57,4.3 1.18,2.35 4.769,8.24 5.43,7.7 -2.5,5.15 -12.54,9.33 -11.598,11.52 0.937,4.57 8.75,7.66 8.75,7.66 l -2.301,11.17 -9.422,-10.35 -4.219,-12.23 c 0,0 -7.5,-3.36 -15.191,0.82 -7.699,4.22 2.813,2.77 8.32,11.41 -2.539,4.25 -12.699,15.35 -20.55,18.24 -9.258,7.07 -4.329,8.01 -5.899,9.41 m 88.68,-58.4 c 2.851,4.26 8.238,12.23 7.691,9.57 l -2.972,-14.72 c -2.11,1.52 -3.899,3.4 -4.719,5.15 m 13.711,-14.6 c 0.469,-1.37 4.219,-4.11 5.039,-5.51 0.738,1.36 1.012,4.02 0.07,5.27 -0.89,1.21 -3.039,-0.23 -5.109,0.24 m -14.379,-41.53 c 0,0 0.898,0.08 3.207,3.13 2.262,3.08 4.531,7.54 9.449,17.34 -2.457,2.19 -8.129,8.59 -7.808,6.21 l -1.758,-5.39 c -2.313,-8.44 -2.973,-14.73 -3.09,-21.29" /><path
         id="path44"
         style="fill:#00773d;fill-opacity:1;fill-rule:evenodd;stroke:none"
         d="m 1409.84,1626.76 c 2.27,-3.95 1.06,-11.41 -0.7,-17.19 -0.9,-3.01 -5,-7.62 -6.6,-9.45 -6.37,-2.23 -13.52,0.78 -20.16,1.64 8.36,8.51 22.97,19.76 27.46,25 m 18.25,44.72 c 0.23,-1.4 -13.48,-20.27 -31.49,-39.8 -3.98,-4.45 -17.5,-16.72 -28.01,-25.66 -8,1.4 -20.54,6.4 -22.73,8.04 -1.45,2.74 -4.61,5.98 -6.02,8.67 -2.07,0.51 -2.14,-0.54 -3.79,-3.08 0.63,-9.18 4.89,-17.31 9.03,-22.77 1.05,0.31 1.6,1.48 2.62,1.21 2.96,-0.79 7.96,-1.64 10.93,-3.29 -0.97,0.75 -27.58,-31.32 -51.56,-31.79 -11.09,0.86 -18.32,4.22 -22.93,7.22 -0.59,0.04 -0.23,-1.68 -0.66,-1.87 -2.31,-1.29 11.52,-10.63 20.62,-14.3 2.62,-0.27 9.88,-6.68 24.02,1.25 5.08,2.85 11.8,8.99 23.4,18.52 8.79,6.87 4.93,-6.68 4.42,-14.26 -0.94,-10.12 -4.3,-20.98 -5.24,-31.05 1.41,-7.04 4.46,-13.25 12.93,-22.86 20.12,0.86 30.39,4.85 35.35,10.28 -2.77,5.47 -12.3,2.81 -22.77,10.51 -9.49,7.57 -9.49,41.28 -17.11,47.53 -3.9,4.73 3.56,8.13 4.65,9.57 0,0 5.74,7.23 7.15,6.37 0.51,-0.31 1.8,0.74 2.3,0.63 8.68,2.85 33.09,-4.07 33.6,-3.36 5.39,2.73 9.92,12.34 10.5,19.88 -3.82,3.67 -3.16,15.23 -5.11,21.13 2.26,1.41 5.11,5.51 9.76,9.14 2.11,1.64 3.67,2.46 5.82,4.07 2.15,1.6 7.39,0.11 13.01,8.47 -3.05,5.59 -5.31,12.19 -8.51,17.58 -1.06,1.8 -3.21,2.19 -4.18,4.02" /><path
         id="path46"
         style="fill:#00773d;fill-opacity:1;fill-rule:evenodd;stroke:none"
         d="m 1095.94,1713.24 c 6.52,-6.05 10.94,-8.4 14.1,-11.09 0.9,-2.93 1.21,-5.39 -2.77,-8.09 -0.71,-0.47 -4.89,-2.26 -3.87,-3.12 3.71,0.19 4.3,0.47 6.64,-1.02 -0.08,-1.95 0.04,-7.69 -3.16,-9.14 -10.4,-4.18 -13.17,-9.33 -12.62,-9.96 6.17,3.05 12.3,5.98 17.73,9.69 2.27,12.69 3.52,18.9 5.78,31.56 3.48,4.41 8.36,10.27 11.21,7.5 1.33,-1.72 3.44,-3.28 4.38,-6.17 0.62,-4.61 0.19,-10.31 1.21,-19.14 2.07,-1.72 0.7,-5.86 1.05,-8.87 -5.46,-4.14 -10.93,-6.99 -16.36,-11.13 -1.29,-4.77 -2.74,-15.43 -2.93,-20.39 0,0 22.3,8.24 30.19,-3.44 8.95,-11.95 1.25,-18.67 1.25,-18.67 -5.31,-1.92 -12.03,-1.72 -17.46,-0.47 1.96,5.19 5,7.69 4.1,17.46 1.72,2.15 -9.57,4.69 -19.02,-2.34 -1.25,-7.97 -1.29,-18.13 -1.72,-26.53 -0.62,-11.13 0.9,-8.08 1.53,-9.37 0.19,-1.76 0.66,-4.65 -1.14,-5.04 -1.4,-0.31 -10.78,1.76 -11.17,2.34 -4.22,3.75 -4.34,4.03 -6.95,8.52 0.04,2.58 -0.9,3.87 1.4,6.37 1.29,4.88 2.23,11.32 2.93,17.26 -10.04,-5.23 -17.46,-10.35 -18.79,-13.98 -2.77,-4.38 -8.86,-6.33 -8.39,-6.68 -2.93,-0.9 -11.61,10.39 -13.87,11.36 -2.23,3.05 -1.21,6.49 -1.88,10.32 10.43,-4.3 16.49,-6.88 20,-5.59 8.99,5.94 16.8,9.49 25.04,13.2 1.06,6.57 2.66,12.46 3.75,18.99 -5.19,-2.15 -6.75,-6.6 -11.56,-8.83 -1.6,-0.74 -8.12,0.35 -9.65,1.29 -2.81,5.94 -4.18,6.29 -4.65,12.97 2.43,1.64 6.84,-0.08 8.99,-0.08 3.2,2.3 6.6,5.62 8.2,8.2 -1.95,2.93 -8.08,-4.76 -5.62,9.81 4.21,1.56 5.93,2.69 7.11,5.9 -2.78,1.28 -6.18,5.62 -6.8,9.76 -0.43,3.2 1.99,6.37 3.79,6.64 m 26.56,83.01 c 0,0 10.39,-5.27 6.6,-14.14 -9.06,-4.26 -10.62,-31.64 -11.48,-31.02 0.54,-2.85 -1.49,-11.4 -0.94,-14.29 4.92,2.69 9.88,6.21 13.71,11.32 11.33,6.76 22.77,13.44 27.66,21.26 0.74,1.36 2.97,6.32 -2.58,6.05 -4.14,-4.3 -10.78,-7.97 -14.53,-12.38 -4.38,-5.12 -4.38,-7.66 -12.42,-6.33 -3.6,3.16 -4.3,9.22 -5.28,14.76 4.88,-0.82 9.69,-1.99 14.57,-2.81 7.42,4.06 13.21,5.82 21.25,11.21 4.14,-1.13 8.32,-2.26 12.5,-3.32 0.04,-6.13 -0.51,-10.9 -1.91,-16.79 -10.16,-4.85 -19.85,-9.42 -30.04,-14.26 -6.56,-3.05 -12.93,-8.48 -17.73,-12.27 11.36,1.17 20.93,3.87 32.18,7.62 2.15,0.74 0.67,2.19 3.01,3.4 3.48,-0.16 4.49,0.15 7.97,0 6.44,-5.24 6.21,-6.84 5.98,-11.56 -2.27,-3.56 -4.11,-6.65 -6.25,-6.49 -11.14,0.94 -19.73,0.27 -23.72,-2.85 -2.14,2.69 2.11,3.52 0.59,5.04 -12.81,-0.39 -26.72,-4.18 -40.12,-7.58 -12.46,-2.38 -23.98,-4.65 -30.47,-6.41 -3.51,-1.01 -5.03,-2.73 -6.71,-2.34 -12.43,4.73 -15.32,10.94 -13.21,11.25 3.83,-0.59 9.61,-2.19 13.4,-2.85 26.52,1.87 30.51,5.9 43.17,8.94 -0.75,1.88 -1.53,3.71 -2.35,5.63 0.82,0.94 1.64,1.91 2.46,2.85 -0.11,3.52 2.58,9.92 2.5,13.4 -0.31,0.04 -1.95,-0.12 -2.89,-0.67 -1.21,-0.78 -0.23,-5.27 -1.44,-6.13 -4.53,-3.04 -9.77,-4.02 -12.35,6.84 l -1.6,6.44 c -1.17,5.32 2.31,5.63 5.7,4.22 l 2.89,-3.55 c -1.24,1.4 10.75,-3.21 10.9,2.38 3.71,26.8 12.86,39.77 10.98,35.43 m 3.59,-83.63 c -0.89,-0.63 -1.4,-1.53 -2.26,-2.15 -1.76,-8.32 -2.97,-16.68 -3.67,-25.12 1.09,-0.35 1.32,-0.55 2.38,-0.82 2.11,0.55 5,3.09 7.23,4.45 0.66,4.03 0.03,8.01 0.7,12 -0.31,4.49 -0.39,8.2 -2.58,11.32 -0.47,0 -1.33,0.32 -1.8,0.32" /><path
         id="path48"
         style="fill:#00773d;fill-opacity:1;fill-rule:evenodd;stroke:none"
         d="m 780.391,1645.94 c 0,0 -13.551,-24.61 -12.582,-32.23 5.429,-12.38 12.582,32.23 12.582,32.23 m -11.52,112.07 c 6.828,-1.45 7.219,-8.4 12.77,-8.13 3.359,3.01 8.16,5.74 9.41,7.74 -1.481,5.35 0.508,9.76 -4.602,17.3 1.25,8.09 3.75,15.7 9.172,22.19 3.359,-1.33 8.828,-4.49 14.848,-14.45 0.621,-5.94 -1.598,-8.17 -2.149,-11.33 -0.23,-1.45 0.078,-2.85 0.352,-4.53 4.648,5.15 8.949,7.54 14.058,9.49 7.5,0.19 9.852,-1.91 13.09,-6.25 -8.48,-15.12 -17.621,-28.83 -24.609,-42.58 -3.75,-1.64 -7.461,-0.31 -11.129,1.41 -2.191,-3.05 -2.273,-6.33 0,-9.3 1.328,1.48 1.52,3.24 2.809,4.73 1.8,1.25 5.308,-0.86 7.5,-2.35 -5.161,-11.44 -8.051,-22.89 -9.879,-33.4 l 9.797,11.84 c 3.05,3.16 5.429,3.95 8.523,7.11 6.438,-1.72 9.84,-5.59 12.969,-10.12 -0.242,-5.82 -6.961,-15.27 -9.34,-20.97 -1.91,-1.96 -6.801,-5.39 -10.582,-9.46 -2,3.13 -4.027,4.61 -7.578,3.05 1.558,-16.37 0.738,-25.39 4.961,-37.07 1.758,3.98 4.957,6.95 6.207,10.86 -1.879,0.82 -3.91,1.41 -5.778,2.23 0.309,2.65 -1.101,6.28 -1.882,8.75 13.211,1.99 17.461,4.84 21.531,12.18 2.93,-0.74 9.449,-4.96 11.281,-8.16 -3.742,-4.22 -8.941,-8.44 -15.152,-9.92 3.363,-4.03 14.301,-4.26 21.722,-5.12 2.11,-9.84 -13.171,-15.55 -13.832,-14.06 -1.8,4.37 -5.429,8.86 -12.808,13.75 -2.93,-3.95 -5.391,-10.08 -7.231,-17.74 0.66,-10.97 -2.621,-12.58 -6.371,-14.61 -4.961,1.06 -8,4.11 -9.14,9.11 -0.188,3.43 -2.539,8.12 -1.008,9.37 1.09,0.9 1.32,7.66 0.898,11.6 -1.449,12.85 -0.898,24.45 0.071,35.28 3.992,1.64 9.179,2.46 13.64,1.4 3.512,5.35 8.59,11.68 8.238,20.47 -8.089,-4.02 -17.769,-15.08 -25.668,-24.61 -3.039,-14.88 -7.57,-25.12 -12.218,-43.01 -2.742,-10.86 -6.532,-21.44 -9.614,-26.64 0,0 -3.668,-5.82 -7.738,-3.79 -9.84,16.41 20.672,67.58 20.672,67.58 l 7.379,34.3 c -5.512,-2.46 -8.441,0.43 -7.422,6.4 1.172,6.22 7.262,39.73 5.66,38.21 -2.461,-0.82 -3.82,-3.75 -6.32,-4.57 0.851,-9.18 0.351,-10.47 -7.391,-12.19 -0.699,1.84 0.043,2.23 -0.656,4.1 -2.891,1.13 -4.422,1.84 -8.211,1.02 -1.242,2.85 -1.832,5.47 1.609,6.76 0.04,5 -4.179,11.28 -0.859,16.13 m -16.57,-23.13 c 3.64,-12.73 9.769,-10.31 8.988,-21.6 4.301,-3.2 10.781,-8.59 11.441,-9.8 0.629,-1.18 11.961,3.2 3.911,16.6 -8.051,13.44 -14.61,16.05 -14.61,16.05 z m 63.789,25.9 c 0,0 -9.68,-4.45 -12.301,-7.26 0.27,-6.02 -0.98,-14.07 -0.391,-14.03 8.051,7.7 9.723,14.38 12.692,21.29" /><path
         id="path50"
         style="fill:#00773d;fill-opacity:1;fill-rule:evenodd;stroke:none"
         d="m 522.621,1605 c 2.969,-4.92 6.09,-9.22 9.527,-13.83 1.25,5.39 1.332,12.07 -0.628,17.19 l 5.671,3.32 c 0.661,17.85 6.911,30.08 3.36,29.57 -8.563,-11.45 -13.871,-23.32 -17.93,-36.25 m -61.601,64.73 c 0.46,4.76 26.992,1.21 30.39,-5.43 4.141,-13.05 0.621,-14.53 23.512,-47.11 4.418,9.26 17.617,27.93 24.648,36.01 l 4.731,4.92 c 2.89,0.4 6.129,-0.82 9.758,-2.22 l 2.5,-4.3 c -4.329,-11.52 -6.637,-18.79 -10.039,-38.28 l 3.992,-6.91 c -1.922,-3.29 -12.231,-22.46 -9.922,-26.41 11.441,-15.12 21.75,-28.24 26.988,-36.29 5.473,-1.76 15.121,-23.91 12.113,-30.62 0.188,-5.2 -10.351,3.08 -23.91,15.15 l -0.511,5.16 c -12.461,17.58 -25.821,30.39 -38.508,48.79 -3.321,-2.07 -3.641,-10.86 -2.782,-14.46 0.668,-2.93 -0.39,-5.78 -3.199,-8.51 -5.121,-2.62 -13.082,0.12 -16.91,0.98 -6.762,1.21 -11.449,4.53 -13.172,7.77 -1.719,3.24 11.332,-0.31 16.68,4.3 -0.348,0.62 3.402,3.94 8.562,24.21 -31.211,44.3 -45.32,66.84 -44.921,73.25" /><path
         id="path52"
         style="fill:#00773d;fill-opacity:1;fill-rule:evenodd;stroke:none"
         d="m 652.07,1322.03 c 1.328,19.49 55.2,32.5 77.418,-18.71 0,0 4.614,-83.55 4.032,-127.5 0.929,-5.74 13.82,-99.88 195.5,-93.79 0,0 -3.551,-3.05 -29.098,-6.8 -47.422,-7.03 -140.863,-44.84 -190.192,-132.179 0,0 -28.398,-49.422 -50.511,-103.992 0.551,-0.039 -61.059,-205.739 -167.93,-306.36 0,0 3.16,3.672 9.57,18.473 0,0 105.942,217.269 133.36,425.308 0,0 28.441,137.15 19.301,227.43 3.082,19.41 -2.782,98.63 -1.45,118.12" /><path
         id="path54"
         style="fill:#00773d;fill-opacity:1;fill-rule:evenodd;stroke:none"
         d="m 720.98,1528.87 c 1.09,4.06 111.829,-7.31 138.399,-112.7 0,0 14.762,-87.22 8.43,-120.47 14.812,-62.46 163.091,-62.38 177.931,0 -6.33,33.25 8.44,120.47 8.44,120.47 26.56,105.39 137.27,116.76 138.4,112.7 1.13,-4.07 -115.78,-69.18 -89.3,-218.52 17.77,-76.52 5.78,-108.08 5.78,-108.08 -30.82,-85.04 -131.208,-82.78 -152.259,-81.29 -21.102,-1.49 -121.531,-3.75 -152.313,81.29 0,0 -11.949,31.56 5.782,108.08 26.492,149.34 -90.43,214.45 -89.29,218.52" /><path
         id="path56"
         style="fill:#00773d;fill-opacity:1;fill-rule:evenodd;stroke:none"
         d="m 1250.51,1322.03 c -1.33,19.49 -55.2,32.5 -77.42,-18.71 0,0 -4.61,-83.55 -4.07,-127.5 -0.9,-5.74 -13.79,-99.88 -195.469,-93.79 0,0 3.558,-3.05 29.109,-6.8 47.42,-7.03 140.86,-44.84 190.19,-132.179 0,0 28.36,-49.422 50.51,-103.992 -0.55,-0.039 61.05,-205.739 167.93,-306.36 0,0 -3.2,3.672 -9.61,18.473 0,0 -105.94,217.269 -133.32,425.308 0,0 -28.44,137.15 -19.3,227.43 -3.08,19.41 2.78,98.63 1.45,118.12" /><path
         id="path58"
         style="fill:#00773d;fill-opacity:1;fill-rule:evenodd;stroke:none"
         d="m 946.602,915.309 v -0.11 c -20.352,-1.527 -46.332,-13.359 -71.25,-53.09 0,0 -41.993,-53.519 -59.141,-153.32 -6.481,-37.738 93.949,-55.82 130.391,-58.519 v -0.391 c 0.699,0.043 1.41,0.043 2.148,0.043 0.59,0.039 1.211,0.078 1.91,0.117 0.668,-0.039 1.289,-0.078 1.879,-0.117 0.742,0 1.481,0 2.191,-0.043 v 0.391 c 36.399,2.699 136.83,20.781 130.35,58.519 -17.15,99.801 -59.14,153.32 -59.14,153.32 -24.92,39.731 -50.94,51.563 -71.21,53.09 v 0.11 c -1.332,0.082 -2.699,0.121 -4.07,0.121 -1.398,0 -2.769,-0.039 -4.058,-0.121 m -350.743,-412.5 c -30,-1.868 -52.929,3.992 -73.828,10.351 -52.621,16.102 33.707,9.852 67.699,25.75 47.649,22.262 125.149,65.93 162.149,195 31.601,89.141 25.422,277.42 194.723,297.11 175.428,-19.69 170.738,-207.969 202.418,-297.11 36.96,-129.07 109.85,-172.738 157.46,-195 34.07,-15.898 120.36,-9.648 67.7,-25.75 -20.9,-6.359 -43.83,-12.219 -73.83,-10.351 -130.86,11.14 -133.63,67.461 -221.01,93.242 -38.4,11.328 -83.828,14.179 -132.738,11.179 -48.942,3 -94.411,0.149 -132.77,-11.179 -87.383,-25.781 -87.031,-82.102 -217.973,-93.242" /><path
         id="path60"
         style="fill:#00773d;fill-opacity:1;fill-rule:evenodd;stroke:none"
         d="m 1102.46,413.398 c 0,-3.91 1.41,-7.027 4.22,-9.449 2.85,-2.429 6.09,-3.64 9.73,-3.64 3.51,0 6.68,1.25 9.45,3.711 2.81,2.46 4.18,5.589 4.18,9.421 0,3.829 -1.41,6.95 -4.22,9.411 -2.77,2.457 -6.05,3.707 -9.77,3.707 -3.63,0 -6.83,-1.207 -9.53,-3.59 -2.73,-2.348 -4.06,-5.59 -4.06,-9.571 m 1.56,37.461 c 0,-3.007 1.14,-5.429 3.44,-7.308 2.27,-1.789 5.31,-2.77 9.1,-2.77 3.36,0 6.14,0.899 8.32,2.77 2.15,1.84 3.24,4.179 3.24,7.07 0,3.008 -1.13,5.469 -3.39,7.309 -2.27,1.91 -5.16,2.851 -8.68,2.851 -3.55,0 -6.44,-0.941 -8.67,-2.769 -2.26,-1.84 -3.36,-4.223 -3.36,-7.153 m -13.2,-17.109 c -4.61,1.988 -7.97,4.262 -10.08,6.801 -2.89,3.398 -4.33,7.301 -4.33,11.75 0,7.23 4.14,13.211 12.5,17.859 6.48,3.551 15.04,5.352 25.74,5.352 14.1,0 24.53,-2.231 31.29,-6.68 6.76,-4.422 10.15,-10 10.15,-16.723 0,-3.91 -1.36,-7.578 -4.06,-10.98 -2.03,-2.539 -5.19,-5.039 -9.53,-7.379 5.74,-2.27 10,-5.23 12.81,-8.98 2.81,-3.68 4.22,-7.821 4.22,-12.348 0,-4.332 -1.17,-8.442 -3.63,-12.223 -2.42,-3.75 -5.43,-6.679 -8.95,-8.719 -3.51,-2.07 -7.93,-3.589 -13.16,-4.57 -5.27,-0.969 -10.9,-1.441 -16.88,-1.441 -11.17,0 -19.72,1.09 -25.66,3.242 -5.9,2.187 -10.39,5.391 -13.44,9.609 -3.08,4.262 -4.65,8.981 -4.65,14.219 0,5.121 1.45,9.449 4.34,12.973 2.89,3.547 7.34,6.328 13.32,8.238 m -70.62,11.559 c 0,4.73 -1.41,8.402 -4.34,11.101 -2.85,2.649 -6.37,4.02 -10.51,4.02 -3.9,0 -7.112,-1.25 -9.69,-3.629 -2.57,-2.422 -3.859,-6.063 -3.859,-10.903 0,-4.847 1.32,-8.597 3.98,-11.168 2.699,-2.582 6.019,-3.832 9.999,-3.832 4.14,0 7.58,1.25 10.31,3.75 2.74,2.5 4.11,6.051 4.11,10.661 m -54.071,-38.829 29.18,3.008 c 0.781,-3.359 2.07,-5.738 3.91,-7.109 1.831,-1.359 4.061,-2.07 6.721,-2.07 4.68,0 8.36,1.961 11.01,5.863 1.92,2.93 3.36,9.027 4.34,18.398 -3.52,-3.011 -7.11,-5.16 -10.82,-6.558 -3.71,-1.371 -8.01,-2.114 -12.849,-2.114 -9.461,0 -17.422,2.774 -23.949,8.321 -6.524,5.551 -9.762,12.543 -9.762,21.051 0,5.781 1.641,11.062 4.961,15.781 3.32,4.769 7.848,8.359 13.707,10.789 5.82,2.422 13.121,3.672 21.912,3.672 10.55,0 19.06,-1.492 25.47,-4.492 6.37,-2.969 11.49,-7.739 15.31,-14.258 3.79,-6.532 5.71,-15.121 5.71,-25.821 0,-15.671 -3.99,-27.191 -12.03,-34.531 -8.01,-7.308 -19.15,-10.941 -33.4,-10.941 -8.359,0 -15.038,0.781 -19.851,2.34 -4.879,1.64 -8.937,3.992 -12.148,7.113 -3.199,3.047 -5.699,6.918 -7.422,11.558 m -80.348,6.918 c 0,-3.91 1.41,-7.027 4.219,-9.449 2.891,-2.429 6.09,-3.64 9.77,-3.64 3.468,0 6.64,1.25 9.41,3.711 2.808,2.46 4.218,5.589 4.218,9.421 0,3.829 -1.449,6.95 -4.257,9.411 -2.77,2.457 -6.02,3.707 -9.762,3.707 -3.641,0 -6.84,-1.207 -9.539,-3.59 -2.692,-2.348 -4.059,-5.59 -4.059,-9.571 m 1.559,37.461 c 0,-3.007 1.14,-5.429 3.441,-7.308 2.27,-1.789 5.309,-2.77 9.141,-2.77 3.316,0 6.098,0.899 8.277,2.77 2.192,1.84 3.25,4.179 3.25,7.07 0,3.008 -1.14,5.469 -3.398,7.309 -2.27,1.91 -5.121,2.851 -8.672,2.851 -3.52,0 -6.449,-0.941 -8.68,-2.769 -2.258,-1.84 -3.359,-4.223 -3.359,-7.153 M 874.141,433.75 c -4.61,1.988 -7.93,4.262 -10.082,6.801 -2.848,3.398 -4.329,7.301 -4.329,11.75 0,7.23 4.18,13.211 12.5,17.859 6.481,3.551 15.071,5.352 25.739,5.352 14.101,0 24.531,-2.231 31.332,-6.68 6.75,-4.422 10.109,-10 10.109,-16.723 0,-3.91 -1.32,-7.578 -4.058,-10.98 -1.993,-2.539 -5.153,-5.039 -9.532,-7.379 5.739,-2.27 10,-5.23 12.809,-8.98 2.851,-3.68 4.223,-7.821 4.223,-12.348 0,-4.332 -1.172,-8.442 -3.633,-12.223 -2.418,-3.75 -5.391,-6.679 -8.91,-8.719 -3.547,-2.07 -7.969,-3.589 -13.2,-4.57 -5.269,-0.969 -10.859,-1.441 -16.879,-1.441 -11.171,0 -19.718,1.09 -25.66,3.242 -5.898,2.187 -10.39,5.391 -13.441,9.609 -3.078,4.262 -4.609,8.981 -4.609,14.219 0,5.121 1.41,9.449 4.3,12.973 2.891,3.547 7.34,6.328 13.321,8.238 m -59.45,41.762 V 386.91 H 785 v 58.051 c -4.801,-3.012 -9.449,-5.391 -13.949,-7.262 -4.492,-1.879 -10.153,-3.679 -16.91,-5.359 v 19.808 c 10.039,2.692 17.769,5.864 23.32,9.571 5.508,3.711 9.84,8.32 12.969,13.793 z" /></g></g></svg>