<?xml version="1.0" encoding="UTF-8" standalone="no"?>
<!-- Generator: Adobe Illustrator 12.0.1, SVG Export Plug-In . SVG Version: 6.00 Build 51448)  -->
<svg
   xmlns:dc="http://purl.org/dc/elements/1.1/"
   xmlns:cc="http://web.resource.org/cc/"
   xmlns:rdf="http://www.w3.org/1999/02/22-rdf-syntax-ns#"
   xmlns:svg="http://www.w3.org/2000/svg"
   xmlns="http://www.w3.org/2000/svg"
   xmlns:sodipodi="http://sodipodi.sourceforge.net/DTD/sodipodi-0.dtd"
   xmlns:inkscape="http://www.inkscape.org/namespaces/inkscape"
   version="1.1"
   id="Layer_1"
   width="845.022"
   height="343.284"
   viewBox="0 0 845.022 343.284"
   style="overflow:visible;enable-background:new 0 0 845.022 343.284;"
   xml:space="preserve"
   sodipodi:version="0.32"
   inkscape:version="0.45.1"
   sodipodi:docname="Coenzym A beschriftet.svg"
   inkscape:output_extension="org.inkscape.output.svg.inkscape"
   sodipodi:docbase="C:\"><metadata
   id="metadata310"><rdf:RDF><cc:Work
       rdf:about=""><dc:format>image/svg+xml</dc:format><dc:type
         rdf:resource="http://purl.org/dc/dcmitype/StillImage" /></cc:Work></rdf:RDF></metadata><defs
   id="defs308">
	

	

	

	
	

	

	

	

	

	
	

	

	

	

	
	

	

	

	

	
	

	

	
	

	

	

	

	

	

	
	

	

	

	

	

	

	
	

	

	
	

	
	

	

	
	

	
	

	
</defs><sodipodi:namedview
   inkscape:window-height="579"
   inkscape:window-width="801"
   inkscape:pageshadow="2"
   inkscape:pageopacity="0.0"
   guidetolerance="10.0"
   gridtolerance="10.0"
   objecttolerance="10.0"
   borderopacity="1.0"
   bordercolor="#666666"
   pagecolor="#ffffff"
   id="base"
   inkscape:zoom="0.84849865"
   inkscape:cx="422.51099"
   inkscape:cy="171.642"
   inkscape:window-x="66"
   inkscape:window-y="66"
   inkscape:current-layer="Layer_1" />
<path
   d="M 173.70792,114.25728 L 173.70792,112.40478 L 206.38792,131.26323 L 206.38792,133.11478 L 173.70792,114.25728 z "
   id="polygon3" />
<path
   d="M 206.38792,133.11478 L 206.38792,131.26323 L 239.02042,112.40478 L 239.02042,114.25728 L 206.38792,133.11478 z "
   id="polygon5" />
<path
   d="M 265.21952,141.18978 L 265.21952,124.86118 L 267.44252,124.86118 L 275.99633,137.67573 L 275.99633,124.86118 L 278.07492,124.86118 L 278.07492,141.18978 L 275.85192,141.18978 L 267.29812,128.37523 L 267.29812,141.18978 L 265.21952,141.18978 L 265.21952,141.18978 z "
   id="path9" />
<path
   d="M 265.32307,160.14228 L 265.32307,143.81463 L 267.49003,143.81463 L 267.49003,150.52448 L 275.93647,150.52448 L 275.93647,143.81463 L 278.10342,143.81463 L 278.10342,160.14323 L 275.93647,160.14323 L 275.93647,152.45393 L 267.49003,152.45393 L 267.49003,160.14323 L 265.32307,160.14323 L 265.32307,160.14228 z "
   id="path13" />
<path
   d="M 239.02042,114.25728 L 239.02042,112.40478 L 262.29542,125.84823 L 261.48792,127.22573 L 239.02042,114.25728 z "
   id="polygon15" />
<path
   d="M 281.81792,127.27323 L 281.01042,125.89478 L 304.33292,112.40478 L 304.33292,114.25728 L 281.81792,127.27323 z "
   id="polygon17" />
<path
   d="M 304.33292,114.25728 L 304.33292,112.40478 L 336.96542,131.26323 L 336.96542,132.21323 L 336.11042,132.63978 L 304.33292,114.25728 z "
   id="polygon19" />
<path
   d="M 337.82042,132.63978 L 336.96542,132.21323 L 336.96542,131.26323 L 368.98042,112.78573 L 369.64542,113.35478 L 369.64542,114.25728 L 337.82042,132.63978 z "
   id="polygon21" />
<path
   d="M 369.64542,114.25728 L 369.64542,113.35478 L 370.78542,113.06978 L 402.27792,131.26323 L 402.27792,133.11478 L 369.64542,114.25728 z "
   id="polygon23" />
<path
   d="M 427.12612,114.38553 C 427.12612,111.67518 427.85382,109.55478 429.30922,108.02243 C 430.76462,106.48913 432.64372,105.72248 434.94557,105.72248 C 436.45322,105.72248 437.81172,106.08253 439.02202,106.80263 C 440.23232,107.52368 441.15477,108.52688 441.78937,109.81508 C 442.42492,111.10233 442.74222,112.56438 442.74222,114.19648 C 442.74222,115.85233 442.40782,117.33338 441.73902,118.63963 C 441.07117,119.94588 440.12497,120.93578 438.89947,121.60743 C 437.67397,122.27908 436.35252,122.61538 434.93417,122.61538 C 433.39707,122.61538 432.02337,122.24393 430.81307,121.50198 C 429.60277,120.76003 428.68602,119.74543 428.06187,118.46198 C 427.43772,117.17758 427.12612,115.81908 427.12612,114.38553 z M 429.35292,114.41308 C 429.35292,116.37958 429.88207,117.92903 430.94037,119.06143 C 431.99867,120.19383 433.32677,120.75908 434.92277,120.75908 C 436.54917,120.75908 437.88772,120.18718 438.93937,119.04433 C 439.98912,117.90148 440.51542,116.27983 440.51542,114.17938 C 440.51542,112.85128 440.29122,111.69133 439.84092,110.70048 C 439.39157,109.70963 438.73512,108.94108 437.86967,108.39578 C 437.00422,107.85048 436.03332,107.57783 434.95697,107.57783 C 433.42747,107.57783 432.11077,108.10318 431.00782,109.15293 C 429.90487,110.20268 429.35292,111.95638 429.35292,114.41308 z "
   id="path27" />
<path
   d="M 402.27792,133.11478 L 402.27792,131.26323 L 425.26792,118.01073 L 426.07542,119.38823 L 402.27792,133.11478 z "
   id="polygon29" />
<path
   d="M 393.67472,83.926625 L 395.84167,84.471925 C 395.38947,86.248425 394.57532,87.603125 393.40112,88.535075 C 392.22597,89.467025 390.78862,89.934425 389.09097,89.934425 C 387.33347,89.934425 385.90467,89.576275 384.80362,88.859025 C 383.70257,88.142725 382.86467,87.103425 382.28992,85.744925 C 381.71517,84.385475 381.42827,82.925325 381.42827,81.366375 C 381.42827,79.665875 381.75222,78.181025 382.40107,76.914675 C 383.04992,75.648325 383.97237,74.685025 385.17032,74.028575 C 386.36732,73.372125 387.68402,73.042475 389.12232,73.042475 C 390.75347,73.042475 392.12432,73.458575 393.23582,74.290775 C 394.34827,75.123925 395.12252,76.293375 395.55952,77.802925 L 393.43722,78.303575 C 393.05912,77.116075 392.51097,76.251575 391.79277,75.710075 C 391.07362,75.168575 390.16922,74.897825 389.08052,74.897825 C 387.82842,74.897825 386.78152,75.198025 385.93982,75.799375 C 385.09907,76.400725 384.50817,77.207275 384.16712,78.220925 C 383.82607,79.234575 383.65602,80.278625 383.65602,81.354975 C 383.65602,82.742925 383.85742,83.954175 384.26117,84.989675 C 384.66492,86.025175 385.29192,86.798475 386.14407,87.310525 C 386.99622,87.822575 387.91772,88.079075 388.91047,88.079075 C 390.11792,88.079075 391.13917,87.730425 391.97612,87.032175 C 392.81307,86.333925 393.37832,85.299375 393.67472,83.926625 z "
   id="path33" /><path
   d="M 398.59192,89.652275 L 398.59192,73.323675 L 400.75887,73.323675 L 400.75887,80.033525 L 409.20532,80.033525 L 409.20532,73.323675 L 411.37227,73.323675 L 411.37227,89.652275 L 409.20532,89.652275 L 409.20532,81.962975 L 400.75887,81.962975 L 400.75887,89.652275 L 398.59192,89.652275 z "
   id="path35" />
<path
   d="M 414.34292,90.691575 L 415.84202,90.483525 C 416.01587,91.334725 416.30942,91.948425 416.72362,92.324625 C 417.13877,92.699875 417.64702,92.887975 418.25027,92.887975 C 418.96562,92.887975 419.56697,92.642875 420.05432,92.154575 C 420.54167,91.664375 420.78487,91.058275 420.78487,90.334375 C 420.78487,89.644675 420.55877,89.076575 420.10467,88.628175 C 419.65152,88.179775 419.07582,87.956525 418.37662,87.956525 C 418.09067,87.956525 417.73537,88.012575 417.31072,88.123725 L 417.47887,86.802275 C 417.57957,86.813675 417.66032,86.819375 417.72207,86.819375 C 418.36237,86.819375 418.93902,86.653125 419.45202,86.319675 C 419.96502,85.986225 420.22152,85.472275 420.22152,84.777825 C 420.22152,84.227775 420.03437,83.771775 419.66007,83.411725 C 419.28577,83.050725 418.80317,82.870225 418.21132,82.870225 C 417.62517,82.870225 417.13592,83.054525 416.74547,83.423125 C 416.35502,83.791725 416.10327,84.344625 415.99212,85.081825 L 414.49302,84.814875 C 414.67637,83.805975 415.09532,83.024125 415.74702,82.470275 C 416.39872,81.915475 417.21002,81.638075 418.17997,81.638075 C 418.84877,81.638075 419.46532,81.780575 420.02772,82.067475 C 420.59012,82.353425 421.02047,82.743875 421.31972,83.237875 C 421.61707,83.732825 421.76717,84.257225 421.76717,84.812975 C 421.76717,85.341175 421.62562,85.821875 421.34157,86.255075 C 421.05752,86.688275 420.63762,87.032175 420.08092,87.288675 C 420.80482,87.455875 421.36722,87.802625 421.77097,88.327975 C 422.17377,88.855225 422.37612,89.512625 422.37612,90.303025 C 422.37612,91.372725 421.98567,92.278075 421.20477,93.020975 C 420.42387,93.763875 419.43682,94.136275 418.24362,94.136275 C 417.16727,94.136275 416.27332,93.816125 415.56272,93.177725 C 414.84832,92.536475 414.44362,91.709025 414.34292,90.691575 z "
   id="path39" />
<path
   d="M 379.76292,88.464775 L 386.08042,92.123225 L 370.78542,113.06978 L 369.64542,113.35478 L 368.98042,112.78573 L 379.76292,88.464775 z "
   id="polygon41" />
<path
   d="M 317.50277,89.652275 L 317.50277,73.323675 L 319.66972,73.323675 L 319.66972,80.033525 L 328.11618,80.033525 L 328.11618,73.323675 L 330.28312,73.323675 L 330.28312,89.652275 L 328.11618,89.652275 L 328.11618,81.962975 L 319.66972,81.962975 L 319.66972,89.652275 L 317.50277,89.652275 z "
   id="path45" />
<path
   d="M 332.19072,90.691575 L 333.68982,90.483525 C 333.86367,91.334725 334.15722,91.948425 334.57142,92.324625 C 334.98657,92.699875 335.49482,92.887975 336.09807,92.887975 C 336.81342,92.887975 337.41477,92.642875 337.90212,92.154575 C 338.38947,91.664375 338.63267,91.058275 338.63267,90.334375 C 338.63267,89.644675 338.40657,89.076575 337.95247,88.628175 C 337.49932,88.179775 336.92362,87.956525 336.22442,87.956525 C 335.93847,87.956525 335.58317,88.012575 335.15852,88.123725 L 335.32667,86.802275 C 335.42737,86.813675 335.50812,86.819375 335.56987,86.819375 C 336.21017,86.819375 336.78682,86.653125 337.29982,86.319675 C 337.81282,85.986225 338.06932,85.472275 338.06932,84.777825 C 338.06932,84.227775 337.88217,83.771775 337.50787,83.411725 C 337.13357,83.050725 336.65097,82.870225 336.05912,82.870225 C 335.47297,82.870225 334.98372,83.054525 334.59327,83.423125 C 334.20282,83.791725 333.95107,84.344625 333.83992,85.081825 L 332.34083,84.814875 C 332.52417,83.805975 332.94312,83.024125 333.59482,82.470275 C 334.24652,81.915475 335.05782,81.638075 336.02777,81.638075 C 336.69657,81.638075 337.31312,81.780575 337.87552,82.067475 C 338.43792,82.353425 338.86827,82.743875 339.16752,83.237875 C 339.46487,83.732825 339.61497,84.257225 339.61497,84.812975 C 339.61497,85.341175 339.47342,85.821875 339.18937,86.255075 C 338.90532,86.688275 338.48542,87.032175 337.92872,87.288675 C 338.65262,87.455875 339.21502,87.802625 339.61877,88.327975 C 340.02157,88.855225 340.22392,89.512625 340.22392,90.303025 C 340.22392,91.372725 339.83347,92.278075 339.05257,93.020975 C 338.27167,93.763875 337.28462,94.136275 336.09142,94.136275 C 335.01507,94.136275 334.12112,93.816125 333.41052,93.177725 C 332.69612,92.536475 332.29047,91.709025 332.19072,90.691575 z "
   id="path49" />
<path
   d="M 353.63887,83.926625 L 355.80582,84.471925 C 355.35362,86.248425 354.53947,87.603125 353.36527,88.535075 C 352.19012,89.467025 350.75277,89.934425 349.05512,89.934425 C 347.29762,89.934425 345.86882,89.576275 344.76777,88.859025 C 343.66672,88.142725 342.82882,87.103425 342.25407,85.744925 C 341.67932,84.385475 341.39242,82.925325 341.39242,81.366375 C 341.39242,79.665875 341.71637,78.181025 342.36522,76.914675 C 343.01407,75.648325 343.93652,74.685025 345.13447,74.028575 C 346.33147,73.372125 347.64817,73.042475 349.08647,73.042475 C 350.71763,73.042475 352.08847,73.458575 353.19997,74.290775 C 354.31242,75.123925 355.08667,76.293375 355.52367,77.802925 L 353.40137,78.303575 C 353.02327,77.116075 352.47512,76.251575 351.75692,75.710075 C 351.03777,75.168575 350.13337,74.897825 349.04467,74.897825 C 347.79257,74.897825 346.74567,75.198025 345.90397,75.799375 C 345.06322,76.400725 344.47232,77.207275 344.13127,78.220925 C 343.79022,79.234575 343.62017,80.278625 343.62017,81.354975 C 343.62017,82.742925 343.82157,83.954175 344.22532,84.989675 C 344.62907,86.025175 345.25607,86.798475 346.10822,87.310525 C 346.96037,87.822575 347.88187,88.079075 348.87462,88.079075 C 350.08207,88.079075 351.10332,87.730425 351.94027,87.032175 C 352.77722,86.333925 353.34247,85.299375 353.63887,83.926625 z "
   id="path53" />
<path
   d="M 353.35292,92.454775 L 359.67042,88.798225 L 360.28792,90.317275 L 354.35042,93.738225 L 353.35292,92.454775 z "
   id="polygon55" />
<path
   d="M 355.87042,95.732275 L 361.28542,92.644775 L 361.90292,94.117275 L 356.86792,97.063225 L 355.87042,95.732275 z "
   id="polygon57" />
<path
   d="M 358.38792,99.057275 L 362.85292,96.444775 L 363.51792,97.964775 L 359.38542,100.33978 L 358.38792,99.057275 z "
   id="polygon59" />
<path
   d="M 360.90542,102.33573 L 364.46792,100.29228 L 365.08542,101.76478 L 361.90292,103.66478 L 360.90542,102.33573 z "
   id="polygon61" />
<path
   d="M 363.42292,105.66073 L 366.08292,104.09228 L 366.70042,105.61323 L 364.37292,106.94228 L 363.42292,105.66073 z "
   id="polygon63" />
<path
   d="M 365.94042,108.93823 L 367.69792,107.93978 L 368.31542,109.46073 L 366.89042,110.26728 L 365.94042,108.93823 z "
   id="polygon65" />
<path
   d="M 329.18112,170.91053 C 329.18112,168.20018 329.90882,166.07978 331.36422,164.54743 C 332.81962,163.01413 334.69872,162.24748 337.00057,162.24748 C 338.50822,162.24748 339.86672,162.60753 341.07702,163.32763 C 342.28732,164.04868 343.20977,165.05188 343.84532,166.34008 C 344.48087,167.62828 344.79722,169.08938 344.79722,170.72148 C 344.79722,172.37733 344.46282,173.85838 343.79497,175.16463 C 343.12712,176.47088 342.17997,177.46078 340.95447,178.13243 C 339.72897,178.80408 338.40752,179.14038 336.98917,179.14038 C 335.45207,179.14038 334.07837,178.76893 332.86807,178.02698 C 331.65777,177.28503 330.74102,176.27043 330.11687,174.98698 C 329.49272,173.70353 329.18112,172.34408 329.18112,170.91053 z M 331.40792,170.93808 C 331.40792,172.90458 331.93707,174.45403 332.99537,175.58643 C 334.05368,176.71883 335.38177,177.28408 336.97777,177.28408 C 338.60417,177.28408 339.94272,176.71218 340.99437,175.56933 C 342.04507,174.42648 342.57042,172.80483 342.57042,170.70438 C 342.57042,169.37628 342.34622,168.21633 341.89687,167.22548 C 341.44752,166.23463 340.79012,165.46608 339.92467,164.92078 C 339.05922,164.37548 338.08832,164.10283 337.01197,164.10283 C 335.48247,164.10283 334.16578,164.62818 333.06282,165.67793 C 331.95987,166.72768 331.40792,168.48138 331.40792,170.93808 z "
   id="path69" /><path
   d="M 347.65767,178.85728 L 347.65767,162.52963 L 349.82557,162.52963 L 349.82557,169.23948 L 358.27202,169.23948 L 358.27202,162.52963 L 360.43897,162.52963 L 360.43897,178.85823 L 358.27202,178.85823 L 358.27202,171.16893 L 349.82557,171.16893 L 349.82557,178.85823 L 347.65767,178.85823 L 347.65767,178.85728 z "
   id="path71" />
<path
   d="M 340.62292,160.09478 L 333.35542,160.09478 L 336.11042,132.63978 L 336.96542,132.21323 L 337.82042,132.63978 L 340.62292,160.09478 z "
   id="polygon73" />
<path
   d="M 296.50113,76.670525 C 296.50113,73.960175 297.22882,71.839775 298.68422,70.307425 C 300.13962,68.774125 302.01872,68.007475 304.32057,68.007475 C 305.82822,68.007475 307.18672,68.367525 308.39702,69.087625 C 309.60733,69.808675 310.52977,70.811875 311.16532,72.100075 C 311.80087,73.388275 312.11722,74.849375 312.11722,76.481475 C 312.11722,78.137325 311.78282,79.618375 311.11497,80.924625 C 310.44712,82.230875 309.49997,83.220775 308.27447,83.892425 C 307.04897,84.564075 305.72752,84.900375 304.30917,84.900375 C 302.77207,84.900375 301.39837,84.528925 300.18807,83.786975 C 298.97777,83.045025 298.06102,82.030425 297.43687,80.746975 C 296.81272,79.463525 296.50113,78.104075 296.50113,76.670525 z M 298.72792,76.698075 C 298.72792,78.664575 299.25707,80.214025 300.31537,81.346425 C 301.37367,82.478825 302.70178,83.044075 304.29778,83.044075 C 305.92417,83.044075 307.26272,82.472175 308.31437,81.329325 C 309.36507,80.186475 309.89042,78.564825 309.89042,76.464375 C 309.89042,75.136275 309.66622,73.976325 309.21687,72.985475 C 308.76752,71.994625 308.11012,71.226075 307.24467,70.680775 C 306.37922,70.135475 305.40832,69.862825 304.33198,69.862825 C 302.80247,69.862825 301.48577,70.388175 300.38282,71.437925 C 299.27987,72.487675 298.72792,74.241375 298.72792,76.698075 z "
   id="path77" />
<path
   d="M 300.67542,87.039773 L 302.29042,87.039773 L 302.29042,114.96978 L 300.67542,114.96978 L 300.67542,87.039773 z "
   id="rect79" />
<path
   d="M 306.32793,87.039773 L 307.94293,87.039773 L 307.94293,114.96978 L 306.32793,114.96978 L 306.32793,87.039773 z "
   id="rect81" />
<path
   d="M 466.36492,122.33228 L 466.36492,106.00463 L 472.51997,106.00463 C 473.60297,106.00463 474.42947,106.05688 475.00042,106.16043 C 475.80222,106.29438 476.47387,106.54898 477.01537,106.92423 C 477.55687,107.29948 477.99292,107.82483 478.32352,108.50028 C 478.65412,109.17668 478.81847,109.91863 478.81847,110.72898 C 478.81847,112.11788 478.37672,113.29303 477.49417,114.25538 C 476.61162,115.21773 475.01847,115.69843 472.71187,115.69843 L 468.53187,115.69843 L 468.53187,122.33323 L 466.36492,122.33323 L 466.36492,122.33228 z M 468.53187,113.76803 L 472.74607,113.76803 C 474.13877,113.76803 475.12867,113.50868 475.71292,112.98903 C 476.29907,112.46938 476.59262,111.73883 476.59262,110.79548 C 476.59262,110.11243 476.41972,109.52818 476.07487,109.04178 C 475.73002,108.55538 475.27687,108.23428 474.71257,108.07848 C 474.34872,107.98158 473.67897,107.93408 472.70142,107.93408 L 468.53187,107.93408 L 468.53187,113.76803 L 468.53187,113.76803 z "
   id="path85" />
<path
   d="M 444.93197,112.54823 L 464.21792,112.54823 L 464.21792,114.16323 L 444.93197,114.16323 L 444.93197,112.54823 z "
   id="rect87" />
<path
   d="M 464.84112,76.670525 C 464.84112,73.960175 465.56882,71.839775 467.02422,70.307425 C 468.47962,68.774125 470.35872,68.007475 472.66057,68.007475 C 474.16822,68.007475 475.52767,68.367525 476.73702,69.087625 C 477.94637,69.808675 478.86977,70.811875 479.50532,72.100075 C 480.13992,73.387325 480.45722,74.849375 480.45722,76.481475 C 480.45722,78.137325 480.12282,79.618375 479.45497,80.924625 C 478.78617,82.230875 477.83902,83.220775 476.61447,83.892425 C 475.38897,84.564075 474.06657,84.900375 472.64917,84.900375 C 471.11207,84.900375 469.73837,84.528925 468.52807,83.786975 C 467.31777,83.045025 466.40102,82.030425 465.77687,80.746975 C 465.15272,79.461625 464.84112,78.104075 464.84112,76.670525 z M 467.06792,76.698075 C 467.06792,78.664575 467.59707,80.214025 468.65537,81.346425 C 469.71367,82.478825 471.04177,83.044075 472.63777,83.044075 C 474.26417,83.044075 475.60272,82.472175 476.65437,81.329325 C 477.70602,80.186475 478.23042,78.564825 478.23042,76.464375 C 478.23042,75.136275 478.00622,73.976325 477.55687,72.985475 C 477.10657,71.994625 476.44917,71.226075 475.58467,70.680775 C 474.72017,70.135475 473.74832,69.862825 472.67197,69.862825 C 471.14247,69.862825 469.82577,70.388175 468.72282,71.437925 C 467.61987,72.487675 467.06792,74.241375 467.06792,76.698075 z "
   id="path91" />
<path
   d="M 469.01543,87.039773 L 470.63043,87.039773 L 470.63043,103.80728 L 469.01543,103.80728 L 469.01543,87.039773 z "
   id="rect93" />
<path
   d="M 474.66792,87.039773 L 476.28197,87.039773 L 476.28197,103.80728 L 474.66792,103.80728 L 474.66792,87.039773 z "
   id="rect95" />
<path
   d="M 464.84112,152.05303 C 464.84112,149.34268 465.56882,147.22228 467.02422,145.68993 C 468.47962,144.15663 470.35872,143.38998 472.66057,143.38998 C 474.16822,143.38998 475.52767,143.75003 476.73702,144.47013 C 477.94637,145.19118 478.86977,146.19438 479.50532,147.48258 C 480.13992,148.76983 480.45722,150.23188 480.45722,151.86398 C 480.45722,153.51983 480.12282,155.00088 479.45497,156.30713 C 478.78617,157.61338 477.83902,158.60328 476.61447,159.27493 C 475.38897,159.94658 474.06657,160.28288 472.64917,160.28288 C 471.11207,160.28288 469.73837,159.91143 468.52807,159.16948 C 467.31777,158.42753 466.40102,157.41293 465.77687,156.12948 C 465.15272,154.84508 464.84112,153.48658 464.84112,152.05303 z M 467.06792,152.08153 C 467.06792,154.04803 467.59707,155.59748 468.65537,156.72988 C 469.71367,157.86228 471.04177,158.42753 472.63777,158.42753 C 474.26417,158.42753 475.60272,157.85563 476.65437,156.71278 C 477.70602,155.56993 478.23042,153.94828 478.23042,151.84783 C 478.23042,150.51973 478.00622,149.35978 477.55687,148.36893 C 477.10657,147.37808 476.44917,146.60953 475.58467,146.06423 C 474.72017,145.51893 473.74832,145.24628 472.67197,145.24628 C 471.14247,145.24628 469.82577,145.77163 468.72282,146.82138 C 467.61987,147.87113 467.06792,149.62483 467.06792,152.08153 z "
   id="path99" /><path
   d="M 483.31862,160.00073 L 483.31862,143.67213 L 485.48557,143.67213 L 485.48557,150.38198 L 493.93202,150.38198 L 493.93202,143.67213 L 496.09897,143.67213 L 496.09897,160.00073 L 493.93202,160.00073 L 493.93202,152.31143 L 485.48557,152.31143 L 485.48557,160.00073 L 483.31862,160.00073 L 483.31862,160.00073 z "
   id="path101" />
<path
   d="M 471.81792,124.46978 L 473.43197,124.46978 L 473.43197,141.23728 L 471.81792,141.23728 L 471.81792,124.46978 z "
   id="rect103" />
<path
   d="M 481.08042,112.54823 L 500.31792,112.54823 L 500.31792,114.16323 L 481.08042,114.16323 L 481.08042,112.54823 z "
   id="rect105" />
<path
   d="M 165.92362,76.670525 C 165.92362,73.960175 166.65132,71.839775 168.10672,70.307425 C 169.56212,68.774125 171.44122,68.007475 173.74307,68.007475 C 175.25072,68.007475 176.60922,68.367525 177.81952,69.087625 C 179.02982,69.808675 179.95227,70.811875 180.58782,72.100075 C 181.22337,73.388275 181.53972,74.849375 181.53972,76.481475 C 181.53972,78.137325 181.20532,79.618375 180.53747,80.924625 C 179.86962,82.230875 178.92247,83.220775 177.69697,83.892425 C 176.47147,84.564075 175.15002,84.900375 173.73168,84.900375 C 172.19457,84.900375 170.82088,84.528925 169.61057,83.786975 C 168.40027,83.045025 167.48352,82.030425 166.85937,80.746975 C 166.23522,79.463525 165.92362,78.104075 165.92362,76.670525 z M 168.15042,76.698075 C 168.15042,78.664575 168.67957,80.214025 169.73787,81.346425 C 170.79617,82.478825 172.12427,83.044075 173.72027,83.044075 C 175.34667,83.044075 176.68523,82.472175 177.73688,81.329325 C 178.78757,80.186475 179.31292,78.564825 179.31292,76.464375 C 179.31292,75.136275 179.08872,73.976325 178.63937,72.985475 C 178.19002,71.994625 177.53263,71.226075 176.66717,70.680775 C 175.80172,70.135475 174.83082,69.862825 173.75447,69.862825 C 172.22497,69.862825 170.90827,70.388175 169.80532,71.437925 C 168.70237,72.487675 168.15042,74.241375 168.15042,76.698075 z "
   id="path109" />
<path
   d="M 170.09792,87.039773 L 171.71292,87.039773 L 171.71292,114.96978 L 170.09792,114.96978 L 170.09792,87.039773 z "
   id="rect111" />
<path
   d="M 175.75042,87.039773 L 177.36542,87.039773 L 177.36542,114.96978 L 175.75042,114.96978 L 175.75042,87.039773 z "
   id="rect113" />
<path
   d="M 134.64202,141.14228 L 134.64202,124.81463 L 136.86503,124.81463 L 145.41883,137.62918 L 145.41883,124.81463 L 147.49742,124.81463 L 147.49742,141.14323 L 145.27442,141.14323 L 136.72062,128.32868 L 136.72062,141.14323 L 134.64202,141.14323 L 134.64202,141.14228 z "
   id="path117" />
<path
   d="M 134.74652,160.09478 L 134.74652,143.76713 L 136.91347,143.76713 L 136.91347,150.47698 L 145.35992,150.47698 L 145.35992,143.76713 L 147.52687,143.76713 L 147.52687,160.09573 L 145.35992,160.09573 L 145.35992,152.40643 L 136.91347,152.40643 L 136.91347,160.09573 L 134.74652,160.09573 L 134.74652,160.09478 z "
   id="path121" />
<path
   d="M 151.24042,127.27323 L 150.43292,125.84823 L 173.70792,112.40478 L 173.70792,114.25728 L 151.24042,127.27323 z "
   id="polygon123" />
<path
   d="M 108.49042,114.25728 L 108.49042,112.40478 L 131.71792,125.84823 L 130.91042,127.22573 L 108.49042,114.25728 z "
   id="polygon125" />
<path
   d="M 75.857925,133.11478 L 75.857925,131.26323 L 108.49042,112.40478 L 108.49042,114.25728 L 75.857925,133.11478 z "
   id="polygon127" />
<path
   d="M 21.125575,122.33228 L 21.125575,106.00463 L 23.292525,106.00463 L 23.292525,112.71448 L 31.738975,112.71448 L 31.738975,106.00463 L 33.905925,106.00463 L 33.905925,122.33323 L 31.738975,122.33323 L 31.738975,114.64393 L 23.292525,114.64393 L 23.292525,122.33323 L 21.125575,122.33323 L 21.125575,122.33228 z "
   id="path131" /><path
   d="M 36.789175,117.09303 L 38.823125,116.91443 C 38.920025,117.73238 39.144225,118.40308 39.496675,118.92748 C 39.849125,119.45188 40.397275,119.87653 41.139225,120.19953 C 41.881175,120.52348 42.717175,120.68498 43.645325,120.68498 C 44.469925,120.68498 45.197625,120.56243 45.828425,120.31638 C 46.459225,120.07128 46.929475,119.73498 47.237275,119.30653 C 47.545075,118.87903 47.698975,118.41258 47.698975,117.90623 C 47.698975,117.39323 47.548875,116.94483 47.247725,116.56198 C 46.946575,116.18008 46.454475,115.85803 45.771425,115.59678 C 45.333475,115.42578 44.363525,115.15978 42.862525,114.79878 C 41.361525,114.43873 40.310825,114.09863 39.710425,113.77943 C 38.931425,113.36998 38.350975,112.86363 37.969075,112.25753 C 37.587175,111.65143 37.396225,110.97408 37.396225,110.22263 C 37.396225,109.39898 37.629925,108.62758 38.098275,107.91033 C 38.565675,107.19308 39.249675,106.64873 40.148375,106.27728 C 41.047075,105.90488 42.046475,105.71963 43.145625,105.71963 C 44.355925,105.71963 45.423725,105.91533 46.349025,106.30483 C 47.274325,106.69528 47.985875,107.27003 48.482725,108.02718 C 48.980525,108.78528 49.248425,109.64408 49.285475,110.60263 L 47.206875,110.76603 C 47.095725,109.72768 46.717625,108.94488 46.076375,108.41383 C 45.433225,107.88373 44.484175,107.61868 43.229225,107.61868 C 41.922025,107.61868 40.968225,107.85903 40.370675,108.33878 C 39.772175,108.81853 39.473875,109.39613 39.473875,110.07253 C 39.473875,110.66058 39.685725,111.14413 40.109425,111.52223 C 40.525525,111.90128 41.611375,112.29078 43.368875,112.68883 C 45.126375,113.08688 46.331925,113.43458 46.986475,113.73193 C 47.938375,114.16988 48.641375,114.72468 49.095475,115.39728 C 49.549575,116.06988 49.776625,116.84318 49.776625,117.72003 C 49.776625,118.58928 49.527725,119.40723 49.030875,120.17673 C 48.534025,120.94623 47.819625,121.54283 46.888625,121.97033 C 45.957625,122.39783 44.908825,122.61158 43.744125,122.61158 C 42.266875,122.61158 41.029975,122.39593 40.032475,121.96558 C 39.034025,121.53523 38.251225,120.88733 37.684075,120.02283 C 37.117875,119.16118 36.819575,118.18363 36.789175,117.09303 z "
   id="path133" />
<path
   d="M 51.965425,119.29228 L 52.772925,117.91478 L 75.857925,131.26323 L 75.857925,133.11478 L 51.965425,119.29228 z "
   id="polygon135" />
<path
   d="M 689.08197,209.87573 L 691.83792,212.29823 L 691.03042,214.76728 L 643.62542,214.76728 L 642.81792,212.29823 L 645.57292,209.87573 L 689.08197,209.87573 z "
   id="polygon137" />
<path
   d="M 617.50042,170.06978 L 618.30697,169.87978 L 619.49447,170.21323 L 645.57292,209.87573 L 642.81792,212.29823 L 642.01042,218.80478 L 617.50042,170.06978 z "
   id="polygon139" />
<path
   d="M 715.16042,170.21323 L 716.34792,169.87978 L 717.15542,170.06978 L 692.64447,218.80478 L 691.83792,212.29823 L 689.08197,209.87573 L 715.16042,170.21323 z "
   id="polygon141" />
<path
   d="M 657.11542,149.40728 L 657.82792,150.87978 L 619.49447,170.21323 L 618.30697,169.87978 L 619.11542,168.55073 L 657.11542,149.40728 z "
   id="polygon143" />
<path
   d="M 659.16362,146.40053 C 659.16362,143.69018 659.89132,141.56978 661.34672,140.03743 C 662.80212,138.50413 664.68122,137.73748 666.98307,137.73748 C 668.49072,137.73748 669.84922,138.09753 671.05952,138.81763 C 672.26982,139.53868 673.19227,140.54188 673.82687,141.83008 C 674.46242,143.11733 674.77972,144.57938 674.77972,146.21148 C 674.77972,147.86733 674.44532,149.34838 673.77652,150.65463 C 673.10867,151.96088 672.16247,152.95078 670.93697,153.62243 C 669.71147,154.29408 668.39002,154.63038 666.97167,154.63038 C 665.43457,154.63038 664.06087,154.25893 662.85057,153.51698 C 661.64027,152.77503 660.72352,151.76043 660.09937,150.47698 C 659.47522,149.19258 659.16362,147.83408 659.16362,146.40053 z M 661.39042,146.42903 C 661.39042,148.39553 661.91957,149.94498 662.97787,151.07738 C 664.03617,152.20978 665.36427,152.77503 666.96027,152.77503 C 668.58667,152.77503 669.92522,152.20313 670.97687,151.06028 C 672.02662,149.91743 672.55292,148.29578 672.55292,146.19533 C 672.55292,144.86723 672.32872,143.70728 671.87842,142.71643 C 671.42907,141.72558 670.77262,140.95703 669.90717,140.41173 C 669.04172,139.86643 668.07082,139.59378 666.99447,139.59378 C 665.46497,139.59378 664.14827,140.11913 663.04532,141.16888 C 661.94237,142.21863 661.39042,143.97233 661.39042,146.42903 z "
   id="path147" />
<path
   d="M 676.16292,150.83228 L 676.87542,149.40728 L 715.54042,168.55073 L 716.34792,169.87978 L 715.16042,170.21323 L 676.16292,150.83228 z "
   id="polygon149" />
<path
   d="M 617.50042,132.63978 L 619.11542,131.68978 L 619.11542,168.55073 L 618.30697,169.87978 L 617.50042,170.06978 L 617.50042,132.63978 z "
   id="polygon151" />
<path
   d="M 684.00612,251.04303 C 684.00612,248.33268 684.73382,246.21228 686.19017,244.67993 C 687.64462,243.14663 689.52467,242.37998 691.82557,242.37998 C 693.33417,242.37998 694.69267,242.74003 695.90202,243.46013 C 697.11232,244.18118 698.03572,245.18438 698.67032,246.47258 C 699.30492,247.76078 699.62222,249.22188 699.62222,250.85398 C 699.62222,252.50983 699.28782,253.99088 698.61997,255.29713 C 697.95212,256.60338 697.00497,257.59328 695.77947,258.26493 C 694.55492,258.93658 693.23252,259.27288 691.81417,259.27288 C 690.27802,259.27288 688.90337,258.90143 687.69307,258.15948 C 686.48277,257.41753 685.56697,256.40292 684.94187,255.11947 C 684.31677,253.83603 684.00612,252.47563 684.00612,251.04303 z M 686.23197,251.07058 C 686.23197,253.03708 686.76112,254.58653 687.82037,255.71893 C 688.87772,256.85037 690.20677,257.41658 691.80182,257.41658 C 693.42917,257.41658 694.76677,256.84468 695.81937,255.70183 C 696.86912,254.55898 697.39447,252.93733 697.39447,250.83688 C 697.39447,249.50878 697.17027,248.34883 696.72092,247.35798 C 696.27157,246.36713 695.61417,245.59858 694.74872,245.05328 C 693.88422,244.50798 692.91332,244.23533 691.83602,244.23533 C 690.30747,244.23533 688.98982,244.76068 687.88782,245.81043 C 686.78297,246.86018 686.23197,248.61388 686.23197,251.07058 z "
   id="path155" /><path
   d="M 702.48267,258.98978 L 702.48267,242.66118 L 704.64962,242.66118 L 704.64962,249.37103 L 713.09607,249.37103 L 713.09607,242.66118 L 715.26302,242.66118 L 715.26302,258.98978 L 713.09607,258.98978 L 713.09607,251.30048 L 704.64962,251.30048 L 704.64962,258.98978 L 702.48267,258.98978 z "
   id="path157" />
<path
   d="M 692.64447,240.22728 L 691.03042,240.22728 L 691.03042,214.76728 L 691.83792,212.29823 L 692.64447,218.80478 L 692.64447,240.22728 z "
   id="polygon159" />
<path
   d="M 715.54042,132.92573 L 717.15542,132.92573 L 717.15542,170.06978 L 716.34792,169.87978 L 715.54042,168.55073 L 715.54042,132.92573 z "
   id="polygon161" />
<path
   d="M 635.03457,251.04303 C 635.03457,248.33268 635.76227,246.21228 637.21673,244.67993 C 638.67307,243.14663 640.55122,242.37998 642.85402,242.37998 C 644.36072,242.37998 645.72017,242.74003 646.93047,243.46013 C 648.13982,244.18118 649.06227,245.18438 649.69782,246.47258 C 650.33337,247.76078 650.65067,249.22188 650.65067,250.85398 C 650.65067,252.50983 650.31627,253.99088 649.64747,255.29713 C 648.97867,256.60338 648.03247,257.59328 646.80792,258.26493 C 645.58147,258.93658 644.26002,259.27288 642.84262,259.27288 C 641.30458,259.27288 639.93182,258.90143 638.72152,258.15948 C 637.51027,257.41753 636.59352,256.40292 635.97032,255.11947 C 635.34712,253.83603 635.03457,252.47563 635.03457,251.04303 z M 637.26042,251.07058 C 637.26042,253.03708 637.78957,254.58653 638.84692,255.71893 C 639.90617,256.85037 641.23332,257.41658 642.83027,257.41658 C 644.45572,257.41658 645.79522,256.84468 646.84592,255.70183 C 647.89662,254.55898 648.42292,252.93733 648.42292,250.83688 C 648.42292,249.50878 648.19872,248.34883 647.74842,247.35798 C 647.29812,246.36713 646.64167,245.59858 645.77717,245.05328 C 644.91172,244.50798 643.93987,244.23533 642.86447,244.23533 C 641.33402,244.23533 640.01827,244.76068 638.91437,245.81043 C 637.81237,246.86018 637.26042,248.61388 637.26042,251.07058 z "
   id="path165" />
<path
   d="M 643.62542,240.22728 L 642.01042,240.22728 L 642.01042,218.80478 L 642.81792,212.29823 L 643.62542,214.76728 L 643.62542,240.22728 z "
   id="polygon167" />
<path
   d="M 709.86702,69.750725 L 709.86702,53.422125 L 712.09002,53.422125 L 720.64382,66.236675 L 720.64382,53.422125 L 722.72242,53.422125 L 722.72242,69.750725 L 720.49942,69.750725 L 711.94562,56.936175 L 711.94562,69.750725 L 709.86702,69.750725 z "
   id="path171" />
<path
   d="M 709.86702,130.78823 L 709.86702,114.45963 L 712.09002,114.45963 L 720.64382,127.27418 L 720.64382,114.45963 L 722.72242,114.45963 L 722.72242,130.78823 L 720.49942,130.78823 L 711.94562,117.97368 L 711.94562,130.78823 L 709.86702,130.78823 z "
   id="path175" />
<path
   d="M 751.40292,73.027275 L 752.21042,72.457275 L 753.01792,72.885725 L 753.01792,109.69823 L 752.21042,110.12573 L 751.40292,109.55478 L 751.40292,73.027275 z "
   id="polygon177" />
<path
   d="M 757.05544,75.688225 L 758.67044,75.688225 L 758.67044,106.89573 L 757.05544,106.89573 L 757.05544,75.688225 z "
   id="rect179" />
<path
   d="M 725.51542,64.619775 L 726.03792,63.100725 L 752.11542,71.554775 L 752.21042,72.457275 L 751.40292,73.027275 L 725.51542,64.619775 z "
   id="polygon181" />
<path
   d="M 695.16292,91.267275 L 693.16792,91.267275 L 707.89292,71.032275 L 709.22292,71.982275 L 695.16292,91.267275 z "
   id="polygon183" />
<path
   d="M 701.81292,91.742275 L 700.53042,90.792275 L 712.50042,74.357275 L 713.78292,75.307275 L 701.81292,91.742275 z "
   id="polygon185" />
<path
   d="M 709.98292,111.69228 L 708.70042,112.64228 L 693.16792,91.267275 L 695.16292,91.267275 L 709.98292,111.69228 z "
   id="polygon187" />
<path
   d="M 751.40292,109.55478 L 752.21042,110.12573 L 752.11542,111.02728 L 726.03792,119.48228 L 725.51542,117.96323 L 751.40292,109.55478 z "
   id="polygon189" />
<path
   d="M 778.41047,137.96073 L 778.41047,121.63213 L 780.63347,121.63213 L 789.18727,134.44668 L 789.18727,121.63213 L 791.26587,121.63213 L 791.26587,137.96073 L 789.04287,137.96073 L 780.48907,125.14618 L 780.48907,137.96073 L 778.41047,137.96073 z "
   id="path193" />
<path
   d="M 811.04202,81.435725 L 811.04202,65.107125 L 813.26502,65.107125 L 821.81882,77.921675 L 821.81882,65.107125 L 823.89742,65.107125 L 823.89742,81.435725 L 821.67442,81.435725 L 813.12062,68.621175 L 813.12062,81.435725 L 811.04202,81.435725 z "
   id="path197" />
<path
   d="M 775.48542,122.66478 L 774.67792,124.04228 L 752.11542,111.02728 L 752.21042,110.12573 L 753.01792,109.69823 L 775.48542,122.66478 z "
   id="polygon199" />
<path
   d="M 816.66792,109.69823 L 818.28292,110.60073 L 794.96042,124.08978 L 794.15292,122.66478 L 816.66792,109.69823 z "
   id="polygon201" />
<path
   d="M 811.44292,106.18228 L 812.25042,107.56073 L 792.15792,119.19823 L 791.35042,117.77323 L 811.44292,106.18228 z "
   id="polygon203" />
<path
   d="M 816.66792,83.573225 L 818.28292,83.573225 L 818.28292,110.60073 L 816.66792,109.69823 L 816.66792,83.573225 z "
   id="polygon205" />
<path
   d="M 784.84292,54.502275 L 784.84292,53.600725 L 785.65042,53.125725 L 808.07042,66.092275 L 807.26292,67.469775 L 784.84292,54.502275 z "
   id="polygon207" />
<path
   d="M 784.46292,60.819775 L 785.27042,59.442275 L 805.26792,70.985725 L 804.46042,72.363225 L 784.46292,60.819775 z "
   id="polygon209" />
<path
   d="M 753.01792,72.885725 L 752.21042,72.457275 L 752.11542,71.554775 L 784.03542,53.125725 L 784.84292,53.600725 L 784.84292,54.502275 L 753.01792,72.885725 z "
   id="polygon211" />
<path
   d="M 778.41047,24.910725 L 778.41047,8.582125 L 780.63347,8.582125 L 789.18727,21.396675 L 789.18727,8.582125 L 791.26587,8.582125 L 791.26587,24.910725 L 789.04287,24.910725 L 780.48907,12.096175 L 780.48907,24.910725 L 778.41047,24.910725 z "
   id="path215" /><path
   d="M 794.97942,24.910725 L 794.97942,8.582125 L 797.14637,8.582125 L 797.14637,15.291975 L 805.59282,15.291975 L 805.59282,8.582125 L 807.75977,8.582125 L 807.75977,24.910725 L 805.59282,24.910725 L 805.59282,17.221425 L 797.14637,17.221425 L 797.14637,24.910725 L 794.97942,24.910725 z "
   id="path217" />
<path
   d="M 818.00172,27.745525 L 818.00172,29.185725 L 809.89727,29.185725 C 809.88587,28.823775 809.94477,28.476075 810.07397,28.141675 C 810.28202,27.590675 810.61262,27.048225 811.07052,26.514325 C 811.52652,25.980425 812.18202,25.363875 813.03607,24.664675 C 814.36227,23.569325 815.26192,22.703875 815.73407,22.067375 C 816.20717,21.430875 816.44372,20.827625 816.44372,20.259525 C 816.44372,19.664825 816.22997,19.164175 815.80152,18.754725 C 815.37497,18.346225 814.81732,18.141975 814.12952,18.141975 C 813.40182,18.141975 812.82137,18.359525 812.38532,18.795575 C 811.94927,19.231625 811.72887,19.834875 811.72317,20.605325 L 810.17942,20.441925 C 810.28487,19.286725 810.68387,18.407025 811.37642,17.802825 C 812.06897,17.196725 812.99712,16.894625 814.16372,16.894625 C 815.33982,16.894625 816.27272,17.220475 816.95767,17.872175 C 817.64452,18.523875 817.98747,19.331375 817.98747,20.294675 C 817.98747,20.784875 817.88772,21.266525 817.68632,21.739625 C 817.48492,22.212725 817.15147,22.711475 816.68597,23.234925 C 816.21952,23.758375 815.44717,24.476575 814.36797,25.389525 C 813.46452,26.147625 812.88407,26.660625 812.62662,26.931375 C 812.36917,27.200225 812.15542,27.471925 811.98727,27.744575 L 818.00172,27.744575 L 818.00172,27.745525 z "
   id="path221" />
<path
   d="M 784.03542,27.048225 L 785.65042,27.048225 L 785.65042,53.125725 L 784.84292,53.600725 L 784.03542,53.125725 L 784.03542,27.048225 z "
   id="polygon223" />
<path
   d="M 577.89112,114.38553 C 577.89112,111.67518 578.61882,109.55478 580.07422,108.02243 C 581.52962,106.48913 583.40872,105.72248 585.71057,105.72248 C 587.21822,105.72248 588.57767,106.08253 589.78702,106.80263 C 590.99637,107.52368 591.91977,108.52688 592.55532,109.81508 C 593.18992,111.10233 593.50722,112.56438 593.50722,114.19648 C 593.50722,115.85233 593.17282,117.33338 592.50497,118.63963 C 591.83617,119.94588 590.88902,120.93578 589.66447,121.60743 C 588.43897,122.27908 587.11657,122.61538 585.69917,122.61538 C 584.16207,122.61538 582.78837,122.24393 581.57808,121.50198 C 580.36777,120.76003 579.45102,119.74543 578.82687,118.46198 C 578.20272,117.17758 577.89112,115.81908 577.89112,114.38553 z M 580.11792,114.41308 C 580.11792,116.37958 580.64707,117.92903 581.70537,119.06143 C 582.76367,120.19383 584.09177,120.75908 585.68777,120.75908 C 587.31417,120.75908 588.65272,120.18718 589.70437,119.04433 C 590.75602,117.90148 591.28042,116.27983 591.28042,114.17938 C 591.28042,112.85128 591.05622,111.69133 590.60687,110.70048 C 590.15657,109.70963 589.49917,108.94108 588.63467,108.39578 C 587.77017,107.85048 586.79832,107.57783 585.72197,107.57783 C 584.19247,107.57783 582.87577,108.10318 581.77282,109.15293 C 580.66987,110.20268 580.11792,111.95638 580.11792,114.41308 z "
   id="path227" />
<path
   d="M 594.60542,119.43573 L 595.41292,118.01073 L 619.11542,131.68978 L 617.50042,132.63978 L 594.60542,119.43573 z "
   id="polygon229" />
<path
   d="M 541.74647,122.33228 L 541.74647,106.00463 L 547.90152,106.00463 C 548.98547,106.00463 549.81197,106.05688 550.38293,106.16043 C 551.18472,106.29438 551.85542,106.54898 552.39692,106.92423 C 552.93842,107.29948 553.37447,107.82483 553.70507,108.50028 C 554.03567,109.17668 554.20002,109.91863 554.20002,110.72898 C 554.20002,112.11788 553.75827,113.29303 552.87667,114.25538 C 551.99317,115.21773 550.40002,115.69843 548.09437,115.69843 L 543.91342,115.69843 L 543.91342,122.33323 L 541.74647,122.33323 L 541.74647,122.33228 z M 543.91437,113.76803 L 548.12857,113.76803 C 549.52222,113.76803 550.51117,113.50868 551.09637,112.98903 C 551.68157,112.46938 551.97512,111.73883 551.97512,110.79548 C 551.97512,110.11243 551.80222,109.52818 551.45832,109.04178 C 551.11347,108.55538 550.65937,108.23428 550.09602,108.07848 C 549.73217,107.98158 549.06147,107.93408 548.08392,107.93408 L 543.91437,107.93408 L 543.91437,113.76803 z "
   id="path233" />
<path
   d="M 556.41543,112.54823 L 575.74888,112.54823 L 575.74888,114.16323 L 556.41543,114.16323 L 556.41543,112.54823 z "
   id="rect235" />
<path
   d="M 502.50957,114.38553 C 502.50957,111.67518 503.23727,109.55478 504.69172,108.02243 C 506.14807,106.48913 508.02622,105.72248 510.32902,105.72248 C 511.83572,105.72248 513.19517,106.08253 514.40547,106.80263 C 515.61482,107.52368 516.53727,108.52688 517.17282,109.81508 C 517.80837,111.10328 518.12567,112.56438 518.12567,114.19648 C 518.12567,115.85233 517.79127,117.33338 517.12247,118.63963 C 516.45367,119.94588 515.50748,120.93578 514.28292,121.60743 C 513.05647,122.27908 511.73502,122.61538 510.31762,122.61538 C 508.77957,122.61538 507.40682,122.24393 506.19652,121.50198 C 504.98527,120.76003 504.06852,119.74543 503.44532,118.46198 C 502.82212,117.17853 502.50957,115.81908 502.50957,114.38553 z M 504.73542,114.41308 C 504.73542,116.37958 505.26457,117.92903 506.32192,119.06143 C 507.38117,120.19288 508.70832,120.75908 510.30527,120.75908 C 511.93072,120.75908 513.27022,120.18718 514.32092,119.04433 C 515.37162,117.90148 515.89792,116.27983 515.89792,114.17938 C 515.89792,112.85128 515.67372,111.69133 515.22342,110.70048 C 514.77312,109.70963 514.11667,108.94108 513.25217,108.39578 C 512.38672,107.85048 511.41487,107.57783 510.33947,107.57783 C 508.80902,107.57783 507.49327,108.10318 506.38937,109.15293 C 505.28737,110.20363 504.73542,111.95638 504.73542,114.41308 z "
   id="path239" />
<path
   d="M 520.31543,112.54823 L 539.60043,112.54823 L 539.60043,114.16323 L 520.31543,114.16323 L 520.31543,112.54823 z "
   id="rect241" />
<path
   d="M 540.17612,76.718025 C 540.17612,74.007675 540.90382,71.887275 542.35922,70.354925 C 543.81462,68.821625 545.69372,68.054975 547.99557,68.054975 C 549.50322,68.054975 550.86172,68.415025 552.07202,69.135125 C 553.28232,69.856175 554.20477,70.859375 554.83937,72.147575 C 555.47492,73.434825 555.79222,74.896875 555.79222,76.528975 C 555.79222,78.184825 555.45782,79.665875 554.78902,80.972125 C 554.12117,82.278375 553.17497,83.268275 551.94947,83.939925 C 550.72397,84.611575 549.40252,84.947875 547.98417,84.947875 C 546.44707,84.947875 545.07337,84.576425 543.86307,83.834475 C 542.65277,83.092525 541.73602,82.077925 541.11187,80.794475 C 540.48772,79.509125 540.17612,78.150625 540.17612,76.718025 z M 542.40292,76.745575 C 542.40292,78.712075 542.93207,80.261525 543.99037,81.393925 C 545.04868,82.526325 546.37677,83.091575 547.97277,83.091575 C 549.59917,83.091575 550.93772,82.519675 551.98937,81.376825 C 553.03912,80.233975 553.56542,78.612325 553.56542,76.511875 C 553.56542,75.183775 553.34122,74.023825 552.89092,73.032975 C 552.44157,72.042125 551.78512,71.273575 550.91967,70.728275 C 550.05422,70.182975 549.08332,69.910325 548.00697,69.910325 C 546.47747,69.910325 545.16077,70.435675 544.05782,71.485425 C 542.95487,72.535175 542.40292,74.288875 542.40292,76.745575 z "
   id="path245" />
<path
   d="M 544.35042,87.088225 L 545.96542,87.088225 L 545.96542,103.80823 L 544.35042,103.80823 L 544.35042,87.088225 z "
   id="rect247" />
<path
   d="M 550.00293,87.088225 L 551.61793,87.088225 L 551.61793,103.80823 L 550.00293,103.80823 L 550.00293,87.088225 z "
   id="rect249" />
<path
   d="M 524.57808,160.00073 L 524.57808,143.67213 L 526.74502,143.67213 L 526.74502,150.38198 L 535.19147,150.38198 L 535.19147,143.67213 L 537.35842,143.67213 L 537.35842,160.00073 L 535.19147,160.00073 L 535.19147,152.31143 L 526.74502,152.31143 L 526.74502,160.00073 L 524.57808,160.00073 L 524.57808,160.00073 z "
   id="path253" /><path
   d="M 540.30152,152.05303 C 540.30152,149.34268 541.02923,147.22228 542.48557,145.68993 C 543.94002,144.15663 545.82007,143.38998 548.12097,143.38998 C 549.62957,143.38998 550.98807,143.75003 552.19742,144.47013 C 553.40772,145.19118 554.33112,146.19438 554.96572,147.48258 C 555.60032,148.77078 555.91762,150.23188 555.91762,151.86398 C 555.91762,153.51983 555.58322,155.00088 554.91537,156.30713 C 554.24753,157.61338 553.30037,158.60328 552.07487,159.27493 C 550.85032,159.94658 549.52792,160.28288 548.10957,160.28288 C 546.57342,160.28288 545.19877,159.91143 543.98847,159.16948 C 542.77817,158.42753 541.86237,157.41293 541.23727,156.12948 C 540.61217,154.84603 540.30152,153.48658 540.30152,152.05303 z M 542.52833,152.08153 C 542.52833,154.04803 543.05747,155.59748 544.11672,156.72988 C 545.17407,157.86133 546.50312,158.42753 548.09817,158.42753 C 549.72552,158.42753 551.06312,157.85563 552.11572,156.71278 C 553.16547,155.56993 553.69082,153.94828 553.69082,151.84783 C 553.69082,150.51973 553.46662,149.35978 553.01727,148.36893 C 552.56792,147.37808 551.91052,146.60953 551.04507,146.06423 C 550.18057,145.51893 549.20967,145.24628 548.13237,145.24628 C 546.60382,145.24628 545.28617,145.77163 544.18417,146.82138 C 543.07932,147.87113 542.52833,149.62483 542.52833,152.08153 z "
   id="path255" />
<path
   d="M 547.20043,124.46978 L 548.81542,124.46978 L 548.81542,141.18978 L 547.20043,141.18978 L 547.20043,124.46978 z "
   id="rect257" />
<path
   d="M 636.55647,296.70477 L 636.55647,280.37713 L 642.71152,280.37713 C 643.79452,280.37713 644.62197,280.42937 645.19292,280.53293 C 645.99472,280.66688 646.66637,280.92148 647.20787,281.29672 C 647.74842,281.67198 648.18447,282.19733 648.51507,282.87277 C 648.84567,283.54918 649.01002,284.29113 649.01002,285.10147 C 649.01002,286.49038 648.56922,287.66553 647.68572,288.62788 C 646.80412,289.59023 645.21002,290.07092 642.90437,290.07092 L 638.72342,290.07092 L 638.72342,296.70573 L 636.55647,296.70573 L 636.55647,296.70477 z M 638.72437,288.13958 L 642.93857,288.13958 C 644.33127,288.13958 645.32117,287.88023 645.90637,287.36058 C 646.49157,286.84093 646.78512,286.11038 646.78512,285.16703 C 646.78512,284.48398 646.61222,283.89972 646.26832,283.41332 C 645.92347,282.92692 645.46937,282.60583 644.90602,282.45002 C 644.54217,282.35313 643.87147,282.30563 642.89392,282.30563 L 638.72437,282.30563 L 638.72437,288.13958 z "
   id="path261" />
<path
   d="M 642.01042,261.46072 L 643.62447,261.46072 L 643.62447,278.22727 L 642.01042,278.22727 L 642.01042,261.46072 z "
   id="rect263" />
<path
   d="M 635.03457,326.47303 C 635.03457,323.76268 635.76227,321.64227 637.21673,320.10992 C 638.67307,318.57663 640.55122,317.80998 642.85402,317.80998 C 644.36072,317.80998 645.72017,318.17003 646.93047,318.89013 C 648.13982,319.61118 649.06227,320.61438 649.69782,321.90258 C 650.33337,323.19077 650.65067,324.65188 650.65067,326.28398 C 650.65067,327.93982 650.31627,329.42088 649.64747,330.72713 C 648.97867,332.03338 648.03247,333.02328 646.80792,333.69493 C 645.58147,334.36658 644.26002,334.70288 642.84262,334.70288 C 641.30458,334.70288 639.93182,334.33143 638.72152,333.58947 C 637.51027,332.84753 636.59352,331.83293 635.97032,330.54948 C 635.34712,329.26603 635.03457,327.90657 635.03457,326.47303 z M 637.26042,326.50058 C 637.26042,328.46708 637.78957,330.01653 638.84692,331.14893 C 639.90617,332.28038 641.23332,332.84658 642.83027,332.84658 C 644.45572,332.84658 645.79522,332.27468 646.84592,331.13183 C 647.89662,329.98897 648.42292,328.36732 648.42292,326.26687 C 648.42292,324.93878 648.19872,323.77883 647.74842,322.78798 C 647.29812,321.79712 646.64167,321.02858 645.77717,320.48327 C 644.91172,319.93797 643.93987,319.66533 642.86447,319.66533 C 641.33402,319.66533 640.01827,320.19068 638.91437,321.24043 C 637.81237,322.29113 637.26042,324.04388 637.26042,326.50058 z "
   id="path267" /><path
   d="M 653.51112,334.41978 L 653.51112,318.09213 L 655.67807,318.09213 L 655.67807,324.80198 L 664.12452,324.80198 L 664.12452,318.09213 L 666.29147,318.09213 L 666.29147,334.42073 L 664.12452,334.42073 L 664.12452,326.73143 L 655.67807,326.73143 L 655.67807,334.42073 L 653.51112,334.42073 L 653.51112,334.41978 z "
   id="path269" />
<path
   d="M 642.01042,298.84227 L 643.62447,298.84227 L 643.62447,315.60977 L 642.01042,315.60977 L 642.01042,298.84227 z "
   id="rect271" />
<path
   d="M 672.70112,288.75803 C 672.70112,286.04768 673.42882,283.92728 674.88422,282.39493 C 676.33962,280.86163 678.21872,280.09498 680.52057,280.09498 C 682.02822,280.09498 683.38672,280.45503 684.59702,281.17513 C 685.80732,281.89618 686.72977,282.89938 687.36437,284.18757 C 687.99992,285.47483 688.31722,286.93687 688.31722,288.56898 C 688.31722,290.22483 687.98282,291.70587 687.31402,293.01212 C 686.64617,294.31838 685.69997,295.30828 684.47447,295.97993 C 683.24897,296.65158 681.92752,296.98787 680.50917,296.98787 C 678.97207,296.98787 677.59837,296.61643 676.38807,295.87448 C 675.17777,295.13253 674.26102,294.11793 673.63687,292.83448 C 673.01272,291.54913 672.70112,290.19158 672.70112,288.75803 z M 674.92792,288.78558 C 674.92792,290.75208 675.45707,292.30153 676.51537,293.43392 C 677.57367,294.56633 678.90177,295.13158 680.49777,295.13158 C 682.12417,295.13158 683.46272,294.55968 684.51437,293.41683 C 685.56412,292.27398 686.09042,290.65233 686.09042,288.55188 C 686.09042,287.22378 685.86622,286.06383 685.41592,285.07298 C 684.96657,284.08213 684.31012,283.31358 683.44467,282.76828 C 682.57922,282.22298 681.60832,281.95032 680.53197,281.95032 C 679.00247,281.95032 677.68577,282.47568 676.58282,283.52542 C 675.47987,284.57518 674.92792,286.32888 674.92792,288.78558 z "
   id="path275" /><path
   d="M 691.17767,296.70477 L 691.17767,280.37713 L 693.34462,280.37713 L 693.34462,287.08698 L 701.79107,287.08698 L 701.79107,280.37713 L 703.95802,280.37713 L 703.95802,296.70573 L 701.79107,296.70573 L 701.79107,289.01643 L 693.34557,289.01643 L 693.34557,296.70573 L 691.17767,296.70573 L 691.17767,296.70477 z "
   id="path277" />
<path
   d="M 651.27292,286.91978 L 670.51042,286.91978 L 670.51042,288.53478 L 651.27292,288.53478 L 651.27292,286.91978 z "
   id="rect279" />
<path
   d="M 597.36612,288.75803 C 597.36612,286.04768 598.09382,283.92728 599.54922,282.39493 C 601.00462,280.86163 602.88372,280.09498 605.18557,280.09498 C 606.69322,280.09498 608.05267,280.45503 609.26202,281.17513 C 610.47137,281.89618 611.39477,282.89938 612.03032,284.18757 C 612.66492,285.47483 612.98222,286.93687 612.98222,288.56898 C 612.98222,290.22483 612.64782,291.70587 611.97997,293.01212 C 611.31117,294.31838 610.36402,295.30828 609.13947,295.97993 C 607.91397,296.65158 606.59157,296.98787 605.17417,296.98787 C 603.63707,296.98787 602.26338,296.61643 601.05307,295.87448 C 599.84277,295.13253 598.92602,294.11793 598.30187,292.83448 C 597.67773,291.54913 597.36612,290.19158 597.36612,288.75803 z M 599.59292,288.78558 C 599.59292,290.75208 600.12207,292.30153 601.18037,293.43392 C 602.23867,294.56633 603.56677,295.13158 605.16277,295.13158 C 606.78918,295.13158 608.12772,294.55968 609.17937,293.41683 C 610.23102,292.27398 610.75542,290.65233 610.75542,288.55188 C 610.75542,287.22378 610.53122,286.06383 610.08187,285.07298 C 609.63157,284.08213 608.97417,283.31358 608.10967,282.76828 C 607.24517,282.22298 606.27333,281.95032 605.19697,281.95032 C 603.66747,281.95032 602.35077,282.47568 601.24782,283.52542 C 600.14487,284.57518 599.59292,286.32888 599.59292,288.78558 z "
   id="path283" />
<path
   d="M 615.17292,289.72322 L 634.41042,289.72322 L 634.41042,291.33822 L 615.17292,291.33822 L 615.17292,289.72322 z "
   id="rect285" />
<path
   d="M 615.17292,284.06978 L 634.41042,284.06978 L 634.41042,285.68478 L 615.17292,285.68478 L 615.17292,284.06978 z "
   id="rect287" />
<path
   style="fill:none;stroke:#000000;stroke-width:1.35000002;stroke-dasharray:4.25"
   d="M 158.98292,327.72322 L 158.98292,11.373225 M 290.08292,327.72322 L 290.08292,11.373225 M 454.66947,327.72322 L 454.66947,11.373225 M 564.39447,327.72322 L 564.39447,11.373225"
   id="path289" />
<path
   d="M 77.199325,295.87352 L 80.316275,295.54958 C 80.405575,296.25732 80.667775,296.81783 81.104775,297.23108 C 81.541775,297.64433 82.045275,297.85048 82.615275,297.85048 C 83.266975,297.85048 83.818925,297.58542 84.270175,297.05343 C 84.721425,296.52238 84.947525,295.72343 84.947525,294.65373 C 84.947525,293.65053 84.724275,292.89908 84.275875,292.39843 C 83.828425,291.89683 83.246075,291.64603 82.528825,291.64603 C 81.633925,291.64603 80.831175,292.04218 80.121525,292.83353 L 77.585025,292.46683 L 79.188625,283.97193 L 87.442225,283.97193 L 87.442225,286.89603 L 81.561725,286.89603 L 81.067725,289.67573 C 81.763125,289.32708 82.474675,289.15228 83.201425,289.15228 C 84.586525,289.15228 85.760725,289.65768 86.724025,290.66753 C 87.687325,291.67738 88.168975,292.98838 88.168975,294.60053 C 88.168975,295.94478 87.779475,297.14463 87.001425,298.19913 C 85.940275,299.63932 84.467775,300.35943 82.584875,300.35943 C 81.079125,300.35943 79.851725,299.95378 78.902675,299.14342 C 77.951725,298.33213 77.385525,297.24343 77.199325,295.87352 z "
   id="path293" /><path
   d="M 226.06242,300.07727 L 226.06242,296.79693 L 219.39722,296.79693 L 219.39722,294.06187 L 226.46332,283.68978 L 229.09102,283.68978 L 229.09102,294.05048 L 231.12497,294.05048 L 231.12497,296.79693 L 229.09102,296.79693 L 229.09102,300.07727 L 226.06242,300.07727 z M 226.06242,294.05048 L 226.06242,288.49108 L 222.32987,294.05048 L 226.06242,294.05048 z "
   id="path295" />
<path
   d="M 364.18863,295.73958 L 367.21722,295.37097 C 367.31412,296.14522 367.57252,296.73708 367.99527,297.14653 C 368.41803,297.55597 368.92912,297.76023 369.52952,297.76023 C 370.17457,297.76023 370.71702,297.51513 371.15782,297.02493 C 371.59862,296.53473 371.81902,295.87258 371.81902,295.04038 C 371.81902,294.25283 371.60812,293.62867 371.18632,293.16697 C 370.76452,292.70718 370.25057,292.47537 369.64352,292.47537 C 369.24452,292.47537 368.76667,292.55327 368.21187,292.70908 L 368.55577,290.15928 C 369.39842,290.18113 370.04157,289.99777 370.48617,289.60922 C 370.92982,289.21973 371.15117,288.70292 371.15117,288.05693 C 371.15117,287.50878 370.98777,287.07083 370.66192,286.74403 C 370.33607,286.41818 369.90287,286.25478 369.36232,286.25478 C 368.82842,286.25478 368.37337,286.44003 367.99527,286.81148 C 367.61717,287.18293 367.38822,287.72443 367.30652,288.43693 L 364.42707,287.94673 C 364.62752,286.96062 364.92962,286.17308 365.33432,285.58313 C 365.73807,284.99413 366.30237,284.53053 367.02532,284.19232 C 367.74827,283.85603 368.55862,283.68693 369.45732,283.68693 C 370.99252,283.68693 372.22467,284.17618 373.15187,285.15562 C 373.91567,285.95648 374.29852,286.86088 374.29852,287.86788 C 374.29852,289.29953 373.51382,290.44143 371.94347,291.29358 C 372.87732,291.49498 373.62592,291.94433 374.18547,292.64258 C 374.74502,293.34083 375.02527,294.18443 375.02527,295.17242 C 375.02527,296.60693 374.50183,297.82958 373.45682,298.83943 C 372.41182,299.84927 371.10937,300.35563 369.55232,300.35563 C 368.07602,300.35563 366.85242,299.93003 365.88152,299.07788 C 364.90777,298.23048 364.34442,297.11708 364.18863,295.73958 z "
   id="path299" /><path
   d="M 516.93152,297.16743 L 516.93152,300.07727 L 505.96187,300.07727 C 506.08062,298.98003 506.43687,297.93883 507.03062,296.95558 C 507.62342,295.97233 508.79477,294.66798 510.54657,293.04348 C 511.95542,291.73057 512.81992,290.84042 513.13912,290.37208 C 513.56947,289.72607 513.78512,289.08768 513.78512,288.45688 C 513.78512,287.76053 513.59798,287.22378 513.22367,286.84948 C 512.84938,286.47518 512.33257,286.28708 511.67327,286.28708 C 511.02062,286.28708 510.50287,286.48468 510.11717,286.87797 C 509.73147,287.27128 509.50917,287.92678 509.45027,288.83972 L 506.33332,288.52718 C 506.51857,286.80388 507.10187,285.56603 508.08132,284.81553 C 509.06077,284.06503 510.28532,283.68883 511.75497,283.68883 C 513.36523,283.68883 514.63063,284.12298 515.55117,284.99128 C 516.47172,285.85863 516.93152,286.93878 516.93152,288.22983 C 516.93152,288.96418 516.79947,289.66338 516.53632,290.32743 C 516.27317,290.99148 515.85422,291.68782 515.28328,292.41363 C 514.90423,292.89623 514.22022,293.58972 513.23032,294.49508 C 512.23947,295.40042 511.61247,296.00178 511.34932,296.29818 C 511.08617,296.59458 510.87242,296.88338 510.70902,297.16553 L 516.93152,297.16553 L 516.93152,297.16743 z "
   id="path301" />
<path
   d="M 773.43057,300.07727 L 770.29842,300.07727 L 770.29842,288.28303 C 769.15652,289.35082 767.81132,290.14028 766.26092,290.65138 L 766.26092,287.81658 C 767.07697,287.55058 767.96427,287.04423 768.92187,286.29753 C 769.87947,285.55273 770.53592,284.68347 770.89217,283.68978 L 773.43057,283.68978 L 773.43057,300.07727 z "
   id="path305" />
</svg>