<?xml version="1.0" encoding="UTF-8"?>
<svg preserveAspectRatio="xMidYMid" viewBox="58.96 23.83 359.12 185.11" xmlns="http://www.w3.org/2000/svg">
  <clipPath>
    <rect x=".3" y=".3" width="539.4" height="719.15"/>
  </clipPath>
  <path d="M84.386 89.528v-6.442h.853v2.645h3.34v-2.64h.85v6.45h-.85V86.5h-3.34v3.037zm6.066.764l.593-.08q.102.505.346.73.25.22.6.22.42 0 .71-.29t.29-.718q0-.41-.26-.673-.26-.26-.68-.26-.16 0-.41.07l.07-.52q.06.01.1.01.38 0 .68-.2.31-.2.31-.61 0-.32-.22-.54t-.57-.21q-.34 0-.57.22-.23.22-.29.658l-.59-.105q.11-.594.5-.92.39-.33.96-.33.4 0 .73.17.33.16.51.46.18.29.18.62 0 .31-.17.57-.17.25-.5.41.43.09.67.41.24.31.24.78 0 .63-.46 1.07t-1.16.44q-.64 0-1.06-.38t-.48-.98zm8.765-3.024l.853.216q-.268 1.05-.967 1.604-.695.55-1.7.55-1.042 0-1.697-.422-.65-.426-.993-1.23-.34-.805-.34-1.728 0-1.006.384-1.753.386-.752 1.094-1.138.72-.4 1.57-.4.97 0 1.63.49t.92 1.38l-.84.2q-.22-.71-.65-1.03-.42-.32-1.07-.32-.74 0-1.24.35-.49.36-.7.96-.2.6-.2 1.23 0 .82.24 1.43t.75.91 1.1.3q.72 0 1.22-.41.5-.42.68-1.23z"/>
  <path d="M101.51 83.848l-.3-.52 8.44-4.88v.7z" fill-rule="evenodd" shape-rendering="geometricPrecision" stroke-width="0"/>
  <path d="M119.52 87.458l.804-.07q.058.483.264.795.21.308.65.5.44.19.99.19.487 0 .86-.145.374-.145.554-.395.185-.255.185-.554 0-.3-.176-.52-.17-.23-.58-.38-.25-.1-1.14-.31t-1.24-.4q-.46-.24-.69-.6-.22-.36-.22-.8 0-.49.28-.91t.81-.64 1.18-.22q.72 0 1.26.24.55.23.85.68t.32 1.01l-.82.06q-.06-.61-.44-.92t-1.12-.31q-.77 0-1.13.29-.35.28-.35.68 0 .35.25.57.25.23 1.29.47 1.04.23 1.43.41.56.26.83.66t.27.92-.29.98q-.29.45-.85.71-.55.25-1.24.25-.87 0-1.46-.25t-.93-.76q-.33-.51-.35-1.16z"/>
  <path d="M109.65 79.148v-.7l8.9 5.14-.3.52z" fill-rule="evenodd" shape-rendering="geometricPrecision" stroke-width="0"/>
  <path d="M106.58 64.79q0-1.604.86-2.51.863-.91 2.225-.91.892 0 1.608.427.717.42 1.09 1.19.378.76.378 1.72 0 .98-.39 1.75t-1.12 1.17q-.72.39-1.56.39-.91 0-1.62-.44t-1.08-1.2-.37-1.61zm.88.013q0 1.165.623 1.837.628.668 1.573.668.963 0 1.582-.677.624-.67.624-1.92 0-.78-.268-1.37-.263-.59-.778-.91-.51-.32-1.147-.32-.91 0-1.56.63-.65.62-.65 2.08z"/>
  <path d="M110.5 78.948l.6.34v-9.58h-.6zm-2.3.34l.6-.34v-9.24h-.6z" fill-rule="evenodd" shape-rendering="geometricPrecision" stroke-width="0"/>
  <path d="M138.56 87.268l.853.216q-.27 1.05-.967 1.604-.695.55-1.7.55-1.042 0-1.697-.422-.66-.426-1-1.23-.34-.805-.34-1.728 0-1.006.38-1.753.38-.752 1.09-1.138.71-.4 1.56-.4.96 0 1.62.49t.92 1.38l-.84.2q-.23-.71-.65-1.03t-1.07-.32q-.75 0-1.25.35-.5.36-.7.96t-.2 1.23q0 .82.23 1.43.24.61.75.91.5.3 1.09.3.71 0 1.21-.41.49-.42.67-1.23zm1.51-.074q0-1.296.72-1.92.602-.52 1.468-.52.963 0 1.573.634.62.628.62 1.74 0 .9-.27 1.42-.26.514-.78.8-.51.285-1.12.285-.98 0-1.58-.628-.6-.63-.6-1.81zm.813 0q0 .896.39 1.345.392.45.985.45.59 0 .98-.45.39-.44.39-1.36 0-.86-.394-1.31-.39-.44-.976-.44-.593 0-.984.45-.39.45-.39 1.34zm3.887 2.334l2.475-6.442h.918l2.637 6.442h-.97l-.753-1.95h-2.694l-.707 1.95zm1.86-2.646h2.183l-.672-1.784q-.3-.813-.45-1.336-.12.62-.34 1.23z"/>
  <path d="M125.37 86.298v-.6h6.82v.6zm-28.19-33.49v-.7l12.47-7.2v.7z" fill-rule="evenodd" shape-rendering="geometricPrecision" stroke-width="0"/>
  <path d="M119.52 53.918l.804-.07q.058.483.264.795.21.308.65.5.44.19.99.19.487 0 .86-.145.374-.145.554-.396.185-.254.185-.553 0-.3-.176-.52-.17-.23-.58-.38-.25-.1-1.14-.31t-1.24-.4q-.46-.24-.69-.6-.22-.36-.22-.8 0-.49.28-.91t.81-.64 1.18-.22q.72 0 1.26.23.55.23.85.68t.32 1.02l-.82.06q-.06-.61-.44-.92t-1.12-.31q-.77 0-1.13.29-.35.28-.35.68 0 .35.25.57.25.23 1.29.46 1.04.24 1.43.41.56.26.83.66t.27.92-.29.97q-.29.46-.85.71-.55.25-1.24.25-.87 0-1.46-.25t-.93-.76q-.33-.51-.35-1.16z"/>
  <path d="M109.65 45.608v-.7l8.9 5.14-.3.52z" fill-rule="evenodd" shape-rendering="geometricPrecision" stroke-width="0"/>
  <path d="M106.58 31.25q0-1.604.86-2.51.863-.91 2.225-.91.892 0 1.608.427.717.42 1.09 1.19.378.76.378 1.72 0 .98-.39 1.75t-1.12 1.17q-.72.39-1.56.39-.91 0-1.62-.44t-1.08-1.2-.37-1.61zm.88.013q0 1.165.623 1.837.628.668 1.573.668.963 0 1.582-.677.624-.67.624-1.92 0-.78-.268-1.37-.263-.59-.778-.91-.51-.32-1.147-.32-.91 0-1.56.63-.65.62-.65 2.08z"/>
  <path d="M110.5 45.408l.6.34v-9.64h-.6zm-2.3.34l.6-.34v-9.3h-.6z" fill-rule="evenodd" shape-rendering="geometricPrecision" stroke-width="0"/>
  <path d="M138.56 53.728l.853.216q-.27 1.05-.967 1.604-.695.55-1.7.55-1.042 0-1.697-.422-.66-.427-1-1.23-.34-.805-.34-1.728 0-1.006.38-1.753.38-.752 1.09-1.138.71-.4 1.56-.4.96 0 1.62.49t.92 1.38l-.84.2q-.23-.71-.65-1.03t-1.07-.32q-.75 0-1.25.35-.5.36-.7.96t-.2 1.23q0 .82.23 1.43.24.61.75.91.5.3 1.09.3.71 0 1.21-.41.49-.42.67-1.23zm1.51-.074q0-1.296.72-1.92.602-.52 1.468-.52.963 0 1.573.634.62.628.62 1.74 0 .9-.27 1.42-.26.514-.78.8-.51.285-1.12.285-.98 0-1.58-.628-.6-.63-.6-1.81zm.813 0q0 .896.39 1.345.392.45.985.45.59 0 .98-.45.39-.44.39-1.36 0-.86-.394-1.31-.39-.44-.976-.44-.593 0-.984.45-.39.45-.39 1.34zm3.887 2.334l2.475-6.442h.918l2.637 6.442h-.97l-.753-1.95h-2.694l-.707 1.95zm1.86-2.646h2.183l-.672-1.784q-.3-.813-.45-1.336-.12.62-.34 1.23z"/>
  <path d="M125.37 52.758v-.6h6.82v.6zm-28.19-.65v.7l-12.47-7.2v-.7z" fill-rule="evenodd" shape-rendering="geometricPrecision" stroke-width="0"/>
  <path d="M81.645 31.25q0-1.604.86-2.51.863-.91 2.225-.91.892 0 1.608.427.717.42 1.09 1.19.378.76.378 1.72 0 .98-.395 1.75t-1.12 1.17q-.72.39-1.56.39-.91 0-1.62-.44t-1.08-1.2-.37-1.61zm.88.013q0 1.165.623 1.837.628.668 1.573.668.97 0 1.59-.677.63-.67.63-1.92 0-.78-.27-1.37-.26-.59-.78-.91-.51-.32-1.14-.32-.9 0-1.56.63-.65.62-.65 2.08z"/>
  <path d="M85.56 45.408l.6.34v-9.64h-.6zm-2.3.34l.6-.34v-9.3h-.6z" fill-rule="evenodd" shape-rendering="geometricPrecision" stroke-width="0"/>
  <path d="M62.96 55.988v-6.442h.853v2.645h3.35v-2.64h.852V56h-.853v-3.04h-3.35v3.038zm6.22-3.138q0-1.604.86-2.51.862-.91 2.224-.91.892 0 1.608.427.717.42 1.09 1.19.378.76.378 1.72 0 .98-.395 1.75-.396.77-1.12 1.17-.726.39-1.565.39-.91 0-1.626-.44-.717-.44-1.086-1.2t-.37-1.61zm.878.013q0 1.165.624 1.837.628.668 1.573.668.963 0 1.582-.677.624-.67.624-1.92 0-.78-.26-1.37-.26-.59-.78-.91-.51-.32-1.14-.32-.9 0-1.56.63-.65.62-.65 2.08z"/>
  <path d="M84.71 44.908v.7l-8.1 4.67-.15-.25-.15-.26z" fill-rule="evenodd" shape-rendering="geometricPrecision" stroke-width="0"/>
  <path d="M178.35 79.508h-21.73" stroke="#000" stroke-width=".6"/>
  <path d="M182.6 79.508l-6-1.5c1.19.84 1.19 2.16 0 3z" fill-rule="evenodd" shape-rendering="geometricPrecision" stroke-miterlimit="6.935" stroke-width="0"/>
  <path d="M178.35 46.468h-21.73" stroke="#000" stroke-width=".6"/>
  <path d="M182.6 46.468l-6-1.5c1.19.84 1.19 2.16 0 3z" fill-rule="evenodd" shape-rendering="geometricPrecision" stroke-miterlimit="6.935" stroke-width="0"/>
  <path d="M225.41 83.838l-.3-.52 8.42-4.87v.7z" fill-rule="evenodd" shape-rendering="geometricPrecision" stroke-width="0"/>
  <path d="M243.4 87.458l.804-.07q.058.483.264.795.21.308.65.5.44.19.99.19.487 0 .86-.145.374-.145.554-.395.185-.255.185-.554 0-.3-.176-.52-.17-.23-.58-.38-.25-.1-1.14-.31t-1.24-.4q-.46-.24-.69-.6-.22-.36-.22-.8 0-.49.28-.91t.81-.64 1.18-.22q.72 0 1.26.24.55.23.85.68t.32 1.01l-.82.06q-.06-.61-.44-.92t-1.12-.31q-.77 0-1.13.29-.35.28-.35.68 0 .35.25.57.25.23 1.29.47 1.04.23 1.43.41.56.26.83.66t.27.92-.29.98q-.29.45-.85.71-.55.25-1.24.25-.87 0-1.46-.25t-.93-.76q-.33-.51-.35-1.16z"/>
  <path d="M233.53 79.148v-.7l8.92 5.16-.3.52z" fill-rule="evenodd" shape-rendering="geometricPrecision" stroke-width="0"/>
  <path d="M230.46 64.79q0-1.604.86-2.51.863-.91 2.225-.91.892 0 1.608.427.717.42 1.09 1.19.378.76.378 1.72 0 .98-.39 1.75t-1.12 1.17q-.72.39-1.56.39-.91 0-1.62-.44t-1.08-1.2-.37-1.61zm.88.013q0 1.165.623 1.837.628.668 1.573.668.963 0 1.582-.677.624-.67.624-1.92 0-.78-.268-1.37-.263-.59-.778-.91-.51-.32-1.147-.32-.91 0-1.56.63-.65.62-.65 2.08z"/>
  <path d="M234.38 78.948l.6.34v-9.58h-.6zm-2.3.34l.6-.34v-9.24h-.6z" fill-rule="evenodd" shape-rendering="geometricPrecision" stroke-width="0"/>
  <path d="M257.39 89.528l2.474-6.442h.918l2.637 6.442h-.98l-.75-1.95h-2.7l-.71 1.95zm1.86-2.646h2.183l-.673-1.784q-.307-.813-.457-1.336-.123.62-.347 1.23zm9.45.386l.852.216q-.268 1.05-.967 1.604-.694.55-1.7.55-1.042 0-1.697-.422-.65-.426-.993-1.23-.338-.805-.338-1.728 0-1.006.382-1.753.38-.752 1.09-1.138.71-.4 1.56-.4.96 0 1.62.49t.92 1.38l-.84.2q-.23-.71-.65-1.03-.43-.32-1.07-.32-.75 0-1.25.35-.5.36-.7.96t-.2 1.23q0 .82.23 1.43.24.61.75.91.5.3 1.09.3.72 0 1.21-.41.5-.42.67-1.23zm1.91 2.26v-6.442h2.43q.642 0 .98.06.475.08.796.304.32.22.514.62.197.4.197.88 0 .82-.523 1.392-.522.567-1.89.567h-1.652v2.62zm.852-3.38h1.666q.826 0 1.173-.307.35-.3.35-.86 0-.4-.2-.69-.2-.29-.53-.38-.21-.05-.79-.05h-1.65z"/>
  <path d="M250.17 86.298v-.6h6.92v.6zm-29.11-33.49v-.7l12.47-7.2v.7z" fill-rule="evenodd" shape-rendering="geometricPrecision" stroke-width="0"/>
  <path d="M243.4 53.918l.804-.07q.058.483.264.795.21.308.65.5.44.19.99.19.487 0 .86-.145.374-.145.554-.396.185-.254.185-.553 0-.3-.176-.52-.17-.23-.58-.38-.25-.1-1.14-.31t-1.24-.4q-.46-.24-.69-.6-.22-.36-.22-.8 0-.49.28-.91t.81-.64 1.18-.22q.72 0 1.26.23.55.23.85.68t.32 1.02l-.82.06q-.06-.61-.44-.92t-1.12-.31q-.77 0-1.13.29-.35.28-.35.68 0 .35.25.57.25.23 1.29.46 1.04.24 1.43.41.56.26.83.66t.27.92-.29.97q-.29.46-.85.71-.55.25-1.24.25-.87 0-1.46-.25t-.93-.76q-.33-.51-.35-1.16z"/>
  <path d="M233.53 45.608v-.7l8.92 5.16-.3.52z" fill-rule="evenodd" shape-rendering="geometricPrecision" stroke-width="0"/>
  <path d="M230.46 31.25q0-1.604.86-2.51.863-.91 2.225-.91.892 0 1.608.427.717.42 1.09 1.19.378.76.378 1.72 0 .98-.39 1.75t-1.12 1.17q-.72.39-1.56.39-.91 0-1.62-.44t-1.08-1.2-.37-1.61zm.88.013q0 1.165.623 1.837.628.668 1.573.668.963 0 1.582-.677.624-.67.624-1.92 0-.78-.268-1.37-.263-.59-.778-.91-.51-.32-1.147-.32-.91 0-1.56.63-.65.62-.65 2.08z"/>
  <path d="M234.38 45.408l.6.34v-9.64h-.6zm-2.3.34l.6-.34v-9.3h-.6z" fill-rule="evenodd" shape-rendering="geometricPrecision" stroke-width="0"/>
  <path d="M257.39 55.988l2.474-6.442h.918l2.637 6.442h-.98l-.75-1.95h-2.7l-.71 1.95zm1.86-2.646h2.183l-.673-1.784q-.307-.813-.457-1.336-.123.62-.347 1.23zm9.45.386l.852.216q-.268 1.05-.967 1.604-.694.55-1.7.55-1.042 0-1.697-.422-.65-.427-.993-1.23-.338-.805-.338-1.728 0-1.006.382-1.753.38-.752 1.09-1.138.71-.4 1.56-.4.96 0 1.62.49t.92 1.38l-.84.2q-.23-.71-.65-1.03-.43-.32-1.07-.32-.75 0-1.25.35-.5.36-.7.96t-.2 1.23q0 .82.23 1.43.24.61.75.91.5.3 1.09.3.72 0 1.21-.41.5-.42.67-1.23zm1.91 2.26v-6.442h2.43q.642 0 .98.06.475.08.796.304.32.22.514.62.197.4.197.88 0 .82-.523 1.392-.522.567-1.89.567h-1.652v2.62zm.852-3.38h1.666q.826 0 1.173-.307.35-.3.35-.86 0-.4-.2-.69-.2-.29-.53-.38-.21-.05-.79-.05h-1.65z"/>
  <path d="M249.27 52.758v-.6h7.82v.6zm-28.21-.65v.7l-12.47-7.2v-.7z" fill-rule="evenodd" shape-rendering="geometricPrecision" stroke-width="0"/>
  <path d="M209.44 45.408l.6.34v-9.64h-.6zm-2.3.34l.6-.34v-9.3h-.6z" fill-rule="evenodd" shape-rendering="geometricPrecision" stroke-width="0"/>
  <path d="M205.52 31.25q0-1.604.86-2.51.863-.91 2.225-.91.892 0 1.608.427.717.42 1.09 1.19.378.76.378 1.72 0 .98-.39 1.75t-1.12 1.17q-.72.39-1.56.39-.91 0-1.62-.44t-1.08-1.2-.37-1.61zm.88.013q0 1.165.623 1.837.628.668 1.573.668.963 0 1.582-.677.624-.67.624-1.92 0-.78-.268-1.37-.263-.59-.778-.91-.51-.32-1.147-.32-.91 0-1.56.63-.65.62-.65 2.08zm-19.56 24.725v-6.442h.852v2.645h3.35v-2.64h.85V56h-.85v-3.04h-3.35v3.038zm6.22-3.138q0-1.604.86-2.51.863-.91 2.225-.91.892 0 1.608.427.717.42 1.09 1.19.378.76.378 1.72 0 .98-.39 1.75t-1.12 1.17q-.72.39-1.56.39-.91 0-1.62-.44t-1.08-1.2-.37-1.61zm.88.013q0 1.165.623 1.837.628.668 1.573.668.963 0 1.582-.677.624-.67.624-1.92 0-.78-.268-1.37-.264-.59-.778-.91-.51-.32-1.147-.32-.91 0-1.56.63-.65.62-.65 2.08z"/>
  <path d="M208.59 44.908v.7l-8.18 4.72-.3-.52z" fill-rule="evenodd" shape-rendering="geometricPrecision" stroke-width="0"/>
  <path d="M313.51 59.358H280.5" stroke="#000" stroke-width=".6"/>
  <g transform="translate(-.2196 2.9176)" shape-rendering="geometricPrecision">
    <path d="M317.98 56.44l-6-1.5c1.19.84 1.19 2.16 0 3z" fill-rule="evenodd" stroke-miterlimit="6.935" stroke-width="0"/>
    <path d="M286.5 56.45c6.31 0 12.54-2.93 16.57-7.79" fill="none" stroke="#000" stroke-linejoin="bevel" stroke-width=".6"/>
    <path d="M305.12 45.7l-3.77 3.2c1.15-.45 2.01.16 1.95 1.4z" fill-rule="evenodd" stroke-miterlimit="6.935" stroke-width="0"/>
    <path d="M358.15 67.02v-.7l12.47-7.2v.7z" fill-rule="evenodd" stroke-width="0"/>
  </g>
  <path d="M380.27 71.038l.804-.07q.058.483.264.795.21.308.65.5.44.19.99.19.487 0 .86-.145.374-.145.554-.395.185-.255.185-.554 0-.3-.176-.52-.17-.23-.58-.38-.25-.1-1.14-.31t-1.24-.4q-.46-.24-.69-.6-.22-.36-.22-.8 0-.49.28-.91t.81-.64 1.18-.22q.72 0 1.26.24.55.23.85.68t.32 1.01l-.82.06q-.06-.61-.44-.92t-1.12-.31q-.77 0-1.13.29-.35.28-.35.68 0 .35.25.57.25.23 1.29.46 1.04.24 1.43.41.56.26.83.66t.27.92-.29.98q-.29.45-.85.71-.55.25-1.24.25-.87 0-1.46-.25t-.93-.76q-.33-.51-.35-1.16z"/>
  <path d="M370.4 62.738v-.7l8.95 5.17-.3.52z" fill-rule="evenodd" shape-rendering="geometricPrecision" stroke-width="0"/>
  <path d="M371.25 62.538l.6.34v-9.67h-.6zm-2.3.34l.6-.34v-9.33h-.6z" fill-rule="evenodd" shape-rendering="geometricPrecision" stroke-width="0"/>
  <path d="M367.34 48.37q0-1.604.86-2.51.863-.91 2.225-.91.892 0 1.608.427.717.42 1.09 1.19.378.76.378 1.72 0 .98-.39 1.75t-1.12 1.17q-.72.39-1.56.39-.91 0-1.62-.44t-1.08-1.2-.37-1.61zm.88.013q0 1.165.623 1.837.628.668 1.573.668.963 0 1.582-.677.624-.67.624-1.92 0-.78-.268-1.37-.263-.59-.778-.91-.51-.32-1.147-.32-.91 0-1.56.63-.65.62-.65 2.08z"/>
  <path d="M386.07 69.888v-.6h7.92v.6z" fill-rule="evenodd" shape-rendering="geometricPrecision" stroke-width="0"/>
  <path d="M394.26 73.108l2.474-6.442h.918l2.637 6.442h-.98l-.75-1.95h-2.7l-.71 1.95zm1.86-2.646h2.183l-.673-1.784q-.307-.813-.457-1.336-.123.62-.347 1.23zm9.45.386l.852.216q-.268 1.05-.967 1.604-.694.55-1.7.55-1.042 0-1.697-.422-.65-.426-.993-1.23-.338-.805-.338-1.728 0-1.006.382-1.753.38-.752 1.09-1.138.71-.4 1.56-.4.96 0 1.62.49t.92 1.38l-.84.2q-.23-.71-.65-1.03-.43-.32-1.07-.32-.75 0-1.25.35-.5.36-.7.96t-.2 1.23q0 .82.23 1.43.24.61.75.91.5.3 1.09.3.72 0 1.21-.41.5-.42.67-1.23zm1.91 2.26v-6.442h2.43q.642 0 .98.06.475.08.796.304.32.22.514.62.197.4.197.88 0 .82-.523 1.392-.522.567-1.89.567h-1.652v2.62zm.852-3.38h1.666q.826 0 1.173-.307.35-.3.35-.86 0-.4-.2-.69-.2-.29-.53-.38-.21-.05-.79-.05h-1.64z"/>
  <path d="M357.93 69.238v.7l-12.47-7.2v-.7z" fill-rule="evenodd" shape-rendering="geometricPrecision" stroke-width="0"/>
  <path d="M346.31 62.538l.6.34v-9.67h-.6zm-2.3.34l.6-.34v-9.33h-.6z" fill-rule="evenodd" shape-rendering="geometricPrecision" stroke-width="0"/>
  <path d="M342.4 48.37c0-1.07.287-1.906.86-2.51.575-.607 1.317-.91 2.225-.91.595 0 1.13.142 1.608.427.478.28.84.677 1.09 1.19.252.507.378 1.08.378 1.72 0 .653-.13 1.237-.39 1.75s-.63.903-1.12 1.17c-.48.26-1 .39-1.56.39-.6 0-1.14-.147-1.62-.44s-.83-.693-1.08-1.2-.37-1.043-.37-1.61zm.88.013c0 .777.208 1.39.623 1.837.42.445.943.668 1.573.668.642 0 1.17-.226 1.582-.677.416-.45.624-1.09.624-1.92 0-.52-.09-.98-.268-1.37-.175-.39-.435-.69-.778-.91-.34-.21-.722-.32-1.147-.32-.61 0-1.13.21-1.56.63-.44.42-.65 1.11-.65 2.08z"/>
  <path d="M345.46 62.038v.7l-8.15 4.7-.3-.52z" fill-rule="evenodd" shape-rendering="geometricPrecision" stroke-width="0"/>
  <path d="M357.28 110.29V81.92" stroke="#000" stroke-width=".6"/>
  <path d="M357.28 114.54l1.5-6c-.84 1.19-2.16 1.19-3 0z" fill-rule="evenodd" shape-rendering="geometricPrecision" stroke-miterlimit="6.935" stroke-width="0"/>
  <path d="M357.93 146.69v-.7l12.47-7.2v.7zm12.47-7.2v-.7l8.95 5.17-.3.52z" fill-rule="evenodd" shape-rendering="geometricPrecision" stroke-width="0"/>
  <path d="M380.27 147.79l.804-.07q.058.483.264.795.21.308.65.5.44.19.99.19.487 0 .86-.145.374-.145.554-.395.185-.255.185-.554 0-.3-.176-.52-.17-.23-.58-.38-.25-.1-1.14-.31t-1.24-.4q-.46-.24-.69-.6-.22-.36-.22-.8 0-.49.28-.91t.81-.64 1.18-.22q.72 0 1.26.24.55.23.85.68t.32 1.01l-.82.06q-.06-.61-.44-.92t-1.12-.31q-.77 0-1.13.29-.35.28-.35.68 0 .35.25.57.25.23 1.29.47 1.04.23 1.43.41.56.26.83.66t.27.92-.29.98q-.29.45-.85.71-.55.25-1.24.25-.87 0-1.46-.25-.59-.26-.93-.77-.33-.51-.35-1.16zm-12.93-22.67q0-1.604.86-2.51.863-.91 2.225-.91.892 0 1.608.428.717.426 1.09 1.19.378.76.378 1.728 0 .98-.39 1.753-.39.77-1.12 1.17-.72.39-1.56.39-.91 0-1.62-.44t-1.08-1.2-.37-1.61zm.88.013q0 1.165.623 1.837.628.668 1.573.668.963 0 1.582-.676.624-.677.624-1.92 0-.787-.268-1.372-.263-.59-.778-.91-.51-.325-1.147-.325-.91 0-1.56.624-.65.62-.65 2.07z"/>
  <path d="M371.25 139.29l.6.34v-9.62h-.6zm-2.3.34l.6-.34v-9.28h-.6zm17.22 7.01v-.6h7.82v.6z" fill-rule="evenodd" shape-rendering="geometricPrecision" stroke-width="0"/>
  <path d="M394.26 149.86l2.474-6.442h.918l2.637 6.442h-.98l-.75-1.95h-2.7l-.71 1.95zm1.86-2.646h2.183l-.673-1.784q-.307-.813-.457-1.336-.123.62-.347 1.23zm9.45.386l.852.216q-.268 1.05-.967 1.604-.694.55-1.7.55-1.042 0-1.697-.423-.65-.426-.993-1.23-.338-.805-.338-1.728 0-1.01.382-1.76.38-.75 1.09-1.14t1.56-.39q.96 0 1.62.49t.92 1.38l-.84.2q-.23-.71-.65-1.03-.43-.32-1.07-.32-.75 0-1.25.35-.5.36-.7.96t-.2 1.23q0 .82.23 1.44.24.61.75.91.5.3 1.09.3.72 0 1.21-.42.5-.41.67-1.23zm1.91 2.26v-6.442h2.43q.642 0 .98.06.475.08.796.304.32.22.514.62.197.4.197.88 0 .82-.523 1.392-.522.567-1.89.567h-1.652v2.62zm.852-3.38h1.666q.826 0 1.173-.307.35-.308.35-.866 0-.404-.2-.69-.2-.29-.53-.382-.21-.057-.79-.057h-1.64z"/>
  <path d="M357.93 145.99v.7l-12.47-7.2v-.35l.31-.17z" fill-rule="evenodd" shape-rendering="geometricPrecision" stroke-width="0"/>
  <path d="M342.4 125.12q0-1.604.86-2.51.863-.91 2.225-.91.892 0 1.608.428.717.426 1.09 1.19.378.76.378 1.728 0 .98-.39 1.753-.39.77-1.12 1.17-.72.39-1.56.39-.91 0-1.62-.44t-1.08-1.2-.37-1.61zm.88.013q0 1.165.623 1.837.628.668 1.573.668.963 0 1.582-.676.624-.677.624-1.92 0-.787-.268-1.372-.263-.59-.778-.91-.51-.325-1.147-.325-.91 0-1.56.624-.65.62-.65 2.07zm6.4 3.127v-6.442h.852v2.645h3.35v-2.645h.852v6.442h-.853v-3.037h-3.34v3.037z"/>
  <path d="M345.77 138.97l-.31.17-.31-.17-1.2-8.96h3.02z" fill-rule="evenodd" shape-rendering="geometricPrecision" stroke-width="0"/>
  <path d="M345.15 138.97l.31.17v.35l-8.15 4.7-.3-.52z" fill-rule="evenodd" shape-rendering="geometricPrecision" stroke-width="0"/>
  <path d="M296.38 135.49h28.32" stroke="#000" stroke-width=".6"/>
  <path d="M292.13 135.49l6 1.5c-1.19-.84-1.19-2.16 0-3z" fill-rule="evenodd" shape-rendering="geometricPrecision" stroke-miterlimit="6.935" stroke-width="0"/>
  <path d="M230.18 146.69v-.7l12.47-7.2v.7z" fill-rule="evenodd" shape-rendering="geometricPrecision" stroke-width="0"/>
  <path d="M252.52 147.79l.804-.07q.058.483.264.795.21.308.65.5.44.19.99.19.487 0 .86-.145.374-.145.554-.395.185-.255.185-.554 0-.3-.176-.52-.17-.23-.58-.38-.25-.1-1.14-.31t-1.24-.4q-.46-.24-.69-.6-.22-.36-.22-.8 0-.49.28-.91t.81-.64 1.18-.22q.72 0 1.26.24.55.23.85.68t.32 1.01l-.82.06q-.06-.61-.44-.92t-1.12-.31q-.77 0-1.13.29-.35.28-.35.68 0 .35.25.57.25.23 1.29.47 1.04.23 1.43.41.56.26.83.66t.27.92-.29.98q-.29.45-.85.71-.55.25-1.24.25-.87 0-1.46-.25-.59-.26-.93-.77-.33-.51-.35-1.16z"/>
  <path d="M242.65 139.49v-.7l8.9 5.14-.3.52z" fill-rule="evenodd" shape-rendering="geometricPrecision" stroke-width="0"/>
  <path d="M243.5 139.29l.6.34v-9.62h-.6zm-2.3.34l.6-.34v-9.28h-.6z" fill-rule="evenodd" shape-rendering="geometricPrecision" stroke-width="0"/>
  <path d="M239.58 125.12q0-1.604.86-2.51.863-.91 2.225-.91.892 0 1.608.428.717.426 1.09 1.19.378.76.378 1.728 0 .98-.39 1.753-.39.77-1.12 1.17-.72.39-1.56.39-.91 0-1.62-.44t-1.08-1.2-.37-1.61zm.88.013q0 1.165.623 1.837.628.668 1.573.668.963 0 1.582-.676.624-.677.624-1.92 0-.787-.268-1.372-.263-.59-.778-.91-.51-.325-1.147-.325-.91 0-1.56.624-.65.62-.65 2.07z"/>
  <path d="M258.47 146.64v-.6h7.72v.6z" fill-rule="evenodd" shape-rendering="geometricPrecision" stroke-width="0"/>
  <path d="M266.51 149.86l2.474-6.442h.918l2.637 6.442h-.98l-.75-1.95h-2.7l-.71 1.95zm1.86-2.646h2.183l-.673-1.784q-.307-.813-.457-1.336-.123.62-.347 1.23zm9.45.386l.852.216q-.268 1.05-.967 1.604-.694.55-1.7.55-1.042 0-1.697-.423-.65-.426-.993-1.23-.338-.805-.338-1.728 0-1.01.382-1.76.38-.75 1.09-1.14t1.56-.39q.96 0 1.62.49t.92 1.38l-.84.2q-.23-.71-.65-1.03-.43-.32-1.07-.32-.75 0-1.25.35-.5.36-.7.96t-.2 1.23q0 .82.23 1.44.24.61.75.91.5.3 1.09.3.72 0 1.21-.42.5-.41.67-1.23zm1.91 2.26v-6.442h2.43q.642 0 .98.06.475.08.796.304.32.22.514.62.197.4.197.88 0 .82-.523 1.392-.522.567-1.89.567h-1.652v2.62zm.852-3.38h1.666q.826 0 1.173-.307.35-.308.35-.866 0-.404-.2-.69-.2-.29-.53-.382-.21-.057-.79-.057h-1.64z"/>
  <path d="M230.18 145.99v.7l-12.47-7.2v-.7z" fill-rule="evenodd" shape-rendering="geometricPrecision" stroke-width="0"/>
  <path d="M230.18 143.68l-11.32-6.54" stroke="#000" stroke-width=".6"/>
  <path d="M217.71 138.79v.7l-8.2 4.73-.3-.52zm-120.534 7.9v-.7l12.47-7.2v.7z" fill-rule="evenodd" shape-rendering="geometricPrecision" stroke-width="0"/>
  <path d="M119.52 147.79l.804-.07q.058.483.264.795.21.308.65.5.44.19.99.19.487 0 .86-.145.374-.145.554-.395.185-.255.185-.554 0-.3-.176-.52-.17-.23-.58-.38-.25-.1-1.14-.31t-1.24-.4q-.46-.24-.69-.6-.22-.36-.22-.8 0-.49.28-.91t.81-.64 1.18-.22q.72 0 1.26.24.55.23.85.68t.32 1.01l-.82.06q-.06-.61-.44-.92t-1.12-.31q-.77 0-1.13.29-.35.28-.35.68 0 .35.25.57.25.23 1.29.47 1.04.23 1.43.41.56.26.83.66t.27.92-.29.98q-.29.45-.85.71-.55.25-1.24.25-.87 0-1.46-.25-.59-.26-.93-.77-.33-.51-.35-1.16z"/>
  <path d="M109.65 139.49v-.7l8.9 5.14-.3.52z" fill-rule="evenodd" shape-rendering="geometricPrecision" stroke-width="0"/>
  <path d="M106.58 125.12q0-1.604.86-2.51.863-.91 2.225-.91.892 0 1.608.428.717.426 1.09 1.19.378.76.378 1.728 0 .98-.39 1.753-.39.77-1.12 1.17-.72.39-1.56.39-.91 0-1.62-.44t-1.08-1.2-.37-1.61zm.88.013q0 1.165.623 1.837.628.668 1.573.668.963 0 1.582-.676.624-.677.624-1.92 0-.787-.268-1.372-.263-.59-.778-.91-.51-.325-1.147-.325-.91 0-1.56.624-.65.62-.65 2.07z"/>
  <path d="M110.5 139.29l.6.34v-9.62h-.6zm-2.3.34l.6-.34v-9.28h-.6zm17.27 7.01v-.6h7.72v.6z" fill-rule="evenodd" shape-rendering="geometricPrecision" stroke-width="0"/>
  <path d="M133.51 149.86l2.474-6.442h.918l2.637 6.442h-.98l-.75-1.95h-2.7l-.71 1.95zm1.86-2.646h2.183l-.673-1.784q-.307-.813-.457-1.336-.123.62-.347 1.23zm9.45.386l.852.216q-.268 1.05-.967 1.604-.694.55-1.7.55-1.042 0-1.696-.423-.66-.426-1-1.23-.34-.805-.34-1.728 0-1.01.38-1.76t1.09-1.14 1.56-.39q.96 0 1.62.49t.92 1.38l-.84.2q-.23-.71-.65-1.03-.43-.32-1.07-.32-.74 0-1.25.35-.5.36-.7.96t-.2 1.23q0 .82.23 1.44.24.61.75.91.5.3 1.09.3.72 0 1.21-.42.5-.41.67-1.23zm1.91 2.26v-6.442h2.43q.642 0 .98.06.475.08.796.304.32.22.514.62.197.4.197.88 0 .82-.523 1.392-.522.567-1.89.567h-1.65v2.62zm.853-3.38h1.665q.826 0 1.173-.307.35-.308.35-.866 0-.404-.2-.69-.2-.29-.53-.382-.21-.057-.79-.057h-1.64z"/>
  <path d="M97.176 145.99v.7l-12.47-7.2v-.7zm-12.47-7.2v.7l-8.2 4.73-.3-.52z" fill-rule="evenodd" shape-rendering="geometricPrecision" stroke-width="0"/>
  <path d="M160.62 139.72h30.48" stroke="#000" stroke-width=".6"/>
  <path d="M156.37 139.72l6 1.5c-1.19-.84-1.19-2.16 0-3z" fill-rule="evenodd" shape-rendering="geometricPrecision" stroke-miterlimit="6.935" stroke-width="0"/>
  <path d="M226.86 94.448l-104.09 37.1" stroke="#000" stroke-dasharray="2.21" stroke-width=".6"/>
  <path d="M230.86 93.018l-6.16.6c1.41.4 1.85 1.63 1.01 2.83z" fill-rule="evenodd" shape-rendering="geometricPrecision" stroke-miterlimit="6.935" stroke-width="0"/>
  <path d="M90.16 177.17V156.3" stroke="#000" stroke-width=".6"/>
  <path d="M90.16 181.42l1.5-6c-.84 1.19-2.16 1.19-3 0z" fill-rule="evenodd" shape-rendering="geometricPrecision" stroke-miterlimit="6.935" stroke-width="0"/>
  <path d="M95.78 185.42v-20.87" stroke="#000" stroke-width=".6"/>
  <path d="M95.78 189.67l1.5-6c-.84 1.19-2.16 1.19-3 0z" fill-rule="evenodd" shape-rendering="geometricPrecision" stroke-miterlimit="6.935" stroke-width="0"/>
  <path d="M70.49 204.82l2.474-6.442h.92l2.635 6.442h-.98l-.75-1.95H72.1l-.71 1.95zm1.86-2.646h2.183l-.672-1.784q-.3-.813-.45-1.336-.12.62-.34 1.23zm9.455.386l.853.216q-.268 1.05-.967 1.604-.69.55-1.7.55-1.04 0-1.69-.423-.65-.426-.99-1.23-.34-.805-.34-1.728 0-1.01.39-1.76t1.1-1.14 1.57-.39q.97 0 1.63.49t.92 1.38l-.84.2q-.22-.71-.65-1.03-.42-.32-1.07-.32-.74 0-1.24.35-.49.36-.7.96-.2.6-.2 1.23 0 .82.24 1.44.25.61.75.91t1.1.3q.72 0 1.21-.42t.68-1.23zm1.908 2.26v-6.442h2.43q.642 0 .98.06.475.08.796.304.32.22.51.62.2.4.2.88 0 .82-.53 1.392-.53.567-1.89.567h-1.65v2.62zm.853-3.38h1.665q.83 0 1.18-.307.35-.308.35-.866 0-.404-.2-.69-.2-.29-.53-.382-.21-.057-.79-.057h-1.66zm16.714 3.38h-.79v-5.04q-.287.272-.752.544-.462.273-.83.41v-.766q.663-.312 1.16-.755.496-.444.702-.862h.51zm6.14-4.86l-.787.062q-.105-.466-.3-.677-.32-.338-.79-.338-.378 0-.663.21-.374.273-.59.796t-.223 1.49q.285-.435.698-.646.414-.21.866-.21.8 0 1.35.583.56.58.56 1.503 0 .607-.26 1.13-.26.518-.71.795t-1.03.277q-.99 0-1.61-.725-.62-.73-.62-2.4 0-1.867.69-2.715.61-.74 1.63-.74.76 0 1.24.428.49.426.59 1.177zm-3.23 2.778q0 .408.17.782.177.373.49.57.31.194.654.194.5 0 .86-.404t.36-1.098q0-.668-.354-1.05-.356-.387-.897-.387-.536 0-.91.386-.373.39-.373 1.01zm4.57-1.688v-.9h.9v.9zm0 3.766v-.9h.9v.9zm2.06-3.176q0-1.143.233-1.837.237-.7.7-1.077.465-.378 1.168-.378.52 0 .91.21.4.208.65.603.26.4.4.96.15.57.15 1.52 0 1.14-.23 1.84t-.69 1.08-1.17.38q-.93 0-1.46-.66-.64-.8-.64-2.62zm.813 0q0 1.586.37 2.114.373.522.918.522t.92-.527q.38-.53.38-2.11 0-1.59-.37-2.12t-.92-.53q-.54 0-.87.46-.41.59-.41 2.17z"/>
  <path d="M90.17 201.6v-.6h6.28l.01.3v.3z" fill-rule="evenodd" shape-rendering="geometricPrecision" stroke-width="0"/>
  <path d="M198.3 202.56l.852.216q-.268 1.05-.967 1.604-.694.55-1.7.55-1.042 0-1.697-.423-.65-.426-.993-1.23-.338-.805-.338-1.728 0-1.01.382-1.76.38-.75 1.09-1.14t1.56-.39q.96 0 1.62.49t.92 1.38l-.84.2q-.23-.71-.65-1.03-.43-.32-1.07-.32-.75 0-1.25.35-.5.36-.7.96t-.2 1.23q0 .82.23 1.44.24.61.75.91.5.3 1.09.3.72 0 1.21-.42.5-.41.67-1.23zm1.51-.07q0-1.296.72-1.92.603-.518 1.47-.518.96 0 1.572.632.61.63.61 1.74 0 .9-.272 1.42-.268.514-.786.8-.514.285-1.125.285-.98 0-1.59-.63-.6-.63-.6-1.81zm.813 0q0 .897.39 1.345.393.444.986.444.58 0 .98-.45t.39-1.37q0-.87-.4-1.31-.39-.45-.98-.45-.6 0-.99.44t-.39 1.34zm3.877 2.33l2.474-6.442h.92l2.635 6.442h-.98l-.75-1.95h-2.7l-.71 1.95zm1.86-2.646h2.183l-.672-1.784q-.3-.813-.45-1.336-.12.62-.34 1.23zm16.42 2.646h-.79v-5.04q-.287.272-.752.544-.462.273-.83.41v-.766q.663-.312 1.16-.755.496-.444.702-.862h.51zm6.14-4.86l-.787.062q-.105-.466-.3-.677-.32-.338-.79-.338-.378 0-.663.21-.374.273-.59.796t-.223 1.49q.285-.435.698-.646.414-.21.866-.21.8 0 1.35.583.56.58.56 1.503 0 .607-.26 1.13-.26.518-.71.795t-1.03.277q-.99 0-1.61-.725-.62-.73-.62-2.4 0-1.867.69-2.715.61-.74 1.63-.74.76 0 1.24.428.49.426.59 1.177zm-3.23 2.778q0 .408.17.782.177.373.49.57.31.194.654.194.5 0 .86-.404t.36-1.098q0-.668-.355-1.05-.36-.387-.9-.387t-.91.386q-.38.39-.38 1.01zm4.57-1.688v-.9h.9v.9zm0 3.766v-.9h.9v.9zm2.06-3.176q0-1.143.233-1.837.237-.7.7-1.077.465-.378 1.168-.378.52 0 .91.21.4.208.65.603.26.4.4.96.15.57.15 1.52 0 1.14-.23 1.84t-.69 1.08-1.17.38q-.93 0-1.46-.66-.64-.8-.64-2.62zm.813 0q0 1.586.37 2.114.373.522.918.522t.92-.527q.38-.53.38-2.11 0-1.59-.37-2.12t-.92-.53q-.54 0-.87.46-.41.59-.41 2.17z"/>
  <path d="M210.87 201.6v-.6h7.09v.3l-.01.3z" fill-rule="evenodd" shape-rendering="geometricPrecision" stroke-width="0"/>
  <path d="M177.7 201.67h-50.04" stroke="#000" stroke-width=".6"/>
  <path d="M181.95 201.67l-6-1.5c1.19.84 1.19 2.16 0 3z" fill-rule="evenodd" shape-rendering="geometricPrecision" stroke-miterlimit="6.935" stroke-width="0"/>
  <path d="M133.47 196.92l.1.62q-.296.064-.53.064-.383 0-.594-.12t-.297-.318q-.09-.2-.09-.832v-2.387h-.52v-.546h.51v-1.02l.7-.42v1.45h.7v.55h-.71v2.43q0 .3.03.39.04.09.12.14t.24.05q.12 0 .31-.03zm.69.63v-5.727h.703v2.055q.492-.57 1.242-.57.46 0 .8.183.34.18.486.5.15.33.15.93v2.63h-.7v-2.63q0-.52-.23-.76-.22-.24-.64-.24-.31 0-.59.17-.27.16-.39.44-.11.28-.11.77v2.27zm4.45-4.92v-.81h.703v.81zm0 4.918V193.4h.703v4.148zm1.52-2.068q0-1.153.64-1.707.536-.46 1.305-.46.856 0 1.4.56.54.56.54 1.548 0 .81-.24 1.27t-.7.71q-.457.26-1 .26-.87 0-1.41-.56-.535-.55-.535-1.61zm.722 0q0 .797.348 1.195.348.395.875.395.524 0 .87-.4.35-.397.35-1.214 0-.77-.353-1.164-.347-.398-.867-.398-.527 0-.875.394-.348.395-.348 1.192zm6.828.73l.727.09q-.172.637-.637.988-.465.352-1.187.352-.91 0-1.446-.56-.53-.56-.53-1.573 0-1.047.538-1.625t1.4-.578q.83 0 1.358.566.527.567.527 1.594l-.003.187h-3.094q.04.69.387 1.05.347.37.867.37.386 0 .66-.2.273-.2.433-.65zm-2.308-1.137h2.316q-.047-.523-.265-.785-.336-.406-.87-.406-.486 0-.818.324-.328.324-.363.867zm3.648 1.237l.696-.11q.058.418.324.64.27.224.75.224.484 0 .72-.196.233-.2.233-.465 0-.238-.207-.375-.144-.093-.72-.238-.772-.195-1.073-.336-.297-.144-.453-.394-.152-.254-.152-.56 0-.276.125-.51.13-.24.347-.395.164-.12.446-.203.285-.086.61-.086.487 0 .854.14.372.14.547.383.176.23.243.64l-.688.09q-.047-.32-.273-.5-.23-.18-.64-.18-.49 0-.69.16t-.21.37q0 .13.08.24t.27.19q.1.04.62.18.74.2 1.04.33.29.12.46.36t.17.6q0 .35-.21.66t-.59.48q-.39.17-.88.17-.81 0-1.23-.34-.43-.34-.54-1zm5.81.61l.1.62q-.295.064-.53.064-.383 0-.594-.12-.21-.122-.296-.318-.086-.2-.086-.832v-2.387h-.516v-.546h.516v-1.02l.7-.42v1.45h.706v.55h-.707v2.43q0 .3.035.39.04.09.12.14.087.05.243.05.12 0 .31-.03zm3.53-.71l.727.09q-.172.637-.637.988-.465.352-1.187.352-.91 0-1.446-.56-.53-.56-.53-1.573 0-1.047.538-1.625t1.4-.578q.83 0 1.358.566.527.567.527 1.594 0 .062-.004.187h-3.093q.04.69.386 1.05.34.37.86.37.38 0 .66-.2.27-.2.43-.65zm-2.308-1.137h2.316q-.047-.523-.265-.785-.336-.406-.872-.406-.48 0-.81.324t-.36.867zm3.908 2.477v-4.148h.633v.628q.242-.44.445-.582.207-.14.453-.14.36 0 .73.226l-.24.653q-.26-.153-.51-.153-.23 0-.41.14-.18.138-.26.384-.11.375-.11.82v2.172zm5.39-.51q-.39.332-.754.47-.36.136-.774.136-.683 0-1.05-.332-.368-.336-.368-.856 0-.304.137-.554.15-.254.37-.407.23-.152.51-.23.21-.055.63-.106.85-.1 1.26-.24l.01-.18q0-.43-.2-.6-.27-.23-.8-.23-.49 0-.73.18-.23.17-.35.62l-.68-.09q.1-.44.31-.71.22-.27.62-.42.41-.15.94-.15t.87.13.49.32q.16.19.22.48.04.18.04.65v.94q0 .98.05 1.25.05.25.18.49h-.73q-.11-.22-.14-.51zm-.06-1.57q-.382.156-1.148.266-.433.062-.613.14t-.28.23q-.1.15-.1.333 0 .28.21.46.21.19.62.19.4 0 .72-.18.31-.18.46-.49.11-.24.11-.7zm1.52.84l.696-.11q.058.418.324.64.27.224.75.224.484 0 .72-.196.233-.2.233-.465 0-.238-.207-.375-.145-.093-.72-.238-.772-.195-1.073-.336-.297-.144-.453-.394-.152-.254-.152-.56 0-.276.125-.51.128-.24.347-.395.164-.12.446-.203.285-.086.61-.086.487 0 .854.14.37.14.547.383.176.23.242.64l-.69.09q-.05-.32-.28-.5-.22-.18-.63-.18-.49 0-.69.16t-.21.37q0 .13.08.24t.27.19q.1.04.62.18.74.2 1.04.33.29.12.46.36t.17.6q0 .35-.21.66t-.59.48q-.39.17-.88.17-.81 0-1.24-.34t-.54-1zm7.12-.1l.727.09q-.172.637-.637.988-.465.352-1.187.352-.91 0-1.446-.56-.53-.56-.53-1.573 0-1.047.538-1.625t1.4-.578q.83 0 1.358.566.527.567.527 1.594l-.003.187h-3.094q.04.69.387 1.05.347.37.867.37.386 0 .66-.2.273-.2.433-.65zm-2.308-1.137h2.316q-.047-.523-.265-.785-.336-.406-.87-.406-.486 0-.818.324-.328.324-.363.867zm-6.842-138.59q-.582-.733-.984-1.72-.403-.982-.403-2.037 0-.93.3-1.78.353-.99 1.087-1.97h.504q-.473.813-.625 1.16-.24.54-.38 1.125-.17.74-.17 1.47 0 1.88 1.17 3.76zm1.98-1.683h-.653v-5.727h.703v2.043q.446-.558 1.137-.558.383 0 .723.156.344.152.562.434.223.277.348.672.125.394.125.843 0 1.067-.527 1.65-.528.58-1.266.58-.734 0-1.152-.612zm-.008-2.106q0 .747.203 1.08.332.542.898.542.46 0 .797-.4.336-.4.336-1.194 0-.813-.324-1.2-.32-.386-.777-.386-.46 0-.797.402-.336.4-.336 1.157zm4.268 3.79h-.504q1.168-1.875 1.168-3.754 0-.734-.168-1.457-.132-.586-.37-1.125-.153-.352-.63-1.172h.504q.735.98 1.086 1.97.3.85.3 1.78 0 1.055-.405 2.04-.4.984-.98 1.718zm-6.24 33.37q-.582-.734-.984-1.72-.403-.983-.403-2.038 0-.93.3-1.78.353-.99 1.087-1.97h.504q-.473.813-.625 1.16-.24.54-.38 1.125-.17.74-.17 1.47 0 1.88 1.17 3.76zm4.04-2.196q-.39.332-.754.47-.36.135-.773.135-.684 0-1.05-.332-.368-.33-.368-.85 0-.3.137-.55.14-.25.363-.4.227-.15.508-.23.207-.05.625-.1.85-.1 1.254-.24l.004-.18q0-.43-.2-.6-.27-.24-.8-.24-.497 0-.735.18-.23.17-.34.62l-.69-.09q.1-.44.31-.71.22-.27.62-.42.41-.15.94-.15t.87.13.49.31q.16.19.22.48.04.18.04.65v.94q0 .99.05 1.25t.18.5h-.73q-.11-.22-.14-.51zm-.058-1.57q-.383.156-1.15.265-.432.063-.612.14t-.277.23q-.098.15-.098.333 0 .282.21.47.216.187.626.187t.73-.176q.32-.18.47-.488.12-.24.12-.71zm2.258 3.766h-.504q1.168-1.875 1.168-3.754 0-.734-.168-1.457-.132-.586-.37-1.125-.153-.35-.63-1.172h.504q.735.98 1.086 1.97.3.85.3 1.78 0 1.055-.405 2.04-.4.984-.98 1.718zm123.26-19.5q-.582-.734-.984-1.72-.403-.983-.403-2.038 0-.93.3-1.78.353-.99 1.087-1.97h.504q-.473.813-.625 1.16-.24.54-.38 1.125-.17.74-.17 1.47 0 1.88 1.17 3.76zm4.04-3.204l.692.09q-.114.715-.582 1.12-.465.403-1.145.403-.85 0-1.37-.554-.517-.56-.517-1.6 0-.67.223-1.18t.68-.76q.46-.26.99-.26.68 0 1.11.34t.55.97l-.68.1q-.1-.42-.35-.63-.24-.21-.6-.21-.53 0-.86.38t-.33 1.2q0 .84.32 1.21.33.38.84.38.42 0 .7-.26.28-.25.35-.78zm1.75 3.204h-.504q1.168-1.875 1.168-3.754 0-.734-.168-1.457-.133-.586-.37-1.125-.153-.352-.63-1.172h.504q.735.98 1.086 1.97.3.85.3 1.78 0 1.055-.405 2.04-.4.984-.98 1.718zM288.65 38.05v-5.655h.748v2.322h2.94v-2.322h.748v5.655h-.75v-2.666h-2.938v2.666zm5.43-1.817l.706-.062q.05.43.23.7.186.27.572.44t.868.17q.428 0 .756-.12t.486-.34q.162-.22.162-.48t-.154-.46-.51-.33q-.227-.09-1.006-.27-.78-.19-1.092-.35-.405-.21-.605-.52-.197-.32-.197-.71 0-.43.243-.8.24-.37.71-.56.46-.19 1.03-.19.63 0 1.1.21.48.2.74.59t.28.89l-.72.06q-.06-.53-.39-.81t-.99-.27q-.68 0-.99.25t-.31.6q0 .31.22.5.21.2 1.12.41t1.25.36q.49.23.73.58.23.35.23.8t-.26.85-.74.62q-.49.22-1.09.22-.77 0-1.29-.22t-.82-.67-.31-1.02zm12.33 1.817l2.172-5.655h.806l2.315 5.655h-.853l-.66-1.713h-2.364l-.62 1.713zm1.632-2.322h1.917l-.59-1.566q-.27-.714-.41-1.173-.11.54-.31 1.08zm8.298.34l.75.19q-.237.92-.85 1.406-.61.482-1.493.482-.914 0-1.49-.37-.57-.374-.87-1.08-.298-.706-.298-1.516 0-.884.33-1.54.34-.66.96-.998.62-.344 1.37-.344.84 0 1.42.432t.8 1.215l-.74.174q-.2-.62-.57-.9-.38-.28-.95-.28-.65 0-1.09.31t-.62.84q-.18.52-.18 1.08 0 .72.21 1.26t.65.8.96.26q.63 0 1.06-.37t.59-1.08zm1.68 1.982v-5.655h2.134q.563 0 .86.054.416.06.698.26.282.19.45.54.175.35.175.77 0 .72-.46 1.22-.458.5-1.658.5h-1.45v2.3zm.75-2.966h1.46q.726 0 1.03-.27.305-.27.305-.76 0-.355-.18-.606-.178-.254-.472-.335-.19-.05-.698-.05h-1.446z"/>
  <path d="M299.18 35.218v-.53h7v.53z" fill-rule="evenodd" shape-rendering="geometricPrecision" stroke-width="0"/>
  <path d="M295.55 45.134v-1.55h-1.54v-.65h1.54v-1.536h.656v1.54h1.54v.647h-1.54v1.55zm9.47-1.07l.748.19c-.157.613-.44 1.083-.848 1.408-.407.32-.904.482-1.493.482-.61 0-1.106-.123-1.49-.37-.38-.25-.67-.61-.87-1.08-.2-.47-.298-.976-.298-1.516 0-.59.11-1.103.33-1.54.22-.44.54-.773.96-.998.41-.23.87-.344 1.37-.344.56 0 1.04.144 1.43.432s.65.693.8 1.215l-.74.174c-.14-.413-.33-.713-.57-.9s-.56-.28-.94-.28c-.44 0-.8.103-1.09.31s-.5.487-.62.84c-.12.347-.18.707-.18 1.08 0 .48.07.9.21 1.26s.35.627.65.8.61.26.96.26c.42 0 .77-.123 1.06-.37s.48-.607.59-1.08zm1.44-.77c0-.94.252-1.673.756-2.203.504-.53 1.155-.79 1.952-.79.522 0 .993.13 1.412.38s.738.6.957 1.04c.22.44.33.95.33 1.51 0 .58-.115 1.09-.346 1.54s-.55.8-.98 1.03c-.42.23-.87.34-1.37.34-.53 0-1-.13-1.42-.39s-.73-.61-.95-1.05c-.21-.44-.32-.92-.32-1.42zm.772.012c0 .68.183 1.22.548 1.612.367.39.827.586 1.38.586.563 0 1.027-.198 1.39-.594.365-.396.547-.958.547-1.685 0-.46-.078-.86-.235-1.204-.155-.34-.382-.61-.683-.79-.3-.19-.64-.28-1.01-.28-.54 0-.99.18-1.37.54s-.57.97-.57 1.82zm7.978 4.032v.5h-2.803c-.004-.125.016-.245.06-.36.072-.192.186-.38.342-.565.15-.185.38-.4.68-.642.46-.37.77-.67.93-.89.16-.22.24-.43.24-.63s-.08-.38-.23-.52c-.15-.14-.34-.21-.58-.21-.26 0-.46.08-.6.23-.16.15-.23.36-.23.62l-.54-.06c.03-.4.17-.7.41-.92s.56-.32.96-.32c.4 0 .73.11.97.33.23.23.35.51.35.84 0 .17-.04.34-.11.5s-.19.34-.35.51c-.16.18-.43.43-.8.75-.32.26-.52.44-.61.53s-.17.19-.22.28zm29.82 53.764c-.388-.49-.716-1.063-.984-1.72-.268-.656-.403-1.335-.403-2.038 0-.62.1-1.214.3-1.78.236-.66.598-1.317 1.087-1.97h.504c-.315.542-.523.928-.625 1.16-.16.36-.29.735-.38 1.125-.12.49-.17.98-.17 1.47 0 1.25.39 2.5 1.17 3.76zm4.02-1.684v-.523c-.263.41-.65.617-1.16.617-.33 0-.636-.092-.915-.274-.276-.182-.49-.436-.644-.76-.14-.33-.22-.706-.22-1.13 0-.414.07-.79.21-1.125.14-.34.35-.598.62-.778.28-.18.59-.27.93-.27.26 0 .48.053.67.16.2.104.36.24.48.41V93.69h.7v5.728zm-2.223-2.07c0 .53.112.928.336 1.19s.49.394.793.396c.307 0 .567-.125.78-.375.217-.25.325-.63.325-1.15.01-.57-.1-.99-.32-1.25-.22-.27-.49-.4-.81-.4-.31 0-.57.13-.78.39-.2.26-.3.66-.31 1.21zm4.443 3.754h-.504c.78-1.25 1.168-2.502 1.168-3.754 0-.49-.056-.975-.168-1.457-.088-.39-.21-.76-.37-1.12-.102-.23-.312-.62-.63-1.17h.504c.49.66.852 1.31 1.086 1.97.2.57.3 1.16.3 1.78 0 .71-.135 1.39-.405 2.04-.26.66-.59 1.23-.98 1.72z"/>
  <g transform="translate(-4.2196,2.9176)" shape-rendering="geometricPrecision">
    <path d="M369.76 85.92c-7.97 2.99-10.7 9.63-6.1 14.81.8.9 1.8 1.73 2.96 2.45" fill="none" stroke="#000" stroke-linejoin="bevel" stroke-width=".6"/>
    <path d="M369.76 104.7l-3.7-3.22c.61 1.06.14 1.98-1.08 2.12z" fill-rule="evenodd" stroke-miterlimit="6.835" stroke-width="0"/>
  </g>
  <path d="M369.17 91.678v-5.655h.767l2.97 4.44v-4.44h.718v5.655h-.768l-2.97-4.444v4.444zm5.1 0l2.172-5.655h.806l2.315 5.655h-.853l-.66-1.713h-2.364l-.62 1.713zm1.632-2.322h1.917l-.59-1.566c-.18-.476-.32-.867-.41-1.173-.08.36-.18.72-.31 1.08zm4.258 2.322v-5.655h1.948c.44 0 .776.027 1.007.08.324.075.6.21.83.406.298.25.52.57.667.97.15.39.224.84.224 1.35 0 .43-.05.81-.15 1.14-.1.33-.23.61-.387.83-.16.22-.34.39-.52.52s-.42.22-.68.28c-.27.06-.57.1-.91.1zm.75-.667h1.206c.373 0 .665-.03.876-.1.213-.07.383-.17.51-.3.177-.18.314-.42.412-.72.1-.3.15-.66.15-1.09 0-.59-.098-1.05-.293-1.37-.18-.32-.42-.53-.7-.64-.2-.08-1.41-.12-.97-.12h-1.19zm4.96.67v-5.65h2.134c.375 0 .662.02.86.06.277.05.51.14.698.26s.338.31.45.54c.117.24.175.49.175.77 0 .48-.153.89-.46 1.22-.305.34-2.458.5-1.658.5h-1.45v2.3zm.75-2.96h1.46c.484 0 .827-.09 1.03-.27s.305-.43.305-.76c0-.23-.06-.44-.18-.6-.12-.17-.276-.28-.472-.33-.127-.03-1.037-.05-.698-.05h-1.446zm4.55 2.97v-5.66h.75v2.32h2.938v-2.32h.75v5.66h-.75v-2.67h-2.94v2.67zm9.25-.91v-1.55h-1.54v-.65h1.54v-1.54h.656v1.54h1.54v.65h-1.54v1.55zm5.46.92v-5.66h.748v2.32h2.94v-2.32h.748v5.657h-.748v-2.67h-2.94v2.67zm6.56-3.91v-1.17h-1.155v-.483h1.155v-1.16h.49v1.155h1.156v.486h-1.155v1.17zm-43.27 22.658v-5.654h.767l2.97 4.44v-4.44h.718v5.657h-.768l-2.97-4.447v4.443zm5.1 0l2.172-5.654h.806l2.315 5.657h-.853l-.66-1.716h-2.364l-.62 1.713zm1.632-2.32h1.917l-.59-1.567c-.18-.48-.32-.87-.41-1.175-.08.36-.18.72-.31 1.08zm4.258 2.32v-5.656h1.948c.44 0 .776.03 1.007.08.324.076.6.21.83.407.298.254.52.58.667.97.15.394.224.844.224 1.35 0 .434-.05.814-.15 1.14-.1.334-.23.61-.387.83-.16.22-.34.394-.52.52s-.42.22-.68.28c-.27.07-.57.1-.91.1zm.75-.67h1.206c.373 0 .665-.034.876-.103.213-.074.383-.174.51-.3.177-.18.314-.42.412-.72.1-.3.15-.664.15-1.09 0-.594-.098-1.05-.293-1.37-.18-.32-.42-.534-.7-.64-.2-.08-.52-.12-.97-.12h-1.19zm4.96.668v-5.654h2.134c.375 0 .662.02.86.053.277.04.51.126.698.26.188.126.338.306.45.54.117.23.175.49.175.77 0 .48-.153.886-.46 1.22-.305.33-.858.5-1.658.5h-1.45v2.3zm.75-2.965h1.46c.484 0 .827-.09 1.03-.27s.305-.43.305-.76c0-.233-.06-.44-.18-.602-.12-.17-.276-.28-.472-.335-.127-.03-1.037-.05-.698-.05h-1.446zm5.41-.94v-1.163h-1.154v-.486h1.154v-1.15h.492v1.16h1.154v.49h-1.154v1.17zm-85.38 39.58c-.388-.49-.716-1.063-.984-1.72-.27-.656-.403-1.335-.403-2.04 0-.62.1-1.213.3-1.78.235-.66.598-1.32 1.087-1.97h.504c-.315.54-.524.928-.625 1.16-.16.36-.29.735-.38 1.125-.12.49-.17.98-.17 1.47 0 1.253.39 2.504 1.17 3.754zm4.17-3.02l.727.09c-.115.425-.327.754-.637.988-.31.235-.706.35-1.188.35-.607 0-1.088-.186-1.445-.56-.353-.372-.53-.9-.53-1.572 0-.696.18-1.24.538-1.623s.825-.58 1.398-.58c.555 0 1.008.19 1.36.567.35.375.527.91.527 1.59 0 .04 0 .105-.004.19h-3.094c.027.46.156.81.387 1.05.22.245.51.37.86.37.25 0 .47-.07.66-.2.18-.135.32-.35.43-.65zm-2.31-1.14h2.318c-.03-.35-.12-.61-.266-.782-.224-.27-.514-.407-.87-.407-.323 0-.596.105-.817.32-.22.217-.34.506-.364.868zm4.38 4.16h-.504c.78-1.25 1.168-2.5 1.168-3.753 0-.49-.056-.976-.168-1.457-.088-.396-.21-.77-.37-1.13-.102-.236-.312-.626-.63-1.17h.504c.49.65.852 1.31 1.086 1.97.2.564.3 1.16.3 1.78 0 .7-.135 1.38-.405 2.04-.26.65-.59 1.224-.98 1.72zm-22-24.18v-5.73h.757v2.35h2.977v-2.35h.758v5.73h-.758v-2.7h-2.977v2.7zm8.16 1.3v.508h-2.84c-.003-.127.017-.25.062-.366.073-.195.19-.385.346-.57.16-.19.39-.405.692-.65.467-.38.782-.685.946-.91.164-.22.246-.43.246-.63 0-.21-.075-.38-.226-.52-.148-.14-.342-.21-.583-.21-.253 0-.457.075-.61.23-.152.15-.23.36-.23.63l-.542-.05c.04-.41.18-.715.42-.92.25-.215.58-.32.98-.32.42 0 .74.11.98.34.24.23.36.515.36.85 0 .17-.03.34-.1.51s-.18.34-.35.52c-.16.185-.43.44-.81.76-.31.265-.51.445-.61.54-.08.09-.16.19-.22.29zm.71-4.09c0-.95.255-1.693.765-2.23.51-.54 1.17-.81 1.977-.81.53 0 1.005.128 1.43.38.424.25.747.607.968 1.06.224.45.336.96.336 1.535 0 .58-.117 1.1-.35 1.557-.235.46-.568.81-.997 1.048-.44.234-.9.35-1.4.35-.54 0-1.03-.13-1.45-.39s-.75-.616-.97-1.067-.33-.93-.33-1.43zm.78.01c0 .69.185 1.24.556 1.637.372.396.838.594 1.398.594.57 0 1.04-.2 1.406-.6.37-.404.555-.97.555-1.71 0-.467-.08-.873-.238-1.22-.157-.35-.387-.62-.692-.81-.302-.19-.642-.29-1.02-.29-.536 0-.998.188-1.386.56-.39.364-.58.98-.58 1.84z"/>
  <g transform="translate(-.2196 2.9176)" shape-rendering="geometricPrecision">
    <path d="M302.75 124.78c4.03 4.86 10.26 7.79 16.57 7.79" fill="none" stroke="#000" stroke-linejoin="bevel" stroke-width=".6"/>
    <path d="M300.7 121.82l1.82 4.6c-.06-1.24.8-1.85 1.95-1.4z" fill-rule="evenodd" stroke-miterlimit="6.935" stroke-width="0"/>
    <path d="M176.25 136.82c6.14 0 12.12-4.24 15.19-10.75m-13.67 10.71c-5.1 0-10.14 2.87-13.43 7.65" fill="none" stroke="#000" stroke-linejoin="bevel" stroke-width=".6"/>
    <path d="M162.57 147.53l3.49-3.53c-1.11.55-2.02.01-2.07-1.22z" fill-rule="evenodd" stroke-miterlimit="6.968" stroke-width="0"/>
  </g>
  <path d="M150.42 158.8v-5.655h.767l2.97 4.44v-4.44h.718v5.655h-.768l-2.97-4.444v4.444zm5.1 0l2.172-5.655h.806l2.315 5.655h-.853l-.66-1.713h-2.364l-.62 1.713zm1.632-2.322h1.917l-.59-1.566q-.27-.714-.41-1.173-.11.54-.31 1.08zm4.268 2.322v-5.655h1.948q.66 0 1.007.08.486.113.83.406.447.38.667.97.224.59.224 1.35 0 .65-.15 1.14-.15.5-.387.83-.24.33-.52.52t-.68.28q-.4.1-.91.1zm.75-.667h1.206q.56 0 .876-.104.32-.11.51-.3.265-.27.412-.72.15-.45.15-1.09 0-.89-.293-1.37-.28-.48-.7-.64-.3-.12-.97-.12h-1.19zm4.95.667v-5.655h2.134q.563 0 .86.054.416.06.698.26.282.19.45.54.175.35.175.77 0 .72-.46 1.22-.458.5-1.658.5h-1.45v2.3zm.75-2.966h1.46q.726 0 1.03-.27.305-.27.305-.76 0-.355-.18-.606-.178-.254-.472-.335-.19-.05-.698-.05h-1.446zm5.41-.944v-1.163h-1.154v-.486h1.154v-1.15h.492v1.16h1.154v.49h-1.154v1.17zm1.25-5.41q-.582-.735-.984-1.72-.403-.984-.403-2.038 0-.93.3-1.78.353-.99 1.087-1.97h.504q-.473.812-.625 1.16-.24.54-.38 1.125-.17.73-.17 1.47 0 1.878 1.17 3.753zm1.5-1.68v-3.602h-.62v-.546h.62v-.442q0-.418.074-.62.102-.274.356-.442.258-.172.72-.172.296 0 .655.07l-.106.613q-.22-.04-.42-.04-.32 0-.46.13t-.14.51v.38h.81v.54h-.81v3.6zm2.51 1.68h-.504q1.168-1.875 1.168-3.754 0-.735-.168-1.457-.133-.59-.37-1.13-.153-.35-.63-1.17h.504q.734.98 1.086 1.97.3.85.3 1.78 0 1.05-.406 2.04-.402.98-.98 1.72zm-10.49-22.93v-5.655h.767l2.97 4.44v-4.44h.718v5.655h-.768l-2.97-4.444v4.444zm5.1 0l2.172-5.655h.806l2.315 5.655h-.853l-.66-1.713h-2.364l-.62 1.713zm1.632-2.322h1.917l-.59-1.566q-.27-.714-.41-1.173-.11.54-.31 1.08zm4.258 2.322v-5.655h1.948q.66 0 1.007.08.486.113.83.406.447.38.667.97.224.59.224 1.35 0 .65-.15 1.14-.15.5-.387.83-.24.33-.52.52t-.68.28q-.4.1-.91.1zm.75-.667h1.206q.56 0 .876-.104.32-.11.51-.3.265-.27.412-.72.15-.45.15-1.09 0-.89-.293-1.37-.28-.48-.7-.64-.3-.12-.97-.12h-1.19zm4.96.667v-5.655h2.134q.563 0 .86.054.416.06.698.26.282.19.45.54.175.35.175.77 0 .72-.46 1.22-.458.5-1.658.5h-1.45v2.3zm.75-2.966h1.46q.726 0 1.03-.27.305-.27.305-.76 0-.355-.18-.606-.178-.254-.472-.336-.19-.05-.698-.05H185.5zm4.55 2.966v-5.655h.75v2.322h2.938v-2.322h.75v5.655h-.75v-2.665h-2.94v2.665zm9.25-.91v-1.55h-1.54v-.65h1.54v-1.538h.655v1.54h1.54v.647h-1.54v1.55zm5.46.91v-5.655h.748v2.322h2.94v-2.322h.748v5.655h-.748v-2.665h-2.94v2.665zm6.56-3.91v-1.163h-1.154v-.486h1.154v-1.15h.492V121h1.155v.49h-1.155v1.17zm7.11-33.15v-6.443h2.856q.86 0 1.31.175.448.172.716.61.268.44.268.972 0 .686-.444 1.156t-1.37.598q.337.162.513.32.37.343.7.858l1.12 1.753h-1.07l-.86-1.34q-.38-.58-.62-.89-.24-.31-.44-.43-.19-.13-.385-.17-.143-.04-.47-.04h-.99v2.86zm.852-3.6h1.833q.584 0 .914-.12.32-.122.5-.386.17-.268.17-.58 0-.457-.34-.75-.33-.296-1.05-.296h-2.04zM330.4 73.124V66.68h2.856q.86 0 1.31.177.448.17.716.61.268.44.268.972 0 .68-.444 1.15t-1.37.59q.337.16.513.32.37.34.7.86l1.12 1.75H335l-.852-1.34q-.373-.58-.615-.89-.24-.31-.435-.43-.19-.13-.385-.17-.145-.03-.474-.03h-.99v2.86zm.852-3.6h1.833q.584 0 .914-.118.32-.123.5-.387.17-.27.17-.58 0-.46-.34-.76-.33-.3-1.05-.3h-2.04zm-.842 80.353v-6.442h2.856q.86 0 1.31.175.448.172.716.61.268.44.268.972 0 .686-.444 1.156t-1.37.598q.337.162.513.32.37.343.7.858l1.12 1.753h-1.07l-.86-1.34q-.38-.58-.62-.888-.24-.31-.44-.44-.19-.13-.385-.17-.143-.03-.47-.03h-.99v2.86zm.852-3.6h1.833q.584 0 .914-.118.32-.13.5-.39.17-.27.17-.58 0-.46-.34-.75-.33-.3-1.05-.3h-2.04zm-128.754 3.6v-6.442h2.856q.86 0 1.31.175.448.172.716.61.268.44.268.972 0 .686-.444 1.156t-1.37.598q.337.162.513.32.374.343.708.858l1.12 1.753h-1.072l-.853-1.34q-.373-.58-.615-.888-.24-.31-.435-.44-.19-.13-.387-.17-.145-.03-.474-.03h-.99v2.86zm.852-3.6h1.833q.584 0 .914-.118.33-.13.5-.39.172-.27.172-.58 0-.46-.34-.75-.33-.3-1.05-.3h-2.04zm-133.752 3.6v-6.442h2.856q.86 0 1.31.175.448.172.716.61.268.44.268.972 0 .686-.444 1.156t-1.37.598q.337.162.513.32.374.343.708.858l1.12 1.753h-1.072l-.853-1.34q-.373-.58-.615-.888-.24-.31-.435-.44-.19-.13-.387-.17-.145-.03-.474-.03h-.99v2.86zm.852-3.6h1.833q.584 0 .914-.118.33-.13.5-.39.172-.27.172-.58 0-.46-.34-.75-.33-.3-1.05-.3h-2.04z"/>
</svg>