<?xml version="1.0"?>
<svg viewBox="0 0 684 80" xmlns="http://www.w3.org/2000/svg">
<path d="m645.7 61q2 1.1 5.1 2.1 3.2 1 7.8 1 5.9 0 8-2 2.2-2 2.2-5 0-2.9-1.7-4.7t-6.7-2.7l-4.3-.8q-2.5-.5-4.6-1.2-2.1-.8-3.6-2-1.5-1.3-2.4-3-.8-1.8-.8-4.4 0-5.5 4-8.4 4-3 10.5-3 4 0 7.1.9 3.2.9 5.1 1.9l-1.7 3.6q-1.7-.9-4.4-1.6-2.5-.7-6-.7-5.4 0-7.9 1.7t-2.5 5q0 1.5.4 2.6.5 1.1 1.4 2 1 .8 2.7 1.4t4.3 1l4.4.8q2.4.5 4.4 1.3 2.1.8 3.5 2.1 1.5 1.3 2.3 3.1.9 1.7.9 4.2 0 5.4-3.9 8.6-3.8 3.2-10.8 3.2-4.9 0-8.9-1.2t-5.8-2.4zm-37.6.8c0 1 0 1.9-.1 2.8v2.8h-4.3v-55.7h4.7v23.8c1.2-2.4 2.9-4.4 5.2-6 2.4-1.6 5.2-2.5 8.5-2.5 2.7 0 5 .5 7.1 1.6 2 1 3.7 2.4 5 4.2 1.4 1.8 2.4 4 3.1 6.5s1 5.2 1 8.1c0 3.9-.5 7.1-1.5 9.7s-2.3 4.7-4 6.3c-1.6 1.6-3.4 2.7-5.5 3.4-2 .7-4 1-6 1-3.1 0-5.8-.6-7.9-1.7s-3.9-2.6-5.3-4.4zm13.5-30.5c-1.7 0-3.4.4-5 1.2-1.6.7-3 1.8-4.2 3.3-1.2 1.4-2.2 3.2-2.9 5.3s-1 4.4-1 7.1v9c .4.6 1 1.3 1.7 2.1.7.7 1.6 1.5 2.6 2.1s2.1 1.2 3.4 1.7c1.3.4 2.6.6 4 .6 4.1 0 7.3-1.3 9.7-3.8s3.6-6.7 3.6-12.4c0-2.3-.2-4.5-.7-6.4-.5-2-1.2-3.7-2.1-5.1-1-1.4-2.2-2.5-3.7-3.3s-3.2-1.2-5.3-1.2zm-46.4 37q-2.1 0-4.3-.6-2.1-.6-3.9-1.9-1.7-1.3-2.9-3.6-1.1-2.3-1.1-5.6 0-5.7 3.6-9.3t11-3.6q1.7 0 3.6.2 1.8.1 3.3.3 1.6.2 2.8.4t1.8.2v-3.9q0-5.1-2.9-7.4-2.9-2.2-8.4-2.2-4 0-6.6 1-2.6.9-4.3 1.7l-1.5-3.5q1.5-.9 4.9-2.1 3.4-1.3 8.6-1.3 7 0 10.8 3.3 3.8 3.2 3.8 10v26.9h-4.2l-.2-6q-1.2 2-2.8 3.3t-3.5 2.1q-1.8.8-3.9 1.1-2 .4-4 .4zm14.1-20q-.6-.2-1.8-.3-1.1-.2-2.6-.4t-3.2-.2q-1.7-.2-3.4-.2-5.9 0-8.2 2.5t-2.3 6.7q0 4.1 2.6 6.1t6.8 2q2.5 0 4.7-.9 2.2-1 3.9-2.4 1.7-1.5 2.6-3.4 1-1.9 1-3.9zm-56 14.4h25.7v4.6h-30.7v-55.7h5zm-36.3 4.6h-4.8v-55.7h4.8zm-14.9 0h-4.8v-55.7h4.8zm-17.8-22.2q-.5-6.7-3.2-10.3t-8.5-3.6q-5.9 0-8.9 3.6-2.9 3.6-3.6 10.3zm-9.4 18.8q3.7 0 6.2-.7 2.5-.8 4-1.4l1.3 3.6q-1.2.8-4.4 1.8t-7.7 1q-9.6 0-14.3-5.3-4.7-5.4-4.7-15.2 0-4.7 1.2-8.5 1.2-3.9 3.4-6.6t5.4-4.1q3.2-1.5 7.3-1.5 3.8 0 6.8 1.2 3 1.1 5.1 3.7 2.1 2.5 3.2 6.6 1.1 4 1.1 9.7v.8h-28.8q.4 7.1 3.9 11 3.6 4 10.9 4zm-44.5-1q6.8 0 9.7-2.9t2.9-8.2q0-5.5-3.8-8.2-3.7-2.8-10.7-2.8h-10.6v22.1zm-2.6-26.5q6.7 0 9.5-3 2.9-3 2.9-7.8 0-2.7-1-4.5-1-1.9-2.7-3t-3.9-1.6q-2.1-.5-4.5-.5h-10.2v20.4zm.9-24.8q4.4 0 7.4 1.2 3.2 1.1 5.1 3 2 1.9 2.9 4.4 1 2.5 1 5.4 0 2.7-.8 4.8t-2.1 3.6q-1.2 1.5-2.7 2.5-1.4 1-2.7 1.4 2 .5 4 1.6 2 1 3.6 2.7t2.6 4q1 2.4 1 5.5 0 6.9-4.4 11.2t-13.9 4.3h-16.6v-55.7zm-97 34.3h22.1l-11-20.6zm-6.5 12.3l-5.3 9.7h-19.8l31.3-57.1h22.8l31 57.1h-19.8l-5.2-9.7zm-28.2-47.3v57.1h-17.8v-57.1zm-47.8 0h23.6l-32.6 27.5 36.8 29.6h-25.8l-32.5-29.6zm-30.5 0v57.1h-17.8v-57.1zm-83.9 40.1c0 1.2.4 2 1.1 2.5s2.1.7 4.1.7h32.3c1.9 0 3.3-.3 4.2-.9s1.3-1.4 1.3-2.3v-23.1c0-1.4-.4-2.3-1.1-2.8-.8-.5-2.1-.7-4.2-.7h-32.5c-1.9 0-3.2.3-4 .9s-1.2 1.5-1.2 2.5zm-16-25.6c0-2.3.3-4.2.8-5.8.5-1.5 1.5-2.9 3-4.2 1.3-1.3 2.7-2.2 4.2-2.9s3.5-1.2 5.8-1.5 5.2-.5 8.5-.5c3.3-.1 8.4-.1 15.3-.1s12 0 15.3.1 6.1.3 8.4.5c2.3.3 4.2.8 5.7 1.5s2.9 1.6 4.2 2.9c1.5 1.3 2.4 2.7 3 4.2.5 1.5.8 3.4.8 5.8v27.8c0 2.3-.3 4.3-.8 5.9s-1.5 3-3 4.4c-1.3 1.2-2.7 2.1-4.2 2.8-1.6.7-3.5 1.1-5.9 1.5-2.3.3-5.2.5-8.7.6-3.4.1-8.4.1-15 .1-6.5 0-11.5 0-14.9-.1s-6.3-.3-8.6-.6c-2.4-.3-4.3-.8-5.8-1.5s-2.9-1.6-4.2-2.8c-1.5-1.3-2.4-2.8-3-4.4-.5-1.6-.8-3.6-.8-5.9zm-71 42.3h-16.8v-56.9h29l34.3 42.3.3.7v-43.1h16.8v56.9h-28.8l-34.6-42.6-.2-.5z" fill="#023ea8"/>
</svg>
