<?xml version="1.0" encoding="UTF-8" standalone="no"?>
<!-- Generator: Adobe Illustrator 12.0.1, SVG Export Plug-In . SVG Version: 6.00 Build 51448)  -->

<svg
   xmlns:dc="http://purl.org/dc/elements/1.1/"
   xmlns:cc="http://creativecommons.org/ns#"
   xmlns:rdf="http://www.w3.org/1999/02/22-rdf-syntax-ns#"
   xmlns:svg="http://www.w3.org/2000/svg"
   xmlns="http://www.w3.org/2000/svg"
   xmlns:sodipodi="http://sodipodi.sourceforge.net/DTD/sodipodi-0.dtd"
   xmlns:inkscape="http://www.inkscape.org/namespaces/inkscape"
   version="1.1"
   id="svg2467"
   sodipodi:version="0.32"
   inkscape:version="0.48.4 r9939"
   sodipodi:docname="Cori_&amp;_Alanine_Cycle_edited_by_wrekodara.svg"
   inkscape:output_extension="org.inkscape.output.svg.inkscape"
   width="462.657"
   height="648.766"
   viewBox="525 2448.937 462.657 648.766"
   overflow="visible"
   enable-background="new 525 2448.937 462.657 648.766"
   xml:space="preserve"><metadata
   id="metadata189"><rdf:RDF><cc:Work
       rdf:about=""><dc:format>image/svg+xml</dc:format><dc:type
         rdf:resource="http://purl.org/dc/dcmitype/StillImage" /><dc:title /></cc:Work></rdf:RDF></metadata>
<defs
   id="defs3">
	
	
		<inkscape:perspective
   id="perspective2475"
   inkscape:persp3d-origin="372.04724 : 350.78739 : 1"
   inkscape:vp_x="0 : 526.18109 : 1"
   inkscape:vp_y="0 : 1000 : 0"
   sodipodi:type="inkscape:persp3d"
   inkscape:vp_z="744.09448 : 526.18109 : 1">
		</inkscape:perspective>
</defs>
<sodipodi:namedview
   id="base"
   inkscape:guide-bbox="true"
   inkscape:pageshadow="2"
   inkscape:current-layer="svg2467"
   objecttolerance="10"
   inkscape:pageopacity="0.0"
   guidetolerance="10"
   inkscape:document-units="px"
   borderopacity="1.0"
   inkscape:zoom="2.6066826"
   showgrid="false"
   showguides="true"
   inkscape:cy="661.97684"
   gridtolerance="10000"
   pagecolor="#ffffff"
   inkscape:cx="231.32851"
   bordercolor="#666666"
   inkscape:window-width="1366"
   inkscape:window-height="706"
   inkscape:window-x="-8"
   inkscape:window-y="-8"
   inkscape:snap-bbox="true"
   inkscape:snap-global="true"
   inkscape:window-maximized="1">
	</sodipodi:namedview>
<path
   id="rect2583"
   fill="#FFFF00"
   stroke="#000000"
   stroke-width="0.1946"
   d="M801.511,2877.95h43.82  c1.119,0,2.027,0.908,2.027,2.027v17.563c0,1.119-0.908,2.026-2.027,2.026h-43.82c-1.119,0-2.027-0.907-2.027-2.026v-17.563  C799.484,2878.858,800.392,2877.95,801.511,2877.95z" />
<path
   id="rect2601"
   fill="#FFFF00"
   stroke="#000000"
   stroke-width="0.1946"
   d="M797.189,2547.157h44.431  c1.134,0,2.055,0.92,2.055,2.055v17.808c0,1.135-0.92,2.054-2.055,2.054h-44.431c-1.135,0-2.055-0.919-2.055-2.054v-17.808  C795.134,2548.077,796.054,2547.157,797.189,2547.157z" />
<path
   fill="none"
   d=""
   id="path9" />
<path
   id="path2607"
   sodipodi:nodetypes="ccc"
   stroke="#000000"
   d="M780.411,2996.442" />
<path
   id="path2631"
   inkscape:connector-type="polyline"
   d="m 474.044,2692.903 0,0"
   inkscape:connector-curvature="0"
   style="fill:none;stroke:#000000" />
<path
   fill="none"
   d=""
   id="path13" />
<path
   id="path5271"
   sodipodi:nodetypes="ccc"
   stroke="#000000"
   d="M781.487,2926.034" />
<path
   id="path5277"
   sodipodi:nodetypes="cc"
   fill="none"
   stroke="#000000"
   stroke-width="0.9277"
   d="M778.989,2873.512  c5.673,19.836,17.581,16.688,17.581,16.688" />
<path
   fill="none"
   d=""
   id="path17" />
<path
   id="path5313"
   sodipodi:nodetypes="ccc"
   stroke="#000000"
   d="M741.823,2525.537" />
<path
   fill="none"
   d=""
   id="path20" />
<path
   id="path5315"
   sodipodi:nodetypes="ccc"
   stroke="#000000"
   d="M742.654,2496.982" />
<path
   id="path5317"
   sodipodi:nodetypes="cc"
   fill="none"
   stroke="#000000"
   stroke-width="0.9277"
   d="M793.203,2551.834  c0,0-9.65-3.148-14.248,16.687" />
<text
   font-size="14"
   id="text24"
   style="font-size:14px;font-style:normal;font-variant:normal;font-weight:normal;font-stretch:normal;font-family:SimSun;-inkscape-font-specification:SimSun"
   x="896.94342"
   y="2528.3845">2乳酸</text>




<text
   font-size="14"
   id="text26"
   style="font-size:14px;font-style:normal;font-variant:normal;font-weight:normal;font-stretch:normal;font-family:SimSun;-inkscape-font-specification:SimSun"
   x="754.30518"
   y="2529.5872">2丙酮酸</text>




<text
   transform="translate(794.3491,2596.3518)"
   font-size="14"
   id="text28"
   style="font-size:14px;fill:#0071bc;font-family:SimSun;-inkscape-font-specification:SimSun;font-weight:normal;font-style:normal;font-stretch:normal;font-variant:normal">糖酵解</text>





<text
   font-size="14"
   id="text32"
   style="font-size:14px;font-style:normal;font-variant:normal;font-weight:normal;font-stretch:normal;font-family:SimSun;-inkscape-font-specification:SimSun"
   x="757.30127"
   y="2646.2205">葡萄糖</text>




<text
   transform="matrix(1 0 0 1 799.1934 2563.6794)"
   font-family="'Verdana'"
   font-size="14"
   id="text34"
   style="-inkscape-font-specification:SimSun;font-family:SimSun;font-weight:normal;font-style:normal;font-stretch:normal;font-variant:normal">2 ATP</text>




<text
   transform="matrix(1 0 0 1 803.7207 2894.6594)"
   font-family="'Verdana'"
   font-size="14"
   id="text36"
   style="-inkscape-font-specification:SimSun;font-family:SimSun;font-weight:normal;font-style:normal;font-stretch:normal;font-variant:normal">6 ATP</text>





<text
   font-size="14"
   id="text40"
   style="font-size:14px;font-style:normal;font-variant:normal;font-weight:normal;font-stretch:normal;font-family:SimSun;-inkscape-font-specification:SimSun"
   x="896.9292"
   y="2755.4402">2乳酸</text>




<text
   font-size="14"
   id="text42"
   style="font-size:14px;font-style:normal;font-variant:normal;font-weight:normal;font-stretch:normal;font-family:SimSun;-inkscape-font-specification:SimSun"
   x="754.6377"
   y="2956.0867">2丙酮酸</text>





<text
   font-size="14"
   id="text46"
   style="font-size:14px;font-style:normal;font-variant:normal;font-weight:normal;font-stretch:normal;fill:#0071bc;font-family:SimSun;-inkscape-font-specification:SimSun"
   x="636.99408"
   y="2895.8894">糖异生</text>




<g
   id="g48">
	<g
   id="g50">
		<line
   fill="none"
   stroke="#000000"
   x1="778.722"
   y1="2853.406"
   x2="778.722"
   y2="2935.406"
   id="line52" />
		<path
   d="M778.722,2847.37c1.054,2.84,2.852,6.363,4.755,8.547l-4.755-1.72l-4.755,1.72    C775.871,2853.734,777.668,2850.21,778.722,2847.37z"
   id="path54" />
	</g>
</g>
<g
   id="g56">
	<g
   id="g58">
		<line
   fill="none"
   stroke="#000000"
   x1="778.389"
   y1="2541.406"
   x2="778.389"
   y2="2624.072"
   id="line60" />
		<path
   d="M778.389,2535.371c1.054,2.84,2.852,6.363,4.755,8.547l-4.755-1.72l-4.755,1.72    C775.538,2541.734,777.335,2538.211,778.389,2535.371z"
   id="path62" />
	</g>
</g>
<g
   id="g64">
	<g
   id="g66">
		<line
   fill="none"
   stroke="#000000"
   stroke-width="0.9277"
   x1="730.39"
   y1="2523.073"
   x2="683.723"
   y2="2523.073"
   id="line68" />
		<path
   d="M678.124,2523.073c2.635-0.978,5.903-2.646,7.929-4.412l-1.595,4.412l1.595,4.411    C684.027,2525.718,680.758,2524.05,678.124,2523.073z"
   id="path70" />
	</g>
</g>
<text
   font-size="14"
   id="text72"
   style="font-size:14px;font-style:normal;font-variant:normal;font-weight:normal;font-stretch:normal;font-family:SimSun;-inkscape-font-specification:SimSun"
   x="607.97168"
   y="2529.5872">2丙氨酸</text>




<path
   fill="none"
   stroke="#000000"
   stroke-width="0.9277"
   d="M673.056,2478.74c-0.841,6.795,15.18,43.563,28.56,44.148  c13.818,1.757,27.742-38.371,27.44-44.815"
   id="path74" />
<text
   font-size="10"
   id="text76"
   x="708.62103"
   y="2473.2473"
   style="font-size:10px;font-family:SimSun;-inkscape-font-specification:SimSun;font-weight:normal;font-style:normal;font-stretch:normal;font-variant:normal"><tspan
   style="font-size:14px;font-style:normal;font-variant:normal;font-weight:normal;font-stretch:normal;font-family:SimSun;-inkscape-font-specification:SimSun"
   id="tspan3170">α</tspan>-<tspan
   style="font-style:normal;font-variant:normal;font-weight:normal;font-stretch:normal;font-family:SimSun;-inkscape-font-specification:SimSun"
   id="tspan3207">氨基酸</tspan></text>




<text
   font-size="10"
   id="text78"
   x="656.35004"
   y="2473.4224"
   style="font-size:10px;font-family:SimSun;-inkscape-font-specification:SimSun;font-weight:normal;font-style:normal;font-stretch:normal;font-variant:normal"><tspan
   style="font-size:14px;font-style:normal;font-variant:normal;font-weight:normal;font-stretch:normal;font-family:SimSun;-inkscape-font-specification:SimSun"
   id="tspan3166">α</tspan>-<tspan
   style="font-style:normal;font-variant:normal;font-weight:normal;font-stretch:normal;font-family:SimSun;-inkscape-font-specification:SimSun"
   id="tspan3205">酮酸</tspan></text>




<text
   font-size="14"
   id="text80"
   style="font-size:14px;font-style:normal;font-variant:normal;font-weight:normal;font-stretch:normal;fill:#0071bc;font-family:SimSun;-inkscape-font-specification:SimSun"
   x="682.01611"
   y="2547.3523">转氨基</text>




<g
   id="g82">
	<g
   id="g84">
		<line
   fill="none"
   stroke="#000000"
   stroke-width="0.9277"
   x1="866.723"
   y1="2523.073"
   x2="818.723"
   y2="2523.073"
   id="line86" />
		<path
   d="M872.322,2523.073c-2.635,0.978-5.903,2.646-7.929,4.412l1.595-4.412l-1.595-4.411    C866.419,2520.427,869.688,2522.095,872.322,2523.073z"
   id="path88" />
	</g>
</g>
<line
   x1="525.1521"
   y1="2704.073"
   x2="987.97479"
   y2="2704.073"
   id="line90"
   style="fill:none;stroke:#ff0000;stroke-width:3.00000004000000020;stroke-opacity:1;stroke-miterlimit:4;stroke-dasharray:none" />
<line
   x1="525.28162"
   y1="2801.073"
   x2="988.14667"
   y2="2801.073"
   id="line92"
   style="fill:none;stroke:#ff0000;stroke-width:3.00000004000000020;stroke-opacity:1;stroke-miterlimit:4;stroke-dasharray:none" />
<text
   font-size="14"
   id="text94"
   style="font-size:14px;font-style:normal;font-variant:normal;font-weight:normal;font-stretch:normal;font-family:SimSun;-inkscape-font-specification:SimSun"
   x="758.30127"
   y="2838.5535">葡萄糖</text>




<text
   font-size="14"
   id="text96"
   style="font-size:14px;font-style:normal;font-variant:normal;font-weight:normal;font-stretch:normal;font-family:SimSun;-inkscape-font-specification:SimSun"
   x="896.60992"
   y="2956.051">2乳酸</text>




<g
   id="g98">
	<g
   id="g100">
		<line
   fill="none"
   stroke="#000000"
   stroke-width="0.9277"
   x1="874.39"
   y1="2950.739"
   x2="826.389"
   y2="2950.739"
   id="line102" />
		<path
   d="M820.79,2950.739c2.635-0.978,5.903-2.646,7.929-4.411l-1.595,4.411l1.595,4.411    C826.693,2953.385,823.425,2951.717,820.79,2950.739z"
   id="path104" />
	</g>
</g>
<g
   id="g106">
	<g
   id="g108">
		<line
   fill="none"
   stroke="#000000"
   x1="913.723"
   y1="2540.073"
   x2="913.723"
   y2="2731.406"
   id="line110" />
		<path
   d="M913.723,2737.441c-1.054-2.84-2.852-6.363-4.755-8.547l4.755,1.72l4.755-1.72    C916.575,2731.077,914.777,2734.601,913.723,2737.441z"
   id="path112" />
	</g>
</g>
<g
   id="g114">
	<g
   id="g116">
		<line
   fill="none"
   stroke="#000000"
   x1="913.723"
   y1="2765.739"
   x2="913.723"
   y2="2930.406"
   id="line118" />
		<path
   d="M913.723,2936.441c-1.054-2.84-2.852-6.363-4.755-8.547l4.755,1.72l4.755-1.72    C916.575,2930.078,914.777,2933.601,913.723,2936.441z"
   id="path120" />
	</g>
</g>
<g
   id="g122">
	<g
   id="g124">
		<line
   fill="none"
   stroke="#000000"
   x1="633.056"
   y1="2540.74"
   x2="633.056"
   y2="2732.073"
   id="line126" />
		<path
   d="M633.056,2738.108c-1.054-2.84-2.852-6.363-4.755-8.547l4.755,1.72l4.755-1.72    C635.908,2731.744,634.11,2735.268,633.056,2738.108z"
   id="path128" />
	</g>
</g>
<g
   id="g130">
	<g
   id="g132">
		<line
   fill="none"
   stroke="#000000"
   x1="633.056"
   y1="2766.406"
   x2="633.056"
   y2="2931.74"
   id="line134" />
		<path
   d="M633.056,2937.775c-1.054-2.84-2.852-6.363-4.755-8.547l4.755,1.72l4.755-1.72    C635.908,2931.411,634.11,2934.935,633.056,2937.775z"
   id="path136" />
	</g>
</g>
<text
   font-size="14"
   id="text138"
   style="font-size:14px;font-style:normal;font-variant:normal;font-weight:normal;font-stretch:normal;font-family:SimSun;-inkscape-font-specification:SimSun"
   x="607.30518"
   y="2755.2537">2丙氨酸</text>




<g
   id="g140">
	<g
   id="g142">
		<line
   fill="none"
   stroke="#000000"
   stroke-width="0.9277"
   x1="724.39"
   y1="2950.74"
   x2="677.723"
   y2="2950.74"
   id="line144" />
		<path
   d="M729.989,2950.74c-2.635,0.978-5.903,2.646-7.929,4.411l1.595-4.411l-1.595-4.411    C724.086,2948.094,727.354,2949.762,729.989,2950.74z"
   id="path146" />
	</g>
</g>
<text
   font-size="14"
   id="text148"
   style="font-size:14px;font-style:normal;font-variant:normal;font-weight:normal;font-stretch:normal;font-family:SimSun;-inkscape-font-specification:SimSun"
   x="608.97168"
   y="2956.2542">2丙氨酸</text>




<g
   id="g150">
	<g
   id="g152">
		<line
   fill="none"
   stroke="#000000"
   x1="778.39"
   y1="2816.74"
   x2="778.39"
   y2="2772.073"
   id="line154" />
		<path
   d="M778.39,2766.037c1.054,2.84,2.852,6.363,4.755,8.547l-4.755-1.72l-4.755,1.72    C775.538,2772.401,777.336,2768.877,778.39,2766.037z"
   id="path156" />
	</g>
</g>
<g
   id="g158">
	<g
   id="g160">
		<line
   fill="none"
   stroke="#000000"
   x1="778.723"
   y1="2660.739"
   x2="778.723"
   y2="2736.073"
   id="line162" />
		<path
   d="M778.723,2654.704c1.054,2.84,2.852,6.363,4.755,8.547l-4.755-1.72l-4.755,1.72    C775.872,2661.067,777.669,2657.544,778.723,2654.704z"
   id="path164" />
	</g>
</g>
<text
   font-size="14"
   id="text166"
   style="font-size:14px;font-style:normal;font-variant:normal;font-weight:normal;font-stretch:normal;font-family:SimSun;-inkscape-font-specification:SimSun"
   x="758.30127"
   y="2755.22">葡萄糖</text>




<path
   id="path5277_2_"
   sodipodi:nodetypes="cc"
   fill="none"
   stroke="#000000"
   stroke-width="0.9277"
   d="M706.57,2968.049  c-5.673-19.836-17.581-16.688-17.581-16.688" />
<text
   font-size="14"
   id="text169"
   style="font-size:14px;font-style:normal;font-variant:normal;font-weight:normal;font-stretch:normal;font-family:SimSun;-inkscape-font-specification:SimSun"
   x="698.97223"
   y="2983.9211">NH</text>




<g
   id="g171">
	<g
   id="g173">
		<line
   fill="none"
   stroke="#000000"
   x1="708.056"
   y1="2991.739"
   x2="708.056"
   y2="3051.739"
   id="line175" />
		<path
   d="M708.056,3057.774c-1.054-2.84-2.852-6.363-4.755-8.547l4.755,1.72l4.755-1.72    C710.908,3051.411,709.11,3054.934,708.056,3057.774z"
   id="path177" />
	</g>
</g>
<text
   transform="translate(691.9717,3070.9211)"
   font-size="14"
   id="text179"
   style="font-size:14px;font-family:SimSun;-inkscape-font-specification:SimSun;font-weight:normal;font-style:normal;font-stretch:normal;font-variant:normal">尿素</text>




<text
   transform="matrix(1 0 0 1 714.7231 2986.7395)"
   font-family="'Verdana'"
   font-size="8"
   id="text181"
   style="-inkscape-font-specification:SimSun;font-family:SimSun;font-weight:normal;font-style:normal;font-stretch:normal;font-variant:normal">2</text>




<path
   id="rect2601_1_"
   fill="#FFFF00"
   stroke="#000000"
   stroke-width="0.1946"
   d="M726.855,3004.824h44.431  c1.134,0,2.055,0.92,2.055,2.055v17.808c0,1.135-0.92,2.054-2.055,2.054h-44.431c-1.135,0-2.055-0.919-2.055-2.054v-17.808  C724.801,3005.744,725.721,3004.824,726.855,3004.824z" />
<path
   id="path5317_1_"
   sodipodi:nodetypes="cc"
   fill="none"
   stroke="#000000"
   stroke-width="0.9277"
   d="M722.87,3009.501  c0,0-9.65-3.148-14.248,16.687" />
<text
   transform="matrix(1 0 0 1 728.8599 3021.3464)"
   font-family="'Verdana'"
   font-size="14"
   id="text185"
   style="-inkscape-font-specification:SimSun;font-family:SimSun;font-weight:normal;font-style:normal;font-stretch:normal;font-variant:normal">4 ATP</text>




<text
   font-size="14"
   id="text187"
   style="font-size:14px;font-style:normal;font-variant:normal;font-weight:normal;font-stretch:normal;fill:#0071bc;font-family:SimSun;-inkscape-font-specification:SimSun"
   x="659.68311"
   y="3024.0188">脱氨基</text>




<rect
   style="fill:#ff0000;fill-opacity:0.58823532000000001;fill-rule:evenodd;stroke:#000000;stroke-width:1px;stroke-linecap:butt;stroke-linejoin:miter;stroke-opacity:1"
   id="rect3946"
   width="22.616333"
   height="67.848999"
   x="526.17487"
   y="2541.1062" /><text
   transform="matrix(0,-1,1,0,0,0)"
   font-size="14"
   id="text30"
   x="-2590.4148"
   y="541.63849"
   style="font-size:14px;font-style:normal;font-variant:normal;font-weight:normal;font-stretch:normal;font-family:SimSun;-inkscape-font-specification:SimSun"><tspan
     style="font-style:normal;font-variant:normal;font-weight:normal;font-stretch:normal;font-family:SimSun;-inkscape-font-specification:SimSun"
     id="tspan3856">肌肉</tspan></text>



<rect
   style="fill:#ff0000;fill-opacity:0.58823532000000001;fill-rule:evenodd;stroke:#000000;stroke-width:1px;stroke-linecap:butt;stroke-linejoin:miter;stroke-opacity:1"
   id="rect3946-0"
   width="22.616333"
   height="67.848999"
   x="526.15326"
   y="2717.1433" /><text
   transform="matrix(0,-1,1,0,0,0)"
   font-size="14"
   id="text38"
   x="-2764.6641"
   y="542.18683"
   style="font-size:14px;font-style:normal;font-variant:normal;font-weight:normal;font-stretch:normal;font-family:SimSun;-inkscape-font-specification:SimSun"><tspan
     style="font-style:normal;font-variant:normal;font-weight:normal;font-stretch:normal;font-family:SimSun;-inkscape-font-specification:SimSun"
     id="tspan3854">血液</tspan></text>



<rect
   style="fill:#ff0000;fill-opacity:0.58823532000000001;fill-rule:evenodd;stroke:#000000;stroke-width:1px;stroke-linecap:butt;stroke-linejoin:miter;stroke-opacity:1"
   id="rect3946-7"
   width="22.616333"
   height="67.848999"
   x="526.06726"
   y="2911.7134" /><text
   transform="matrix(0,-1,1,0,0,0)"
   font-size="14"
   id="text44"
   x="-2964.0493"
   y="542.05676"
   style="font-size:14px;font-family:SimSun;-inkscape-font-specification:SimSun;font-weight:normal;font-style:normal;font-stretch:normal;font-variant:normal"><tspan
     style="font-weight:normal;-inkscape-font-specification:SimSun;font-family:SimSun;font-style:normal;font-stretch:normal;font-variant:normal"
     id="tspan3852">肝脏</tspan></text>



</svg>